<svg height="511pt" viewBox="-32 0 511 511.99927" width="511pt" xmlns="http://www.w3.org/2000/svg"><path d="m120.378906 205.902344c-6.726562 16.527344-19.671875 29.75-36.050781 36.824218l-2.765625 1.195313c-4.496094 1.941406-4.496094 8.316406 0 10.257813l2.765625 1.195312c16.378906 7.074219 29.324219 20.296875 36.050781 36.824219 1.890625 4.644531 8.460938 4.644531 10.351563 0 6.726562-16.527344 19.671875-29.75 36.050781-36.824219l2.765625-1.195312c4.496094-1.941407 4.496094-8.316407 0-10.257813l-2.765625-1.195313c-16.378906-7.074218-29.324219-20.296874-36.050781-36.824218-1.890625-4.644532-8.460938-4.644532-10.351563 0zm0 0" fill="#91d1e0"/><path d="m362.761719 168.246094c-7.542969 18.542968-22.066407 33.378906-40.445313 41.3125l-3.101562 1.339844c-5.042969 2.179687-5.042969 9.332031 0 11.507812l3.101562 1.339844c18.375 7.9375 32.902344 22.773437 40.445313 41.3125 2.121093 5.207031 9.492187 5.207031 11.613281 0 7.542969-18.539063 22.066406-33.375 40.441406-41.3125l3.101563-1.339844c5.046875-2.175781 5.046875-9.328125 0-11.507812l-3.101563-1.339844c-18.375-7.9375-32.898437-22.769532-40.441406-41.3125-2.121094-5.207032-9.492188-5.207032-11.613281 0zm0 0" fill="#7fd7c3"/><path d="m186.738281 175.472656c0-93.398437 72.839844-169.789062 164.8125-175.4609372 4.613281-.2851568 7.550781 4.8593752 5.003907 8.7148432l-19.160157 28.972657c-1.28125 1.933593-1.238281 4.453125.101563 6.347656l19.144531 27c2.488281 3.507813.261719 8.386719-4.015625 8.824219-48.421875 4.964844-86.195312 45.871094-86.195312 95.601562zm0 0" fill="#fab25f"/><path d="m431.496094 184.726562h-409.824219c-9.171875 0-16.605469-7.433593-16.605469-16.605468v-25.742188c0-19.882812 16.121094-36.003906 36.003906-36.003906h371.027344c19.882813 0 36.003906 16.121094 36.003906 36.003906v25.742188c0 9.171875-7.433593 16.605468-16.605468 16.605468zm0 0" fill="#e889c2"/><path d="m168.371094 106.375h-127.300782c-19.882812 0-36.003906 16.117188-36.003906 36.003906v25.742188c0 9.167968 7.4375 16.605468 16.605469 16.605468h145.382813c-2.667969-21.992187-1.433594-54.339843 1.316406-78.351562zm0 0" fill="#db5ac6"/><path d="m397.597656 512h-342.027344c-9.480468 0-17.167968-7.6875-17.167968-17.167969v-186.445312c0-9.480469 7.6875-17.167969 17.167968-17.167969h342.027344c9.480469 0 17.167969 7.6875 17.167969 17.167969v186.445312c0 9.480469-7.6875 17.167969-17.167969 17.167969zm0 0" fill="#e889c2"/><path d="m55.570312 291.21875c-9.480468 0-17.167968 7.6875-17.167968 17.167969v186.445312c0 9.480469 7.6875 17.167969 17.167968 17.167969h172.476563c-44-35.644531-65.488281-153.3125-60.003906-220.78125zm0 0" fill="#db5ac6"/><path d="m266.429688 175.472656c0-93.398437-72.835938-169.789062-164.8125-175.4609372-4.609376-.2851568-7.550782 4.8593752-5.003907 8.7148432l19.164063 28.972657c1.277344 1.933593 1.238281 4.453125-.105469 6.347656l-19.144531 27c-2.488282 3.507813-.261719 8.386719 4.019531 8.824219 48.417969 4.964844 86.191406 45.871094 86.191406 95.601562v336.527344h79.691407zm0 0" fill="#fde77c"/><path d="m178.199219 372.554688c0-12.441407-12.667969-22.53125-28.292969-22.53125s-28.292969 10.089843-28.292969 22.53125c0 12.445312 12.667969 22.53125 28.292969 22.53125s28.292969-10.085938 28.292969-22.53125zm0 0" fill="#f1b3c1"/><path d="m331.554688 372.554688c0-12.441407-12.667969-22.53125-28.292969-22.53125s-28.292969 10.089843-28.292969 22.53125c0 12.445312 12.667969 22.53125 28.292969 22.53125s28.292969-10.085938 28.292969-22.53125zm0 0" fill="#f1b3c1"/><g fill="#4c5969"><path d="m154.636719 353.453125c-4.140625 0-7.5-3.359375-7.5-7.5v-12.144531c0-4.140625 3.359375-7.5 7.5-7.5s7.5 3.359375 7.5 7.5v12.144531c0 4.140625-3.359375 7.5-7.5 7.5zm0 0"/><path d="m249.394531 355.246094c0-14.097656-10.210937-15.421875-22.808593-15.421875-12.601563 0-22.8125 1.320312-22.8125 15.421875 0 14.09375 10.210937 25.523437 22.8125 25.523437 12.597656 0 22.808593-11.425781 22.808593-25.523437zm0 0"/><path d="m298.53125 353.453125c-4.140625 0-7.5-3.359375-7.5-7.5v-12.144531c0-4.140625 3.359375-7.5 7.5-7.5 4.144531 0 7.5 3.359375 7.5 7.5v12.144531c0 4.140625-3.355469 7.5-7.5 7.5zm0 0"/></g><path d="m52.859375 155.867188c-13.886719 5.851562-29.515625 6.019531-43.523437.460937l-2.363282-.9375c-3.847656-1.523437-7.652344 2.28125-6.128906 6.125l.9375 2.367187c5.558594 14.003907 5.390625 29.636719-.460938 43.519532-1.644531 3.902344 2.28125 7.828125 6.183594 6.183594 13.882813-5.855469 29.515625-6.019532 43.519532-.460938l2.367187.9375c3.84375 1.523438 7.652344-2.28125 6.125-6.128906l-.9375-2.363282c-5.558594-14.007812-5.390625-29.636718.464844-43.523437 1.640625-3.898437-2.285157-7.824219-6.183594-6.179687zm0 0" fill="#fde77c"/><path d="m186.738281 439.558594v72.441406h41.308594c-17.371094-14.074219-31.230469-40.9375-41.308594-72.441406zm0 0" fill="#fab25f"/></svg>