<svg id="Capa_1" enable-background="new 0 0 512 512" height="512" viewBox="0 0 512 512" width="512" xmlns="http://www.w3.org/2000/svg"><g><g><g><path d="m244.781 267.219c-58.863-58.863-154.298-58.863-213.16 0-58.863 58.863-27.992 123.427 30.87 182.29s123.427 89.733 182.29 30.87c58.863-58.862 58.863-154.298 0-213.16zm-81.146 201.896c-20.583-5.148-44.81-21.548-72.006-48.744s-43.596-51.423-48.744-72.006c-3.377-13.502-3.894-30.24 17.874-52.008 42.702-42.702 112.183-42.702 154.885 0s42.702 112.183 0 154.885c-21.769 21.768-38.507 21.25-52.009 17.873z" fill="#c4e2fe"/></g></g><g><path d="m62.491 420.371c8.046-8.046 21.092-8.046 29.138 0-27.196-27.196-43.596-51.423-48.744-72.006-3.377-13.502-3.894-30.24 17.874-52.008 42.702-42.702 112.183-42.702 154.885 0l29.138-29.138c-58.863-58.863-154.298-58.863-213.16 0-58.863 58.863-27.992 123.427 30.87 182.29-8.047-8.047-8.047-21.092-.001-29.138z" fill="#b0d8fd"/></g><g><path d="m320.58 336.921-145.69-145.69c-40.231 40.231-40.231 105.458 0 145.689 40.232 40.232 105.459 40.232 145.69.001z" fill="#9ccefd"/></g><g><path d="m174.891 285.201c14.282-14.282 37.438-14.282 51.72 0l21.143-21.106-72.864-72.864c-40.231 40.231-40.231 105.458 0 145.689-14.281-14.281-14.281-37.437.001-51.719z" fill="#72bafd"/></g><g><path d="m474.283 219.64c49.989-49.989 50.287-130.853.893-181.21-49.845-50.816-132.432-51.306-182.849-1.057-24.108 24.028-36.695 55.218-37.777 86.734-.889 25.908-11.968 50.424-30.298 68.755l-30.421 30.421 94.698 94.698 30.494-30.494c18.296-18.296 42.768-29.347 68.627-30.224 31.466-1.066 62.613-13.602 86.633-37.623z" fill="#fff2b4"/></g><g><path d="m365.016 219.64c-50.289-50.289-50.289-131.823 0-182.112 15.707-15.707 34.462-26.508 54.361-32.403-43.621-12.618-92.771-1.918-127.05 32.247-24.108 24.027-36.695 55.218-37.777 86.734-.889 25.908-11.968 50.424-30.298 68.755l-30.421 30.421 94.698 94.698 30.494-30.494c18.296-18.296 42.768-29.347 68.627-30.224 10.791-.366 21.545-2.081 31.987-5.146-19.996-5.877-38.846-16.701-54.621-32.476z" fill="#ffdf8e"/></g><g><path d="m226.611 285.201c-86.136-86.136-89.689-181.189-89.798-185.193-.31-11.375 8.66-20.848 20.034-21.157 11.351-.31 20.809 8.622 21.155 19.964.018.481.908 21.281 10.885 50.839 9.193 27.234 28.254 67.802 66.861 106.409s79.175 57.669 106.409 66.861c29.758 10.045 50.639 10.878 50.847 10.885 11.376.311 20.306 9.782 19.996 21.156-.31 11.375-9.822 20.344-21.197 20.033-4.003-.108-99.056-3.661-185.192-89.797z" fill="#c4e2fe"/></g><g><path d="m226.616 285.205c-8.045-8.046-8.045-21.091.001-29.137s21.092-8.046 29.138 0c-.002-.002-.004-.003-.005-.005-38.607-38.607-57.669-79.175-66.861-106.409-9.977-29.558-10.867-50.359-10.885-50.839-.346-11.342-9.804-20.273-21.155-19.964-11.375.309-20.345 9.782-20.034 21.157.109 4.004 3.663 99.057 89.798 185.193-.001.001.001.003.003.004z" fill="#b0d8fd"/></g><g><g><g><ellipse cx="332.548" cy="63.229" fill="#fda0c1" rx="24.109" ry="30.274" transform="matrix(.707 -.707 .707 .707 52.69 253.665)"/></g><g><ellipse cx="448.583" cy="179.263" fill="#fda0c1" rx="24.109" ry="30.274" transform="matrix(.707 -.707 .707 .707 4.63 369.704)"/></g><g><path d="m420.923 125.407c10.667-10.667 3.941-19.396-5.591-28.928s-18.262-16.257-28.928-5.591-11.586 27.041-2.054 36.573 25.907 8.613 36.573-2.054z" fill="#6e6e6e"/></g></g><g><path d="m356.48 53.955c-1.919 0-3.839-.732-5.303-2.197-2.929-2.929-2.929-7.678 0-10.606l8.741-8.741c2.929-2.929 7.678-2.929 10.606 0 2.929 2.929 2.929 7.678 0 10.606l-8.741 8.741c-1.464 1.465-3.384 2.197-5.303 2.197z" fill="#6e6e6e"/></g><g><path d="m465.357 162.832c-1.919 0-3.839-.732-5.303-2.197-2.929-2.929-2.929-7.678 0-10.606l8.741-8.741c2.929-2.929 7.678-2.929 10.606 0 2.929 2.929 2.929 7.678 0 10.606l-8.741 8.741c-1.464 1.465-3.384 2.197-5.303 2.197z" fill="#6e6e6e"/></g></g></g></svg>