<svg id="Capa_1" enable-background="new 0 0 512 512" height="512" viewBox="0 0 512 512" width="512" xmlns="http://www.w3.org/2000/svg"><g><g><path d="m492.413 56.875 11.865-11.865c10.297-10.297 10.297-26.991 0-37.288-10.297-10.297-26.991-10.297-37.288 0l-11.865 11.865c-17.899 17.899-45.538 21.667-67.574 9.211-22.037-12.456-49.675-8.688-67.574 9.211l-8.052 8.052 154.015 154.015 8.052-8.052c17.899-17.899 21.667-45.537 9.211-67.574-12.457-22.037-8.69-49.676 9.21-67.575z" fill="#fff2b4"/></g><g><path d="m397.618 85.024c12.904-12.904 33.826-12.904 46.731 0l38.185 38.185c-11.632-21.826-7.688-48.768 9.878-66.334l11.865-11.865c10.297-10.297 10.297-26.991 0-37.288s-26.991-10.297-37.288 0l-11.865 11.865c-17.899 17.899-45.537 21.667-67.574 9.211-22.037-12.456-49.675-8.688-67.574 9.211l-8.052 8.052 85.694 85.694c-12.904-12.904-12.904-33.826 0-46.731z" fill="#ffdf8e"/></g><g><path d="m409.16 248.749-145.909-145.909c-17.907-17.907-17.907-46.941 0-64.848 17.907-17.907 46.941-17.907 64.848 0l145.91 145.908c17.907 17.907 17.907 46.941 0 64.848-17.908 17.908-46.941 17.908-64.849.001z" fill="#b0d8fd"/></g><g><path d="m321.527 96.267c17.907-17.907 46.941-17.907 64.848 0l-58.275-58.276c-17.907-17.907-46.941-17.907-64.848 0-17.907 17.907-17.907 46.941 0 64.848l58.276 58.276c-17.908-17.907-17.908-46.94-.001-64.848z" fill="#9ccefd"/></g><g><path d="m432.789 323.548c6.706-6.706 10.223-14.619 11.86-22.411 3.641-17.33-2.193-35.304-14.714-47.826l-171.245-171.245c-12.522-12.522-30.496-18.356-47.826-14.714-7.792 1.637-15.705 5.154-22.411 11.86-22.354 22.354-35.601 57.955-76.584 98.938s-76.584 54.23-98.938 76.584c-6.706 6.706-10.223 14.619-11.86 22.411-3.641 17.33 2.193 35.304 14.714 47.826l171.245 171.245c12.522 12.522 30.496 18.356 47.826 14.714 7.792-1.637 15.705-5.154 22.411-11.86 22.354-22.354 35.601-57.955 76.584-98.938 40.982-40.983 76.583-54.23 98.938-76.584z" fill="#f7f0eb"/></g><g><path d="m59.346 335.42c1.637-7.792 5.154-15.705 11.86-22.411 22.354-22.354 57.955-35.601 98.938-76.584s54.23-76.584 76.584-98.938c6.706-6.706 14.619-10.223 22.411-11.86 17.33-3.641 35.304 2.192 47.826 14.714l-58.275-58.275c-12.522-12.522-30.496-18.356-47.826-14.714-7.792 1.637-15.705 5.154-22.411 11.86-22.354 22.354-35.601 57.955-76.584 98.938s-76.584 54.23-98.938 76.584c-6.706 6.706-10.223 14.619-11.86 22.411-3.641 17.33 2.192 35.304 14.714 47.826l58.276 58.276c-12.523-12.522-18.356-30.497-14.715-47.827z" fill="#efe2dd"/></g><g><g><g><ellipse cx="157.024" cy="233.23" fill="#fda0c1" rx="25.296" ry="31.765" transform="matrix(.707 -.707 .707 .707 -118.928 179.344)"/></g><g><ellipse cx="278.77" cy="354.976" fill="#fda0c1" rx="25.296" ry="31.765" transform="matrix(.707 -.707 .707 .707 -169.356 301.09)"/></g></g><g><path d="m187.553 236.382c-1.919 0-3.839-.732-5.303-2.197-2.929-2.929-2.929-7.678 0-10.606l8.741-8.741c2.929-2.929 7.678-2.929 10.606 0 2.929 2.929 2.929 7.678 0 10.606l-8.741 8.741c-1.464 1.464-3.384 2.197-5.303 2.197z" fill="#6e6e6e"/></g><g><path d="m246.357 296.765c-8.233 0-16.156-3.257-22.011-9.111-6.361-6.361-9.655-15.165-9.038-24.154.284-4.133 3.864-7.25 7.997-6.968 4.132.284 7.252 3.864 6.968 7.997-.32 4.662 1.385 9.225 4.679 12.52 3.294 3.293 7.857 5.003 12.52 4.679 4.133-.272 7.713 2.836 7.997 6.968s-2.836 7.712-6.968 7.997c-.716.048-1.431.072-2.144.072z" fill="#6e6e6e"/></g><g><path d="m295.179 343.521c-1.919 0-3.839-.732-5.304-2.197-2.929-2.929-2.928-7.678 0-10.607 1.29-1.289 2-3.003 2-4.826s-.71-3.537-2-4.827c-1.289-1.289-3.003-1.999-4.827-1.999-1.823 0-3.537.71-4.826 1.999-2.929 2.929-7.677 2.929-10.607 0-2.929-2.929-2.929-7.678 0-10.607 4.122-4.122 9.604-6.393 15.433-6.393 5.83 0 11.311 2.27 15.433 6.392 4.123 4.123 6.393 9.604 6.393 15.434s-2.271 11.311-6.393 15.434c-1.463 1.465-3.383 2.197-5.302 2.197z" fill="#6e6e6e"/></g></g></g></svg>