<svg id="Capa_1" enable-background="new 0 0 512 512" height="512" viewBox="0 0 512 512" width="512" xmlns="http://www.w3.org/2000/svg"><g><g><path d="m132.371 219.889c-4.142 0-7.5-3.358-7.5-7.5v-160.86c0-4.142 3.358-7.5 7.5-7.5s7.5 3.358 7.5 7.5v160.86c0 4.142-3.358 7.5-7.5 7.5z" fill="#efe2dd"/></g><g><path d="m178.729 346.313h-92.716c-17.069 0-30.905-13.837-30.905-30.905v-92.716c0-17.069 13.837-30.905 30.905-30.905h92.716c17.069 0 30.905 13.837 30.905 30.905v92.716c0 17.068-13.837 30.905-30.905 30.905z" fill="#9edcae"/></g><g><path d="m132.371 315.407v-92.716c0-17.069 13.837-30.905 30.905-30.905h-77.263c-17.069 0-30.905 13.837-30.905 30.905v92.716c0 17.069 13.837 30.905 30.905 30.905h77.264c-17.069.001-30.906-13.836-30.906-30.905z" fill="#7fd196"/></g><g><path d="m379.629 219.889c-4.143 0-7.5-3.358-7.5-7.5v-160.86c0-4.142 3.357-7.5 7.5-7.5s7.5 3.358 7.5 7.5v160.86c0 4.142-3.358 7.5-7.5 7.5z" fill="#efe2dd"/></g><g><circle cx="379.629" cy="269.049" fill="#fda0c1" r="77.264"/></g><g><path d="m379.629 269.049c0-28.594 15.544-53.54 38.632-66.901-11.367-6.578-24.554-10.362-38.632-10.362-42.672 0-77.264 34.592-77.264 77.264 0 42.671 34.592 77.264 77.264 77.264 14.078 0 27.265-3.784 38.632-10.362-23.087-13.363-38.632-38.31-38.632-66.903z" fill="#fc90b4"/></g><g><path d="m256 337.158c-4.142 0-7.5-3.358-7.5-7.5v-309.054c0-4.142 3.358-7.5 7.5-7.5 4.143 0 7.5 3.358 7.5 7.5v309.054c0 4.142-3.357 7.5-7.5 7.5z" fill="#efe2dd"/></g><g><g><path d="m255.993 0c-121.815 0-191.54 64.7-194.449 67.454-8.263 7.824-8.618 20.865-.794 29.127 7.807 8.245 20.81 8.618 29.075.843.353-.327 15.69-14.406 43.646-28.252 25.758-12.757 67.922-27.964 122.521-27.964s96.763 15.207 122.521 27.964c28.145 13.94 43.5 28.115 43.651 28.257 8.264 7.824 21.275 7.441 29.099-.82 7.824-8.263 7.44-21.33-.822-29.154-2.909-2.755-72.634-67.455-194.448-67.455z" fill="#f7f0eb"/></g><g><path d="m255.999 0c-11.379.001-20.603 9.225-20.603 20.603 0 11.379 9.225 20.604 20.604 20.604-.003 0-.005 0-.007 0-54.599 0-96.763 15.207-122.521 27.964-27.956 13.846-43.293 27.925-43.646 28.252-8.265 7.775-21.268 7.403-29.075-.843-7.824-8.262-7.469-21.303.794-29.127 2.908-2.753 72.633-67.453 194.448-67.453z" fill="#efe2dd"/></g></g><g><g><path d="m384.773 383.227c0-9.391-4.194-17.797-10.805-23.465 3.938-7.766 4.596-17.138 1.002-25.814s-10.685-14.837-18.962-17.544c.667-8.682-2.312-17.592-8.952-24.233-6.64-6.64-15.55-9.619-24.233-8.952-2.707-8.277-8.868-15.368-17.544-18.962s-18.047-2.936-25.814 1.003c-5.668-6.611-14.074-10.805-23.465-10.805s-17.797 4.194-23.465 10.805c-7.766-3.938-17.138-4.596-25.814-1.003-8.676 3.594-14.837 10.685-17.544 18.962-8.682-.667-17.592 2.312-24.233 8.952-6.64 6.64-9.619 15.55-8.952 24.233-8.277 2.707-15.368 8.868-18.962 17.544s-2.936 18.048 1.002 25.814c-6.611 5.668-10.805 14.074-10.805 23.465s4.194 17.797 10.805 23.465c-3.938 7.766-4.596 17.138-1.002 25.814s10.685 14.837 18.962 17.544c-.666 8.682 2.312 17.592 8.952 24.233 6.64 6.64 15.55 9.619 24.233 8.952 2.707 8.277 8.868 15.368 17.544 18.962s18.047 2.936 25.814-1.003c5.668 6.612 14.074 10.806 23.465 10.806s17.797-4.194 23.465-10.805c7.766 3.938 17.138 4.596 25.814 1.003 8.676-3.594 14.837-10.685 17.544-18.962 8.682.667 17.592-2.312 24.233-8.952 6.64-6.64 9.619-15.55 8.952-24.233 8.277-2.707 15.368-8.868 18.962-17.544s2.936-18.048-1.002-25.814c6.611-5.669 10.805-14.075 10.805-23.466z" fill="#ffcd6e"/></g></g><g><circle cx="256" cy="383.227" fill="#fff2b4" r="77.264"/></g><g><path d="m256 383.227c0-28.593 15.544-53.54 38.632-66.901-11.367-6.578-24.554-10.362-38.632-10.362-42.672 0-77.264 34.592-77.264 77.264s34.592 77.264 77.264 77.264c14.078 0 27.265-3.784 38.632-10.362-23.088-13.362-38.632-38.309-38.632-66.903z" fill="#ffdf8e"/></g><g><circle cx="256" cy="187.493" fill="#fda0c1" r="25.755"/></g><g><circle cx="256" cy="101.473" fill="#9edcae" r="25.755"/></g><g><circle cx="379.629" cy="131.959" fill="#ffdf8e" r="25.755"/></g><g><circle cx="132.371" cy="131.959" fill="#b0d8fd" r="25.755"/></g></g></svg>