<svg id="Capa_1" enable-background="new 0 0 512 512" height="512" viewBox="0 0 512 512" width="512" xmlns="http://www.w3.org/2000/svg"><g><g><path d="m383.227 216.338c-48.284 0-87.565-39.282-87.565-87.565h-41.207c0 71.119 57.653 128.773 128.773 128.773v-41.208z" fill="#dceefe"/></g><g><path d="m254.455 128.773c0 35.56 14.413 67.753 37.717 91.056-8.046-8.046-8.046-21.092 0-29.138s21.092-8.046 29.138 0l.029-.029c-15.856-15.856-25.676-37.747-25.676-61.889z" fill="#c4e2fe"/></g><g><path d="m215.935 172.229-50.991-7.285-127.227 127.227 29.137 29.138z" fill="#b0d8fd"/></g><g><g><path d="m339.772 296.065-82.326 82.326c-2.545-68.877-59.174-123.936-128.673-123.936-71.12 0-128.773 57.653-128.773 128.772 0 71.12 57.653 128.773 128.773 128.773 35.56 0 67.753-14.413 91.056-37.717l127.227-127.227zm-210.999 174.728c-48.284 0-87.565-39.282-87.565-87.565s39.282-87.565 87.565-87.565c48.284 0 87.565 39.282 87.565 87.565s-39.282 87.565-87.565 87.565z" fill="#dceefe"/></g></g><g><path d="m511.995 127.652c-.594-69.915-57.732-127.052-127.647-127.647-36.004-.306-68.629 14.164-92.177 37.712l-127.227 127.227c28.178 28.178 73.863 28.178 102.04 0l76.207-76.207c10.72-10.72 24.939-16.624 40.035-16.624 15.098 0 29.316 5.904 40.036 16.624s16.624 24.939 16.624 40.036-5.903 29.315-16.624 40.036l-76.207 76.207c-28.178 28.178-28.178 73.863 0 102.04l127.227-127.227c23.549-23.548 38.02-56.173 37.713-92.177z" fill="#fda0c1"/></g><g><path d="m423.263 37.833c14.057-14.057 36.847-14.057 50.904 0-23.098-23.098-54.861-37.531-89.819-37.828-36.004-.306-68.629 14.164-92.177 37.712l-127.227 127.227c28.178 28.178 73.863 28.178 102.04 0l76.207-76.207c10.72-10.72 24.939-16.624 40.035-16.624 15.098 0 29.316 5.904 40.036 16.624-14.056-14.057-14.056-36.847.001-50.904z" fill="#fc90b4"/></g><g><path d="m0 383.227c0 35.559 14.413 67.752 37.716 91.055-8.045-8.046-8.045-21.091.001-29.137s21.092-8.046 29.138 0l.029-.029c-15.856-15.856-25.676-37.747-25.676-61.889 0-48.284 39.282-87.565 87.565-87.565 24.142 0 46.033 9.82 61.889 25.676l.029-.029c-8.046-8.046-8.046-21.092 0-29.138s21.092-8.046 29.138 0c-23.303-23.303-55.496-37.717-91.056-37.717-71.12.001-128.773 57.654-128.773 128.773z" fill="#c4e2fe"/></g></g></svg>