<svg id="Capa_1" enable-background="new 0 0 512 512" height="512" viewBox="0 0 512 512" width="512" xmlns="http://www.w3.org/2000/svg"><g><g><path d="m90.296 312.353h156.514v61.811h-156.514z" fill="#f7f0eb" transform="matrix(.707 -.707 .707 .707 -193.352 219.723)"/></g><g><path d="m156.17 355.642c-12.069-12.069-12.069-31.638 0-43.707l-64.806 64.806 43.707 43.707 64.806-64.806c-12.069 12.069-31.638 12.069-43.707 0z" fill="#efe2dd"/></g><g><path d="m349.365 308.136-145.69-145.69-7.285 7.285c-40.231 40.231-40.231 105.458 0 145.689 40.231 40.231 105.458 40.231 145.689 0z" fill="#ffdf8e"/></g><g><path d="m196.391 263.7c14.282-14.282 37.438-14.282 51.72 0l28.428-28.39-72.864-72.864-7.284 7.284c-40.231 40.231-40.231 105.458 0 145.689-14.282-14.281-14.282-37.437 0-51.719z" fill="#ffcd6e"/></g><g><path d="m357.281 154.444c37.714 16.163 69.452 43.68 90.799 78.721l18.66 30.629c60.347-60.347 60.347-158.188 0-218.534s-158.188-60.347-218.534 0c-.092.092-.18.187-.272.279l18.939 30.824c21.346 34.742 52.929 62.019 90.408 78.081z" fill="#9ccefd"/></g><g><path d="m357.473 154.527c40.444-40.444 97.727-53.778 149.279-40.012-6.774-25.37-20.109-49.352-40.012-69.255-60.347-60.347-158.188-60.347-218.534 0-.092.092-.18.187-.272.279l18.939 30.824c21.346 34.742 52.929 62.019 90.408 78.081.064.027.127.057.191.084z" fill="#72bafd"/></g><g><path d="m248.206 263.794c60.347 60.347 158.188 60.347 218.534 0l-18.66-30.629c-21.347-35.041-53.085-62.557-90.799-78.721-37.479-16.062-69.062-43.339-90.408-78.081l-18.939-30.824c-60.071 60.368-59.983 158.001.272 218.255z" fill="#9edcae"/></g><g><path d="m317.461 303.806c-13.766-51.552-.432-108.835 40.011-149.278-.064-.027-.127-.057-.191-.084-37.479-16.063-69.062-43.34-90.408-78.081l-18.939-30.824c-60.071 60.369-59.983 158.001.272 218.255 19.903 19.903 43.885 33.238 69.255 40.012z" fill="#7fd196"/></g><g><g><path d="m131.897 380.103c-30.173-30.173-79.094-30.173-109.267 0s-30.173 79.094 0 109.267 79.094 30.173 109.267 0 30.173-79.094 0-109.267zm-29.138 80.129c-6.811 6.81-15.865 10.561-25.496 10.561s-18.685-3.75-25.496-10.561c-14.058-14.058-14.058-36.933 0-50.991 6.81-6.81 15.865-10.56 25.496-10.56s18.686 3.751 25.496 10.56c14.059 14.058 14.059 36.933 0 50.991z" fill="#f7f0eb"/></g></g><g><path d="m22.63 489.37c-8.046-8.046-8.046-21.092 0-29.138 8.045-8.045 21.089-8.046 29.135-.002-14.056-14.058-14.055-36.931.002-50.989 6.81-6.81 15.865-10.56 25.496-10.56 9.629 0 18.683 3.75 25.493 10.557-8.043-8.047-8.043-21.09.003-29.135 8.046-8.046 21.092-8.046 29.138 0-30.173-30.173-79.094-30.173-109.267 0s-30.173 79.094 0 109.267z" fill="#efe2dd"/></g><g><path d="m429.831 164.724c-25.75-25.75-50.333-28.482-70.085-30.677-17.398-1.933-29.968-3.33-45.497-18.859-15.528-15.528-16.925-28.098-18.857-45.495-1.6-14.4-3.496-31.369-14.378-49.484-11.739 6.691-22.792 15.034-32.808 25.05-.092.092-.18.187-.272.279 4.305 8.95 5.302 17.896 6.503 28.705 2.194 19.752 4.925 44.334 30.674 70.083 25.75 25.75 50.332 28.481 70.084 30.676 17.398 1.933 29.968 3.33 45.497 18.859s16.925 28.099 18.859 45.497c1.6 14.401 3.497 31.37 14.38 49.486 11.739-6.691 22.793-15.035 32.809-25.051.092-.092.18-.186.271-.278-4.306-8.951-5.303-17.897-6.504-28.708-2.195-19.751-4.927-44.333-30.676-70.083z" fill="#dceefe"/></g><g><path d="m254.437 74.244c2.194 19.752 4.925 44.334 30.674 70.083 20.095 20.095 39.478 26.171 56.41 28.914 4.746-6.547 10.051-12.814 15.951-18.714 6.656-6.656 13.776-12.563 21.244-17.75-6.691-1.36-13.049-2.072-18.971-2.73-17.398-1.933-29.968-3.33-45.497-18.859-15.528-15.528-16.925-28.098-18.857-45.495-1.6-14.4-3.496-31.369-14.378-49.484-11.739 6.691-22.792 15.034-32.808 25.05-.092.092-.18.187-.272.279 4.306 8.95 5.303 17.896 6.504 28.706z" fill="#c4e2fe"/></g><g><g><g><ellipse cx="366.047" cy="50.173" fill="#fff" rx="19.901" ry="24.99" transform="matrix(.707 -.707 .707 .707 71.736 273.531)"/></g><g><ellipse cx="461.827" cy="145.953" fill="#fff" rx="19.901" ry="24.99" transform="matrix(.707 -.707 .707 .707 32.061 369.308)"/></g></g><g><path d="m389.892 54.425c-1.919 0-3.839-.732-5.304-2.197-2.929-2.929-2.929-7.678 0-10.606l7.224-7.224c2.93-2.929 7.678-2.929 10.607 0s2.929 7.678 0 10.606l-7.224 7.224c-1.465 1.465-3.384 2.197-5.303 2.197z" fill="#6e6e6e"/></g><g><path d="m465.075 129.608c-1.919 0-3.839-.732-5.303-2.196-2.93-2.929-2.93-7.678-.001-10.606l7.223-7.224c2.93-2.93 7.679-2.93 10.606-.001 2.93 2.929 2.93 7.678.001 10.606l-7.223 7.224c-1.464 1.465-3.384 2.197-5.303 2.197z" fill="#6e6e6e"/></g><g><path d="m436.329 101.757c-6.901 0-13.543-2.729-18.45-7.637-5.331-5.333-8.092-12.711-7.574-20.243.283-4.132 3.877-7.257 7.996-6.968 4.133.284 7.253 3.864 6.969 7.997-.221 3.206.952 6.344 3.217 8.609 2.265 2.264 5.405 3.438 8.61 3.216 4.097-.291 7.712 2.836 7.995 6.969.283 4.132-2.837 7.712-6.97 7.996-.599.04-1.197.061-1.793.061z" fill="#6e6e6e"/></g></g></g></svg>