<svg id="Capa_1" enable-background="new 0 0 512 512" height="512" viewBox="0 0 512 512" width="512" xmlns="http://www.w3.org/2000/svg"><g><g><path d="m256 48.419c-128.015 0-231.791 103.776-231.791 231.791 0 83.625 44.29 156.898 110.687 197.664l60.389-38.903c-63.83-24.494-109.265-86.417-109.265-158.762 0-93.727 76.253-169.98 169.98-169.98s169.98 76.253 169.98 169.98c0 72.345-45.435 134.268-109.264 158.761l60.389 38.903c66.396-40.767 110.686-114.039 110.686-197.664 0-128.014-103.776-231.79-231.791-231.79z" fill="#dceefe"/></g><g><g><path d="m134.896 477.874 60.389-38.903c-43.51-16.696-78.466-50.787-96.317-93.713h-.008c6.532 15.769-.957 33.848-16.726 40.38s-33.848-.957-40.38-16.726v.145c18.831 45.331 51.637 83.395 93.042 108.817z" fill="#c4e2fe"/></g><g><path d="m470.147 368.912c-6.532 15.769-24.611 23.258-40.38 16.726s-23.258-24.611-16.726-40.38h-.008c-17.851 42.925-52.807 77.016-96.317 93.712l60.389 38.903c41.404-25.422 74.21-63.486 93.042-108.817z" fill="#c4e2fe"/></g></g><g><circle cx="256" cy="77.264" fill="#fda0c1" r="77.264"/></g><g><circle cx="434.736" cy="193.331" fill="#b0d8fd" r="77.264"/></g><g><path d="m434.736 193.331c0-28.593 15.544-53.54 38.632-66.901-11.367-6.578-24.554-10.362-38.632-10.362-42.672 0-77.264 34.592-77.264 77.264s34.592 77.264 77.264 77.264c14.078 0 27.265-3.784 38.632-10.362-23.087-13.363-38.632-38.31-38.632-66.903z" fill="#9ccefd"/></g><g><circle cx="77.264" cy="193.331" fill="#9edcae" r="77.264"/></g><g><path d="m77.264 193.331c0-28.593 15.544-53.54 38.632-66.901-11.367-6.578-24.554-10.362-38.632-10.362-42.672-.001-77.264 34.591-77.264 77.263s34.592 77.264 77.264 77.264c14.078 0 27.265-3.784 38.632-10.362-23.088-13.362-38.632-38.309-38.632-66.902z" fill="#7fd196"/></g><g><path d="m256 77.264c0-28.593 15.544-53.54 38.632-66.901-11.367-6.579-24.554-10.363-38.632-10.363-42.672 0-77.264 34.592-77.264 77.264s34.592 77.264 77.264 77.264c14.078 0 27.265-3.784 38.632-10.362-23.088-13.362-38.632-38.309-38.632-66.902z" fill="#fc90b4"/></g><g><path d="m377.111 477.869-22.572-33.479c-12.47-18.495-35.453-26.955-56.87-20.722-13.23 3.851-27.212 5.917-41.669 5.917-14.456 0-28.439-2.066-41.669-5.917-21.417-6.234-44.4 2.227-56.87 20.722l-22.572 33.479c35.246 21.643 76.718 34.131 121.111 34.131s85.865-12.488 121.111-34.131z" fill="#ffdf8e"/></g><g><path d="m214.793 470.793c0-22.758 18.449-41.207 41.207-41.207-14.456 0-28.439-2.066-41.669-5.917-21.417-6.234-44.4 2.227-56.87 20.722l-22.572 33.479c35.246 21.642 76.718 34.13 121.111 34.13-22.758 0-41.207-18.449-41.207-41.207z" fill="#ffcd6e"/></g></g></svg>