<svg id="Capa_1" enable-background="new 0 0 512 512" height="512" viewBox="0 0 512 512" width="512" xmlns="http://www.w3.org/2000/svg"><g><g><path d="m110.358 512c-15.433 0-27.944-12.511-27.944-27.944v-75.074h55.887v75.074c.001 15.433-12.51 27.944-27.943 27.944z" fill="#fda0c1"/></g><g><path d="m401.642 512c-15.433 0-27.944-12.511-27.944-27.944v-75.074h55.887v75.074c.001 15.433-12.51 27.944-27.943 27.944z" fill="#fda0c1"/></g><g><path d="m41.207 408.982c0-71.119 96.166-128.773 214.793-128.773s214.793 57.653 214.793 128.773z" fill="#dceefe"/></g><g><path d="m256 367.775c-24.181 0-43.783-19.602-43.783-43.783s19.602-43.783 43.783-43.783c-118.627 0-214.793 57.653-214.793 128.773h214.793z" fill="#c4e2fe"/></g><g><path d="m450.189 419.284c-11.379 0-20.604-9.225-20.604-20.604v-347.171c0-11.379 9.225-20.604 20.604-20.604 11.379 0 20.604 9.225 20.604 20.604v347.171c0 11.379-9.225 20.604-20.604 20.604z" fill="#fda0c1"/></g><g><path d="m450.189 245.698c-11.379 0-20.604-9.225-20.604-20.604v173.586c0 11.379 9.225 20.604 20.604 20.604 11.379 0 20.604-9.225 20.604-20.604v-173.585c0 11.379-9.225 20.603-20.604 20.603z" fill="#fc90b4"/></g><g><path d="m61.811 419.284c-11.379 0-20.604-9.225-20.604-20.604v-347.171c0-11.379 9.225-20.604 20.604-20.604 11.379 0 20.604 9.225 20.604 20.604v347.171c-.001 11.379-9.225 20.604-20.604 20.604z" fill="#fda0c1"/></g><g><path d="m61.811 245.698c-11.379 0-20.604-9.225-20.604-20.604v173.586c0 11.379 9.225 20.604 20.604 20.604 11.379 0 20.604-9.225 20.604-20.604v-173.585c-.001 11.379-9.225 20.603-20.604 20.603z" fill="#fc90b4"/></g><g><path d="m158.905 419.284c-11.379 0-20.604-9.225-20.604-20.604v-347.171c0-11.379 9.225-20.604 20.604-20.604 11.379 0 20.604 9.225 20.604 20.604v347.171c0 11.379-9.225 20.604-20.604 20.604z" fill="#fda0c1"/></g><g><path d="m158.905 245.698c-11.379 0-20.604-9.225-20.604-20.604v173.586c0 11.379 9.225 20.604 20.604 20.604 11.379 0 20.604-9.225 20.604-20.604v-173.585c0 11.379-9.224 20.603-20.604 20.603z" fill="#fc90b4"/></g><g><path d="m256 419.284c-11.379 0-20.604-9.225-20.604-20.604v-347.171c0-11.379 9.225-20.604 20.604-20.604 11.379 0 20.604 9.225 20.604 20.604v347.171c0 11.379-9.225 20.604-20.604 20.604z" fill="#fda0c1"/></g><g><path d="m256 245.698c-11.379 0-20.604-9.225-20.604-20.604v173.586c0 11.379 9.225 20.604 20.604 20.604 11.379 0 20.604-9.225 20.604-20.604v-173.585c0 11.379-9.225 20.603-20.604 20.603z" fill="#fc90b4"/></g><g><path d="m353.095 419.284c-11.379 0-20.604-9.225-20.604-20.604v-347.171c0-11.379 9.225-20.604 20.604-20.604 11.379 0 20.604 9.225 20.604 20.604v347.171c-.001 11.379-9.225 20.604-20.604 20.604z" fill="#fda0c1"/></g><g><path d="m353.095 245.698c-11.379 0-20.604-9.225-20.604-20.604v173.586c0 11.379 9.225 20.604 20.604 20.604 11.379 0 20.604-9.225 20.604-20.604v-173.585c-.001 11.379-9.225 20.603-20.604 20.603z" fill="#fc90b4"/></g><g><path d="m470.793 82.414h-429.586c-22.758 0-41.207-18.449-41.207-41.207 0-22.758 18.449-41.207 41.207-41.207h429.586c22.758 0 41.207 18.449 41.207 41.207 0 22.758-18.449 41.207-41.207 41.207z" fill="#fdb3cd"/></g><g><g><path d="m204.491 50.71c-4.142 0-7.5-3.358-7.5-7.5v-9.897c0-4.142 3.358-7.5 7.5-7.5s7.5 3.358 7.5 7.5v9.897c0 4.142-3.358 7.5-7.5 7.5z" fill="#6e6e6e"/></g><g><path d="m307.509 50.71c-4.143 0-7.5-3.358-7.5-7.5v-9.897c0-4.142 3.357-7.5 7.5-7.5s7.5 3.358 7.5 7.5v9.897c0 4.142-3.358 7.5-7.5 7.5z" fill="#6e6e6e"/></g><g><path d="m256 56.602c-7.373 0-14.384-3.193-19.234-8.759-2.721-3.123-2.396-7.86.727-10.582 3.123-2.721 7.861-2.396 10.582.727 2.001 2.296 4.89 3.614 7.926 3.614 3.035 0 5.925-1.317 7.926-3.614 2.72-3.124 7.459-3.448 10.581-.727 3.123 2.721 3.449 7.458.728 10.582-4.852 5.566-11.863 8.759-19.236 8.759z" fill="#6e6e6e"/></g></g><g><path d="m97.095 41.207c0-22.758 18.449-41.207 41.207-41.207h-97.095c-22.758 0-41.207 18.449-41.207 41.207 0 22.758 18.449 41.207 41.207 41.207h97.095c-22.758 0-41.207-18.449-41.207-41.207z" fill="#fda0c1"/></g><g><path d="m470.793 450.189h-429.586c-22.758 0-41.207-18.449-41.207-41.207 0-22.758 18.449-41.207 41.207-41.207h429.586c22.758 0 41.207 18.449 41.207 41.207 0 22.758-18.449 41.207-41.207 41.207z" fill="#fdb3cd"/></g><g><path d="m97.095 408.982c0-22.758 18.449-41.207 41.207-41.207h-97.095c-22.758 0-41.207 18.449-41.207 41.207 0 22.758 18.449 41.207 41.207 41.207h97.095c-22.758 0-41.207-18.449-41.207-41.207z" fill="#fda0c1"/></g></g></svg>