<svg id="Capa_1" enable-background="new 0 0 512 512" height="512" viewBox="0 0 512 512" width="512" xmlns="http://www.w3.org/2000/svg"><g><g><path d="m469.333 0c-23.564 0-42.667 19.102-42.667 42.667.001-23.565-19.102-42.667-42.666-42.667-23.564 0-42.667 19.102-42.667 42.667 0-23.565-19.102-42.667-42.666-42.667-23.565 0-42.667 19.102-42.667 42.667 0-23.565-19.102-42.667-42.667-42.667-23.564 0-42.667 19.102-42.667 42.667.001-23.565-19.102-42.667-42.666-42.667-23.564 0-42.667 19.102-42.667 42.667 0-23.565-19.102-42.667-42.666-42.667-23.565 0-42.667 19.102-42.667 42.667v27.901l256 82.414 256-82.414v-27.901c0-23.565-19.102-42.667-42.667-42.667z" fill="#c4e2fe"/></g><g><g><path d="m128 42.667c0-15.79 8.584-29.566 21.333-36.944-6.277-3.633-13.559-5.723-21.333-5.723-23.564 0-42.667 19.102-42.667 42.667 0-23.565-19.102-42.667-42.666-42.667-23.565 0-42.667 19.102-42.667 42.667v27.901l128 41.207z" fill="#b0d8fd"/></g></g><g><path d="m331.718 500.612 180.282-244.612v-185.432h-512v185.432l180.282 244.612c23.93 7.399 49.357 11.388 75.718 11.388 26.361 0 51.788-3.989 75.718-11.388z" fill="#dceefe"/></g><g><g><g><ellipse cx="173.951" cy="161.5" fill="#fda0c1" rx="30.274" ry="24.109"/></g><g><ellipse cx="338.049" cy="161.5" fill="#fda0c1" rx="30.274" ry="24.109"/></g><g><path d="m280.409 142.977c0-15.085-10.928-16.502-24.409-16.502s-24.409 1.417-24.409 16.502 10.928 27.313 24.409 27.313 24.409-12.229 24.409-27.313z" fill="#6e6e6e"/></g></g><g><path d="m179.013 140.217c-4.143 0-7.5-3.358-7.5-7.5v-12.362c0-4.142 3.357-7.5 7.5-7.5s7.5 3.358 7.5 7.5v12.362c0 4.142-3.358 7.5-7.5 7.5z" fill="#6e6e6e"/></g><g><path d="m332.987 140.217c-4.143 0-7.5-3.358-7.5-7.5v-12.362c0-4.142 3.357-7.5 7.5-7.5s7.5 3.358 7.5 7.5v12.362c0 4.142-3.357 7.5-7.5 7.5z" fill="#6e6e6e"/></g></g><g><path d="m371.103 447.173c-12.839 1.983-25.991 3.016-39.385 3.016h-.001c-141.385 0-256-114.615-256-256v-123.621h-75.717v185.432l180.282 244.612c23.93 7.399 49.357 11.388 75.718 11.388 26.36 0 51.788-3.989 75.718-11.388z" fill="#c4e2fe"/></g><g><path d="m512 256c-99.567 0-180.282 80.715-180.282 180.282v64.33c104.419-32.286 180.282-129.587 180.282-244.612z" fill="#c4e2fe"/></g><g><path d="m180.282 500.612v-64.33c0-99.567-80.715-180.282-180.282-180.282 0 115.025 75.863 212.326 180.282 244.612z" fill="#b0d8fd"/></g><g><path d="m77.264 111.775h-77.264v82.414h77.264c22.758 0 41.207-18.449 41.207-41.207 0-22.758-18.449-41.207-41.207-41.207z" fill="#b0d8fd"/></g><g><path d="m0 111.775h75.718v82.414h-75.718z" fill="#9ccefd"/></g><g><path d="m434.736 194.189h77.264v-82.414h-77.264c-22.758 0-41.207 18.449-41.207 41.207 0 22.758 18.449 41.207 41.207 41.207z" fill="#b0d8fd"/></g><g><path d="m452.765 152.982c0-22.758 18.449-41.207 41.207-41.207h-59.235c-22.758 0-41.207 18.449-41.207 41.207 0 22.758 18.449 41.207 41.207 41.207h59.235c-22.758 0-41.207-18.449-41.207-41.207z" fill="#9ccefd"/></g></g></svg>