<svg id="Capa_1" enable-background="new 0 0 512 512" height="512" viewBox="0 0 512 512" width="512" xmlns="http://www.w3.org/2000/svg"><g><g><g><path d="m362.108 109.312h-49.448c-4.143 0-7.5-3.358-7.5-7.5s3.357-7.5 7.5-7.5h49.448c4.143 0 7.5 3.358 7.5 7.5s-3.357 7.5-7.5 7.5z" fill="#f7f0eb"/></g><g><path d="m199.34 109.312h-49.448c-4.143 0-7.5-3.358-7.5-7.5s3.357-7.5 7.5-7.5h49.448c4.143 0 7.5 3.358 7.5 7.5s-3.358 7.5-7.5 7.5z" fill="#f7f0eb"/></g><g><path d="m240.547 129.916h-20.604c-15.496 0-28.104-12.607-28.104-28.104s12.607-28.104 28.104-28.104 28.104 12.607 28.104 28.104v20.604c0 4.142-3.358 7.5-7.5 7.5zm-20.604-41.208c-7.226 0-13.104 5.878-13.104 13.104 0 7.225 5.878 13.104 13.104 13.104h13.104v-13.104c0-7.226-5.878-13.104-13.104-13.104z" fill="#f7f0eb"/></g><g><path d="m292.057 129.916h-20.604c-4.143 0-7.5-3.358-7.5-7.5v-20.604c0-15.497 12.607-28.104 28.104-28.104s28.104 12.607 28.104 28.104-12.608 28.104-28.104 28.104zm-13.104-15h13.104c7.226 0 13.104-5.878 13.104-13.104s-5.878-13.104-13.104-13.104-13.104 5.878-13.104 13.104z" fill="#f7f0eb"/></g><g><path d="m312.66 171.123c-4.143 0-7.5-3.358-7.5-7.5 0-18.586-15.121-33.707-33.707-33.707h-30.906c-18.586 0-33.707 15.121-33.707 33.707 0 4.142-3.357 7.5-7.5 7.5s-7.5-3.358-7.5-7.5c0-26.857 21.85-48.707 48.707-48.707h30.906c26.857 0 48.707 21.85 48.707 48.707 0 4.142-3.357 7.5-7.5 7.5z" fill="#f7f0eb"/></g><g><path d="m250.849 140.732c-4.143 0-7.5-3.358-7.5-7.5v-22.921c0-4.142 3.357-7.5 7.5-7.5s7.5 3.358 7.5 7.5v22.921c0 4.143-3.358 7.5-7.5 7.5z" fill="#f7f0eb"/></g><g><path d="m261.151 140.732c-4.143 0-7.5-3.358-7.5-7.5v-22.921c0-4.142 3.357-7.5 7.5-7.5s7.5 3.358 7.5 7.5v22.921c0 4.143-3.357 7.5-7.5 7.5z" fill="#f7f0eb"/></g></g><g><path d="m297.207 22.341c0 7.759 4.08 14.889 10.659 19.002 30.593 19.122 51.151 58.544 51.151 96.526 0 56.895-46.123 103.018-103.018 103.018s-103.018-46.123-103.018-103.018c0-37.982 20.558-77.404 51.151-96.526 6.579-4.112 10.659-11.242 10.659-19.001 0-16.169-16.727-27.047-31.427-20.314-106.005 48.559-183.364 200.375-183.364 316.529 0 141.384 114.615 193.443 256 193.443s256-52.059 256-193.443c0-116.154-77.359-267.969-183.366-316.53-14.7-6.734-31.427 4.145-31.427 20.314z" fill="#fda0c1"/></g><g><path d="m265.648 305.177 16.598 33.631c1.567 3.175 4.597 5.376 8.101 5.886l37.115 5.393c8.825 1.282 12.349 12.127 5.963 18.352l-26.856 26.178c-2.536 2.472-3.693 6.033-3.094 9.523l6.34 36.965c1.507 8.789-7.718 15.492-15.611 11.342l-33.196-17.452c-3.134-1.648-6.879-1.648-10.013 0l-33.196 17.452c-7.893 4.15-17.118-2.553-15.611-11.342l6.34-36.965c.599-3.49-.559-7.051-3.094-9.523l-26.856-26.178c-6.386-6.225-2.862-17.069 5.963-18.352l37.114-5.393c3.504-.509 6.534-2.71 8.101-5.886l16.598-33.631c3.945-7.997 15.347-7.997 19.294 0z" fill="#fff2b4"/></g><g><path d="m303.474 404.14c-.174-1.016-.183-2.036-.069-3.035-36.569-.25-67.34-24.824-76.975-58.354-1.391 1.011-3.025 1.689-4.777 1.943l-37.114 5.393c-8.825 1.282-12.348 12.127-5.963 18.352l26.856 26.179c2.536 2.472 3.693 6.033 3.094 9.523l-6.34 36.965c-1.507 8.789 7.718 15.492 15.611 11.342l33.196-17.452c3.134-1.648 6.879-1.648 10.013 0l33.196 17.452c7.893 4.15 17.118-2.553 15.611-11.342z" fill="#ffdf8e"/></g><g><path d="m120.443 376.443c0-74.866 60.691-135.557 135.557-135.557-56.895 0-103.018-46.123-103.018-103.018 0-37.982 20.558-77.404 51.151-96.526 6.579-4.112 10.659-11.242 10.659-19.001 0-16.169-16.727-27.047-31.427-20.314-106.006 48.56-183.365 200.376-183.365 316.53 0 141.384 114.615 193.443 256 193.443-74.866 0-135.557-60.691-135.557-135.557z" fill="#fc90b4"/></g></g></svg>