<svg id="Capa_1" enable-background="new 0 0 512 512" height="512" viewBox="0 0 512 512" width="512" xmlns="http://www.w3.org/2000/svg"><g><g><path d="m382.669 192.892c-10.401-56.973-58.29-100.855-117.171-105.149.001-.117.009-.232.009-.35 0-28.448-23.061-51.509-51.509-51.509-27.553 0-50.052 21.633-51.441 48.84-9.608-3.37-19.936-5.209-30.694-5.209-51.206 0-92.716 41.51-92.716 92.716s41.51 92.716 92.716 92.716c1.638 0 3.266-.044 4.883-.128 19.195 46.997 65.352 80.118 119.253 80.118 16.401 0 32.082-3.072 46.508-8.662 16.557 25.297 45.138 42.012 77.629 42.012 51.206 0 92.716-41.51 92.716-92.716.001-50.357-40.148-91.337-90.183-92.679z" fill="#dceefe"/></g><g><path d="m39.147 172.233c0 51.206 41.51 92.716 92.716 92.716 1.638 0 3.266-.044 4.883-.128 19.195 46.997 65.352 80.118 119.253 80.118 16.401 0 32.082-3.072 46.508-8.662 16.557 25.297 45.138 42.012 77.629 42.012 51.206 0 92.716-41.51 92.716-92.716 0-50.359-40.149-91.339-90.184-92.681-.002-.012-.005-.024-.007-.036-.31 0-40.766 0-117.433 0-76.963 0-102.671-71.123-102.671-108.131-9.608-3.37-19.936-5.209-30.694-5.209-51.206 0-92.716 41.511-92.716 92.717z" fill="#c4e2fe"/></g><g><path d="m354.8 512h-197.6c-50.524 0-93.591-36.64-101.687-86.51l-37.465-230.784 456.256 121.028-17.817 109.756c-8.096 49.87-51.164 86.51-101.687 86.51z" fill="#fc90b4"/></g><g><path d="m127.626 425.49-34.22-210.794-75.358-19.99 37.465 230.784c8.096 49.87 51.164 86.51 101.687 86.51h72.113c-50.524 0-93.591-36.64-101.687-86.51z" fill="#fc80aa"/></g><g><circle cx="421.344" cy="51.509" fill="#dceefe" r="51.509"/></g><g><path d="m421.344 51.509c0-19.062 10.363-35.694 25.755-44.601-7.578-4.385-16.37-6.908-25.755-6.908-28.448 0-51.509 23.061-51.509 51.509s23.061 51.509 51.509 51.509c9.385 0 18.176-2.523 25.755-6.908-15.392-8.907-25.755-25.539-25.755-44.601z" fill="#c4e2fe"/></g><g><g><g><path d="m491.98 337.313c-122.88 0-185.068-32.306-245.209-63.548-58.446-30.362-113.651-59.04-226.752-59.04-11.057 0-20.02-8.963-20.02-20.02s8.963-20.02 20.02-20.02c122.88 0 185.068 32.306 245.209 63.548 58.446 30.362 113.651 59.04 226.752 59.04 11.057 0 20.02 8.963 20.02 20.02s-8.963 20.02-20.02 20.02z" fill="#fdb3cd"/></g></g><g><path d="m236 256c0-11.046 8.954-20 20-20 3.326 0 6.456.824 9.215 2.261l.014-.026c-60.141-31.242-122.329-63.548-245.209-63.548-11.057 0-20.02 8.963-20.02 20.019s8.963 20.02 20.02 20.02c113.101 0 168.305 28.678 226.752 59.04l.014-.026c-6.405-3.335-10.786-10.021-10.786-17.74z" fill="#fda0c1"/></g></g><g><g><g><ellipse cx="173.951" cy="409.132" fill="#fff" rx="30.274" ry="24.109"/></g><g><ellipse cx="338.049" cy="409.132" fill="#fff" rx="30.274" ry="24.109"/></g><g><path d="m280.409 390.609c0-15.085-10.928-16.502-24.409-16.502s-24.409 1.417-24.409 16.502 10.928 27.313 24.409 27.313 24.409-12.229 24.409-27.313z" fill="#6e6e6e"/></g></g><g><path d="m179.013 387.849c-4.142 0-7.5-3.358-7.5-7.5v-12.362c0-4.142 3.358-7.5 7.5-7.5s7.5 3.358 7.5 7.5v12.362c0 4.142-3.358 7.5-7.5 7.5z" fill="#6e6e6e"/></g><g><path d="m332.988 387.849c-4.142 0-7.5-3.358-7.5-7.5v-12.362c0-4.142 3.358-7.5 7.5-7.5s7.5 3.358 7.5 7.5v12.362c0 4.142-3.358 7.5-7.5 7.5z" fill="#6e6e6e"/></g></g></g></svg>