<svg id="Capa_1" enable-background="new 0 0 512 512" height="512" viewBox="0 0 512 512" width="512" xmlns="http://www.w3.org/2000/svg"><g><g><path d="m130.751 10.366-29.455 11.451c-11.366 4.419-20.795 12.726-26.61 23.445l-72.189 133.054c-5.23 9.639-1.993 21.686 7.365 27.406l59.326 36.261-5.289 77.787c-1.382 20.33 9.35 39.565 27.378 49.064l39.223 20.668c33.047 17.413 58.081 46.929 69.869 82.374 7.968 23.958 30.382 40.124 55.631 40.124 25.249 0 47.663-16.166 55.631-40.125 11.788-35.445 36.823-64.96 69.869-82.374l39.223-20.668c18.028-9.499 28.76-28.734 27.378-49.064l-5.289-77.787 59.326-36.261c9.357-5.719 12.595-17.766 7.365-27.406l-72.189-133.053c-5.815-10.718-15.245-19.026-26.61-23.445l-29.36-11.414-125.344 77.199z" fill="#9edcae"/></g><g><path d="m185.65 97.418c0-21.555 2.678-42.482 7.694-62.482-4.879-6.291-8.835-13.335-11.659-20.931-4.192-11.278-16.86-16.887-28.074-12.528l-52.316 20.339c-11.366 4.419-20.795 12.726-26.61 23.445l-72.188 133.055c-5.23 9.639-1.993 21.686 7.365 27.406l59.326 36.261-5.289 77.787c-1.382 20.33 9.35 39.565 27.378 49.064l39.223 20.668c33.047 17.413 58.081 46.929 69.869 82.374 7.968 23.958 30.382 40.124 55.631 40.124 25.249 0 47.663-16.166 55.631-40.125 11.788-35.445 36.823-64.96 69.869-82.374l39.223-20.668c7.185-3.786 13.207-9.122 17.769-15.454-139.927-1.695-252.842-115.632-252.842-255.961z" fill="#7fd196"/></g><g><path d="m268.319 165.072 21.192 42.94c2.001 4.054 5.869 6.865 10.343 7.515l47.387 6.886c11.267 1.637 15.766 15.484 7.613 23.431l-34.29 33.424c-3.238 3.156-4.715 7.703-3.951 12.159l8.095 47.196c1.925 11.222-9.854 19.78-19.932 14.481l-42.385-22.283c-4.002-2.104-8.783-2.104-12.785 0l-42.385 22.283c-10.078 5.298-21.857-3.259-19.932-14.481l8.095-47.196c.764-4.456-.713-9.003-3.951-12.159l-34.29-33.424c-8.153-7.947-3.654-21.794 7.613-23.431l47.387-6.886c4.474-.65 8.342-3.46 10.343-7.515l21.192-42.94c5.042-10.21 19.602-10.21 24.641 0z" fill="#f7f0eb"/></g><g><path d="m214.231 215.035c-.679.21-1.37.388-2.085.492l-47.387 6.886c-11.267 1.637-15.766 15.484-7.613 23.431l34.29 33.424c3.238 3.156 4.715 7.703 3.951 12.159l-8.095 47.196c-1.925 11.222 9.854 19.78 19.932 14.481l42.385-22.283c4.002-2.104 8.783-2.104 12.785 0l42.385 22.283c10.078 5.298 21.857-3.259 19.932-14.481l-2.533-14.767c-46.141-24.39-83.92-62.464-107.947-108.821z" fill="#efe2dd"/></g><g><path d="m256 109.543c60.921 0 111.955-42.306 125.341-99.141l-22.953-8.923c-11.214-4.36-23.882 1.25-28.074 12.528-11.212 30.163-40.245 51.655-74.314 51.655s-63.102-21.492-74.314-51.656c-4.192-11.278-16.86-16.887-28.074-12.528l-22.953 8.923c13.386 56.835 64.42 99.142 125.341 99.142z" fill="#dceefe"/></g><g><path d="m76.025 141.429-6.837 100.554-36.052-22.036 32.981-80.814c2.21-5.416 10.305-3.541 9.908 2.296z" fill="#6bc17f"/></g><g><path d="m435.975 141.429 6.837 100.554 36.052-22.036-32.982-80.814c-2.209-5.416-10.304-3.541-9.907 2.296z" fill="#7fd196"/></g><g><path d="m234.06 87.602c0-12.117 9.823-21.94 21.94-21.94-34.069 0-63.102-21.492-74.314-51.656-4.192-11.278-16.86-16.887-28.074-12.528l-22.953 8.923c13.385 56.834 64.42 99.141 125.341 99.141-12.117.001-21.94-9.822-21.94-21.94z" fill="#c4e2fe"/></g></g></svg>