<svg id="Capa_1" enable-background="new 0 0 512 512" height="512" viewBox="0 0 512 512" width="512" xmlns="http://www.w3.org/2000/svg"><g><g><path d="m360.12 92.552h-208.24c-25.557 0-46.276-20.718-46.276-46.276 0-25.558 20.718-46.276 46.276-46.276h208.24c25.557 0 46.276 20.718 46.276 46.276 0 25.557-20.718 46.276-46.276 46.276z" fill="#dceefe"/></g><g><path d="m188.775 46.276c0-25.558 20.718-46.276 46.276-46.276h-83.171c-25.557 0-46.276 20.718-46.276 46.276 0 25.557 20.718 46.276 46.276 46.276h83.171c-25.558 0-46.276-20.719-46.276-46.276z" fill="#c4e2fe"/></g><g><path d="m430.358 130.24c0-9.571-3.137-17.727-7.529-24.456-9.768-14.965-26.758-23.629-44.629-23.629h-244.4c-17.871 0-34.86 8.663-44.629 23.629-4.392 6.729-7.529 14.885-7.529 24.456 0 31.904 15.952 63.677 15.952 166.838s-15.952 134.934-15.952 166.838c0 9.571 3.137 17.727 7.529 24.456 9.768 14.965 26.758 23.628 44.629 23.628h244.4c17.871 0 34.861-8.663 44.629-23.629 4.392-6.729 7.529-14.885 7.529-24.456 0-31.904-15.952-63.677-15.952-166.838s15.952-134.933 15.952-166.837z" fill="#b0d8fd"/></g><g><path d="m172.342 488.371c-4.392-6.729-7.529-14.885-7.529-24.456 0-31.904 15.952-63.677 15.952-166.838s-15.952-134.934-15.952-166.838c0-9.571 3.137-17.727 7.529-24.456 9.768-14.965 26.758-23.629 44.629-23.629h-83.171c-17.871 0-34.86 8.663-44.629 23.629-4.392 6.729-7.529 14.885-7.529 24.456 0 31.904 15.952 63.677 15.952 166.838s-15.952 134.935-15.952 166.839c0 9.571 3.137 17.727 7.529 24.456 9.768 14.965 26.758 23.628 44.629 23.628h83.171c-17.871 0-34.86-8.663-44.629-23.629z" fill="#9ccefd"/></g><g><path d="m97.594 297.078c0 25.12-.947 45.997-2.378 63.684h321.57c-1.431-17.687-2.378-38.564-2.378-63.684 0-40.173 2.419-69.517 5.373-92.262h-327.561c2.954 22.744 5.374 52.089 5.374 92.262z" fill="#efe2dd"/></g><g><path d="m256 428.338c-50.241 0-90.969-40.728-90.969-90.968v-109.163c0-50.24 40.728-90.968 90.968-90.968 50.24 0 90.968 40.728 90.968 90.968v109.163c.001 50.24-40.726 90.968-90.967 90.968z" fill="#f7f0eb"/></g><g><g><path d="m204.018 222.304c-4.142 0-7.5-3.358-7.5-7.5v-9.989c0-4.142 3.358-7.5 7.5-7.5s7.5 3.358 7.5 7.5v9.989c0 4.142-3.358 7.5-7.5 7.5z" fill="#6e6e6e"/></g><g><path d="m307.982 222.304c-4.143 0-7.5-3.358-7.5-7.5v-9.989c0-4.142 3.357-7.5 7.5-7.5s7.5 3.358 7.5 7.5v9.989c0 4.142-3.357 7.5-7.5 7.5z" fill="#6e6e6e"/></g><g><path d="m256 228.25c-7.42 0-14.477-3.213-19.359-8.816-2.721-3.123-2.396-7.86.727-10.582 3.123-2.721 7.86-2.396 10.582.727 2.033 2.333 4.967 3.671 8.05 3.671s6.018-1.338 8.052-3.672c2.721-3.123 7.46-3.447 10.581-.726 3.123 2.722 3.447 7.459.726 10.582-4.883 5.603-11.94 8.816-19.359 8.816z" fill="#6e6e6e"/></g></g></g></svg>