<svg id="Capa_1" enable-background="new 0 0 512 512" height="512" viewBox="0 0 512 512" width="512" xmlns="http://www.w3.org/2000/svg"><g><g><path d="m381.344 10.403 29.36 11.414c11.366 4.419 20.795 12.726 26.61 23.445l72.189 133.054c5.23 9.639 1.993 21.686-7.365 27.406l-59.326 36.261 5.289 77.787c1.382 20.33-9.35 39.565-27.378 49.064l-39.223 20.667c-33.047 17.413-58.081 46.929-69.869 82.374-7.968 23.959-30.381 40.125-55.631 40.125-25.249 0-47.663-16.166-55.631-40.125-11.788-35.445-36.823-64.96-69.869-82.374l-39.223-20.668c-18.028-9.499-28.76-28.734-27.378-49.064l5.289-77.787-59.326-36.261c-9.357-5.719-12.595-17.766-7.365-27.406l72.189-133.053c5.815-10.718 15.245-19.026 26.61-23.445l29.455-11.451 125.249 77.236z" fill="#fdb3cd"/></g><g><path d="m185.65 97.418c0-21.555 2.678-42.482 7.694-62.482-4.879-6.291-8.835-13.335-11.659-20.931-4.192-11.278-16.86-16.887-28.074-12.528l-52.316 20.339c-11.366 4.419-20.795 12.726-26.61 23.445l-72.188 133.055c-5.23 9.639-1.993 21.686 7.365 27.406l59.326 36.261-5.289 77.787c-1.382 20.33 9.35 39.565 27.378 49.064l39.223 20.668c33.047 17.413 58.081 46.929 69.869 82.374 7.968 23.958 30.382 40.124 55.631 40.124 25.249 0 47.663-16.166 55.631-40.125 11.788-35.445 36.823-64.96 69.869-82.374l39.223-20.668c7.185-3.786 13.207-9.122 17.769-15.454-139.927-1.695-252.842-115.632-252.842-255.961z" fill="#fda0c1"/></g><g><path d="m256 109.543c60.921 0 111.955-42.306 125.341-99.141l-22.953-8.923c-11.214-4.36-23.882 1.25-28.074 12.528-11.212 30.163-40.245 51.655-74.314 51.655s-63.102-21.492-74.314-51.656c-4.192-11.278-16.86-16.887-28.074-12.528l-22.953 8.923c13.386 56.835 64.42 99.142 125.341 99.142z" fill="#f7f0eb"/></g><g><path d="m76.025 141.429-6.837 100.554-36.052-22.036 32.981-80.814c2.21-5.416 10.305-3.541 9.908 2.296z" fill="#fc90b4"/></g><g><path d="m435.975 141.429 6.837 100.554 36.052-22.036-32.981-80.814c-2.21-5.416-10.305-3.541-9.908 2.296z" fill="#fda0c1"/></g><g><path d="m234.06 87.602c0-12.117 9.823-21.94 21.94-21.94-34.069 0-63.102-21.492-74.314-51.656-4.192-11.278-16.86-16.887-28.074-12.528l-22.953 8.923c13.385 56.834 64.42 99.141 125.341 99.141-12.117.001-21.94-9.823-21.94-21.94z" fill="#efe2dd"/></g><g><path d="m256 277.04c-96.254 0-186.812-35.057-186.812-35.057l-34.649 86.332c-3.983 9.925.274 21.265 9.83 26.065 29.573 14.855 99.183 42.13 211.631 42.13s182.057-27.275 211.631-42.13c9.556-4.8 13.813-16.14 9.83-26.065l-34.649-86.332c0-.001-90.558 35.057-186.812 35.057z" fill="#f7f0eb"/></g><g><path d="m196.265 336.775c0-32.991 26.744-59.735 59.735-59.735-96.254 0-186.812-35.057-186.812-35.057l-34.648 86.331c-3.983 9.925.274 21.265 9.83 26.065 29.573 14.855 99.183 42.13 211.631 42.13-32.992.001-59.736-26.744-59.736-59.734z" fill="#efe2dd"/></g><g><g><g><ellipse cx="173.951" cy="220.68" fill="#fff" rx="30.274" ry="24.109"/></g><g><ellipse cx="338.049" cy="220.68" fill="#fff" rx="30.274" ry="24.109"/></g><g><path d="m280.409 202.156c0-15.085-10.928-16.502-24.409-16.502s-24.409 1.417-24.409 16.502 10.928 27.313 24.409 27.313 24.409-12.229 24.409-27.313z" fill="#6e6e6e"/></g></g><g><path d="m179.013 199.396c-4.143 0-7.5-3.358-7.5-7.5v-12.362c0-4.142 3.357-7.5 7.5-7.5s7.5 3.358 7.5 7.5v12.362c0 4.143-3.358 7.5-7.5 7.5z" fill="#6e6e6e"/></g><g><path d="m332.987 199.396c-4.143 0-7.5-3.358-7.5-7.5v-12.362c0-4.142 3.357-7.5 7.5-7.5s7.5 3.358 7.5 7.5v12.362c0 4.143-3.357 7.5-7.5 7.5z" fill="#6e6e6e"/></g></g></g></svg>