<svg id="Capa_1" enable-background="new 0 0 512 512" height="512" viewBox="0 0 512 512" width="512" xmlns="http://www.w3.org/2000/svg"><g><g><path d="m256 256h234.489c.589-6.791.908-13.66.908-20.604 0-65.003-26.348-123.852-68.946-166.45l-166.451 166.45z" fill="#72bafd"/></g><g><path d="m74.981 416.416c-8.046-8.046-8.046-21.092 0-29.138l332.9-332.901c8.046-8.046 21.092-8.046 29.138 0 8.046 8.046 8.046 21.092 0 29.138l-332.9 332.901c-8.047 8.046-21.092 8.046-29.138 0z" fill="#9ccefd"/></g><g><path d="m375.858 144.676c-8.046 8.046-21.092 8.046-29.138 0s-8.046-21.092 0-29.138l-271.739 271.74c-8.046 8.046-8.046 21.092 0 29.138 8.046 8.046 21.092 8.046 29.138 0z" fill="#72bafd"/></g><g><path d="m358.088 512h-204.176c-49.062 0-91.316-34.599-100.994-82.697l-34.87-173.303h475.903l-34.87 173.303c-9.677 48.098-51.931 82.697-100.993 82.697z" fill="#9ccefd"/></g><g><path d="m155.936 429.303-34.87-173.303h-103.018l34.87 173.303c9.678 48.098 51.932 82.697 100.994 82.697h103.018c-49.062 0-91.316-34.599-100.994-82.697z" fill="#72bafd"/></g><g><path d="m491.396 276.604h-470.792c-11.379 0-20.604-9.225-20.604-20.604 0-11.379 9.225-20.604 20.604-20.604h470.793c11.379 0 20.604 9.225 20.604 20.604-.001 11.379-9.226 20.604-20.605 20.604z" fill="#f7f0eb"/></g><g><path d="m103.018 256c0-11.379 9.225-20.604 20.604-20.604h-103.018c-11.379 0-20.604 9.225-20.604 20.604s9.225 20.604 20.604 20.604h103.018c-11.379 0-20.604-9.225-20.604-20.604z" fill="#efe2dd"/></g><g><path d="m214.793 319.356v-278.149c0-22.758 18.449-41.207 41.207-41.207 22.758 0 41.207 18.449 41.207 41.207v278.149c0 22.758-18.449 41.207-41.207 41.207-22.758 0-41.207-18.449-41.207-41.207z" fill="#dceefe"/></g><g><path d="m256 319.356v-278.149c0-15.25 8.29-28.555 20.604-35.681-6.063-3.508-13.096-5.526-20.604-5.526-22.758 0-41.207 18.449-41.207 41.207v278.149c0 22.758 18.449 41.207 41.207 41.207 7.508 0 14.541-2.018 20.604-5.526-12.314-7.126-20.604-20.431-20.604-35.681z" fill="#c4e2fe"/></g><g><g><g><ellipse cx="170.425" cy="433.523" fill="#fff" rx="31.575" ry="25.145"/></g><g><ellipse cx="341.575" cy="433.362" fill="#fff" rx="31.576" ry="25.145"/></g><g><ellipse cx="255.989" cy="421.764" fill="#6e6e6e" rx="14.126" ry="16.2"/></g></g><g><path d="m188.786 414.392c-6.371 0-12.432-2.756-16.632-7.564-2.725-3.12-2.404-7.858.716-10.583s7.857-2.404 10.583.715c1.35 1.545 3.293 2.432 5.334 2.432h.007c2.046-.002 3.99-.891 5.338-2.44 2.721-3.126 7.458-3.455 10.581-.737 3.125 2.718 3.455 7.456.737 10.581-4.194 4.822-10.26 7.591-16.642 7.597-.006-.001-.015-.001-.022-.001z" fill="#6e6e6e"/></g><g><path d="m323.132 414.265c-6.372 0-12.434-2.756-16.632-7.564-2.725-3.12-2.403-7.858.717-10.583s7.858-2.404 10.582.716c1.349 1.545 3.293 2.431 5.334 2.431h.007c2.045-.002 3.989-.891 5.337-2.44 2.721-3.126 7.458-3.454 10.581-.737 3.125 2.718 3.455 7.456.737 10.581-4.194 4.822-10.26 7.591-16.641 7.597-.007-.001-.015-.001-.022-.001z" fill="#6e6e6e"/></g></g></g></svg>