<svg id="Capa_1" enable-background="new 0 0 512 512" height="512" viewBox="0 0 512 512" width="512" xmlns="http://www.w3.org/2000/svg"><g><g><path d="m0 89.406c0 11.379 9.225 20.604 20.604 20.604h11.972c11.379 0 20.604 9.225 20.604 20.604v77.044h41.207v-77.044c0-34.137-27.674-61.811-61.811-61.811h-11.972c-11.379 0-20.604 9.224-20.604 20.603z" fill="#f7f0eb"/></g><g><path d="m73.783 158.03c-11.379 0-20.604-9.225-20.604-20.604v70.231h41.207v-70.231c0 11.38-9.224 20.604-20.603 20.604z" fill="#efe2dd"/></g><g><path d="m256 207.658h234.489c.589-6.791.908-13.66.908-20.604 0-65.003-26.348-123.852-68.946-166.45l-166.451 166.45z" fill="#72bafd"/></g><g><path d="m264.534 207.658 172.485-172.485c8.046-8.046 8.046-21.092 0-29.138-8.046-8.046-21.092-8.046-29.138 0l-201.623 201.623z" fill="#9ccefd"/></g><g><path d="m89.181 460.491 172.485-172.485c8.046-8.046 8.046-21.092 0-29.138-8.046-8.046-21.092-8.046-29.138 0l-201.623 201.623z" fill="#efe2dd"/></g><g><path d="m422.819 460.491-172.485-172.485c-8.046-8.046-8.046-21.092 0-29.138 8.046-8.046 21.092-8.046 29.138 0l201.623 201.623z" fill="#efe2dd"/></g><g><path d="m206.258 207.658h58.276l111.324-111.324c-8.046 8.046-21.092 8.046-29.138 0s-8.046-21.092 0-29.138z" fill="#72bafd"/></g><g><path d="m256 401.847c-108.053 0-202.483-72.948-229.769-177.499l-4.356-16.69h468.25l-4.356 16.69c-27.286 104.551-121.716 177.499-229.769 177.499z" fill="#9ccefd"/></g><g><path d="m256 280.381v-72.723h-234.125l4.356 16.69c27.286 104.551 121.716 177.499 229.769 177.499-33.542 0-60.733-27.191-60.733-60.733s27.191-60.733 60.733-60.733z" fill="#72bafd"/></g><g><path d="m21.875 207.658v92.716c0 21.551 17.47 39.021 39.021 39.021 21.551 0 39.021-17.47 39.021-39.021 0 21.551 17.47 39.021 39.021 39.021 21.551 0 39.021-17.47 39.021-39.021 0 21.551 17.47 39.021 39.021 39.021 21.551 0 39.021-17.47 39.021-39.021 0 21.551 17.47 39.021 39.021 39.021 21.551 0 39.021-17.47 39.021-39.021 0 21.551 17.47 39.021 39.021 39.021 21.551 0 39.021-17.47 39.021-39.021 0 21.551 17.47 39.021 39.021 39.021 21.551 0 39.021-17.47 39.021-39.021v-92.716z" fill="#dceefe"/></g><g><g><path d="m139.573 300.374v-92.716h-117.698v92.716c0 21.551 17.47 39.021 39.021 39.021 21.551 0 39.021-17.47 39.021-39.021 0 21.551 17.47 39.021 39.021 39.021 7.241 0 14.016-1.979 19.828-5.416-11.486-6.792-19.193-19.295-19.193-33.605z" fill="#c4e2fe"/></g></g><g><g><path d="m204.491 273.82c-4.142 0-7.5-3.358-7.5-7.5v-9.897c0-4.142 3.358-7.5 7.5-7.5s7.5 3.358 7.5 7.5v9.897c0 4.142-3.358 7.5-7.5 7.5z" fill="#6e6e6e"/></g><g><path d="m307.509 273.82c-4.142 0-7.5-3.358-7.5-7.5v-9.897c0-4.142 3.358-7.5 7.5-7.5s7.5 3.358 7.5 7.5v9.897c0 4.142-3.358 7.5-7.5 7.5z" fill="#6e6e6e"/></g><g><path d="m256 279.712c-7.373 0-14.384-3.193-19.234-8.759-2.721-3.123-2.396-7.86.727-10.582 3.123-2.721 7.86-2.396 10.582.727 2.001 2.296 4.89 3.614 7.926 3.614s5.924-1.317 7.926-3.614c2.721-3.124 7.458-3.448 10.582-.727 3.123 2.721 3.448 7.458.727 10.582-4.852 5.567-11.863 8.759-19.236 8.759z" fill="#6e6e6e"/></g></g><g><path d="m491.396 228.261h-470.792c-11.379 0-20.604-9.224-20.604-20.603 0-11.379 9.225-20.604 20.604-20.604h470.793c11.379 0 20.604 9.225 20.604 20.604-.001 11.379-9.226 20.603-20.605 20.603z" fill="#9ccefd"/></g><g><path d="m103.018 207.658c0-11.379 9.225-20.604 20.604-20.604h-103.018c-11.379 0-20.604 9.225-20.604 20.604s9.225 20.604 20.604 20.604h103.018c-11.379-.001-20.604-9.225-20.604-20.604z" fill="#72bafd"/></g><g><circle cx="51.509" cy="460.491" fill="#9ccefd" r="51.509"/></g><g><path d="m51.509 408.982c-28.448 0-51.509 23.061-51.509 51.509s23.061 51.509 51.509 51.509c-8.534 0-15.453-6.918-15.453-15.453s6.918-15.453 15.453-15.453v-41.207c-8.534 0-15.453-6.918-15.453-15.453s6.919-15.452 15.453-15.452z" fill="#72bafd"/></g><g><circle cx="460.491" cy="460.491" fill="#9ccefd" r="51.509"/></g><g><path d="m460.491 408.982c-28.448 0-51.509 23.061-51.509 51.509s23.061 51.509 51.509 51.509c-8.534 0-15.453-6.918-15.453-15.453s6.918-15.453 15.453-15.453v-41.207c-8.534 0-15.453-6.918-15.453-15.453s6.919-15.452 15.453-15.452z" fill="#72bafd"/></g><g><path d="m460.491 481.095h-408.982c-11.379 0-20.604-9.225-20.604-20.604 0-11.379 9.225-20.604 20.604-20.604h408.982c11.379 0 20.604 9.225 20.604 20.604 0 11.379-9.225 20.604-20.604 20.604z" fill="#f7f0eb"/></g><g><path d="m133.924 460.491c0-11.379 9.225-20.604 20.604-20.604h-103.019c-11.379 0-20.604 9.225-20.604 20.604s9.225 20.604 20.604 20.604h103.018c-11.379 0-20.603-9.225-20.603-20.604z" fill="#efe2dd"/></g></g></svg>