<svg id="Capa_1" enable-background="new 0 0 512 512" height="512" viewBox="0 0 512 512" width="512" xmlns="http://www.w3.org/2000/svg"><g><g><path d="m381.344 10.403 29.36 11.414c11.365 4.419 20.795 12.726 26.61 23.444l72.189 133.054c5.23 9.639 1.993 21.686-7.365 27.406l-59.326 36.261s-3.135 144.338-10.711 241.506c-1.255 16.088-14.678 28.512-30.815 28.512h-55.914c-15.186 0-28.2-11.019-30.516-26.027-3.98-25.779-17.041-61.432-58.856-61.432s-54.876 35.653-58.856 61.432c-2.316 15.008-15.33 26.027-30.516 26.027h-55.914c-16.137 0-29.56-12.424-30.815-28.512-7.576-97.168-10.711-241.506-10.711-241.506l-59.326-36.261c-9.357-5.719-12.595-17.766-7.365-27.405l72.189-133.054c5.815-10.718 15.245-19.026 26.61-23.444l29.364-11.416 125.34 77.2z" fill="#fff2b4"/></g><g><path d="m185.552 109.543c0-20.985 2.462-41.393 7.094-60.962l-61.986-38.179-29.364 11.416c-11.366 4.419-20.795 12.726-26.61 23.444l-72.189 133.054c-5.23 9.639-1.993 21.686 7.365 27.405l59.326 36.261s3.135 144.338 10.711 241.506c1.255 16.088 14.678 28.512 30.815 28.512h55.914c15.186 0 28.2-11.019 30.516-26.027 3.98-25.779 17.041-61.432 58.856-61.432s54.876 35.653 58.856 61.432c2.317 15.008 15.33 26.027 30.516 26.027h55.914c16.136 0 29.56-12.424 30.815-28.512 2.636-33.802 4.733-73.309 6.349-110.465-140.628-5.683-252.898-121.458-252.898-263.48z" fill="#ffdf8e"/></g><g><path d="m256 109.543c60.921 0 111.955-42.306 125.341-99.141l-22.953-8.923c-11.214-4.36-23.882 1.25-28.074 12.528-11.212 30.163-40.245 51.655-74.314 51.655s-63.102-21.492-74.314-51.656c-4.192-11.278-16.86-16.887-28.074-12.528l-22.953 8.923c13.386 56.835 64.42 99.142 125.341 99.142z" fill="#ffdf8e"/></g><g><path d="m234.06 87.602c0-12.117 9.823-21.94 21.94-21.94-34.069 0-63.102-21.492-74.314-51.656-4.192-11.278-16.86-16.887-28.074-12.528l-22.953 8.923c13.385 56.834 64.42 99.141 125.341 99.141-12.117.001-21.94-9.823-21.94-21.94z" fill="#ffcd6e"/></g><g><path d="m76.025 141.429-6.837 100.554-36.052-22.036 32.981-80.814c2.21-5.416 10.305-3.541 9.908 2.296z" fill="#ffcd6e"/></g><g><path d="m435.975 141.429 6.837 100.554 36.052-22.036-32.981-80.814c-2.21-5.416-10.305-3.541-9.908 2.296z" fill="#ffdf8e"/></g><g><g><path d="m374.471 267.042c0-8.64-3.859-16.373-9.94-21.588 3.623-7.145 4.229-15.767.922-23.749-3.306-7.982-9.831-13.65-17.445-16.141.613-7.988-2.127-16.185-8.236-22.294s-14.306-8.849-22.294-8.236c-2.49-7.615-8.159-14.139-16.141-17.445s-16.604-2.701-23.749.922c-5.215-6.082-12.948-9.94-21.588-9.94s-16.373 3.859-21.588 9.94c-7.145-3.623-15.767-4.229-23.749-.922-7.982 3.306-13.65 9.831-16.141 17.445-7.988-.613-16.185 2.127-22.294 8.236s-8.849 14.306-8.236 22.294c-7.614 2.49-14.139 8.159-17.445 16.141s-2.701 16.604.922 23.749c-6.082 5.215-9.94 12.949-9.94 21.588 0 8.64 3.859 16.373 9.94 21.588-3.623 7.145-4.229 15.767-.922 23.749s9.831 13.65 17.445 16.141c-.613 7.988 2.127 16.185 8.236 22.294s14.306 8.849 22.294 8.236c2.49 7.615 8.159 14.139 16.141 17.445s16.604 2.701 23.749-.922c5.215 6.082 12.948 9.94 21.588 9.94s16.373-3.859 21.588-9.94c7.145 3.623 15.767 4.228 23.749.922s13.65-9.831 16.141-17.445c7.988.613 16.185-2.127 22.294-8.236s8.849-14.306 8.236-22.294c7.615-2.49 14.139-8.159 17.445-16.141s2.701-16.604-.922-23.749c6.081-5.215 9.94-12.949 9.94-21.588z" fill="#ffdf8e"/></g></g><g><path d="m340.639 349.896c-72.128-32.647-126.941-96.796-146.89-174.901-7.741-.384-15.609 2.363-21.521 8.275-6.109 6.109-8.849 14.306-8.236 22.294-7.615 2.49-14.139 8.159-17.445 16.141s-2.701 16.604.922 23.749c-6.082 5.215-9.94 12.949-9.94 21.588 0 8.64 3.859 16.373 9.94 21.588-3.623 7.145-4.229 15.767-.922 23.749 3.306 7.982 9.83 13.65 17.445 16.141-.613 7.988 2.127 16.185 8.236 22.294s14.306 8.849 22.294 8.236c2.49 7.615 8.159 14.139 16.141 17.445s16.604 2.701 23.749-.922c5.215 6.082 12.948 9.94 21.588 9.94s16.373-3.858 21.588-9.94c7.145 3.623 15.767 4.228 23.749.922s13.651-9.831 16.141-17.445c7.988.613 16.185-2.127 22.294-8.236.299-.3.584-.609.867-.918z" fill="#ffcd6e"/></g><g><circle cx="256" cy="267.042" fill="#eb9b81" r="77.264"/></g><g><path d="m256 344.305c17.486 0 33.611-5.816 46.559-15.61-43.364-29.083-77.615-70.693-97.579-119.652-16.083 14.159-26.243 34.886-26.243 57.998-.001 42.672 34.591 77.264 77.263 77.264z" fill="#d98263"/></g></g></svg>