<svg id="Capa_1" enable-background="new 0 0 512 512" height="512" viewBox="0 0 512 512" width="512" xmlns="http://www.w3.org/2000/svg"><g><g><g><path d="m0 340.24c0 55.836 45.264 101.099 101.099 101.099h309.802c55.835 0 101.099-45.263 101.099-101.099 0-55.835-45.264-101.099-101.099-101.099h-309.802c-55.835 0-101.099 45.264-101.099 101.099zm410.901 59.892h-309.802c-33.077 0-59.892-26.814-59.892-59.892 0-33.077 26.814-59.892 59.892-59.892h309.802c33.077 0 59.892 26.814 59.892 59.892 0 33.078-26.815 59.892-59.892 59.892z" fill="#fdb3cd"/></g></g><g><path d="m101.099 441.339h309.802c55.835 0 101.099-45.263 101.099-101.099 0 11.379-9.225 20.604-20.604 20.604s-20.604-9.225-20.604-20.604c0 33.077-26.814 59.892-59.892 59.892h-309.801c-33.077 0-59.892-26.814-59.892-59.892 0 11.379-9.225 20.604-20.604 20.604s-20.603-9.225-20.603-20.604c0 55.836 45.264 101.099 101.099 101.099z" fill="#fda0c1"/></g><g><path d="m152.827 20.604v113.485h103.018l-34.876-113.485z" fill="#fda0c1"/></g><g><path d="m152.827 20.604h41.207v113.486h-41.207z" fill="#fc90b4"/></g><g><path d="m359.173 179.944h-206.346c-25.325 0-45.855-20.53-45.855-45.855 0-25.325 20.53-45.855 45.855-45.855h206.346c25.325 0 45.855 20.53 45.855 45.855 0 25.325-20.53 45.855-45.855 45.855z" fill="#fdb3cd"/></g><g><path d="m189.387 134.089c0-25.325 20.53-45.855 45.855-45.855h-82.414c-25.325 0-45.855 20.53-45.855 45.855 0 25.325 20.53 45.855 45.855 45.855h82.414c-25.325 0-45.855-20.53-45.855-45.855z" fill="#fda0c1"/></g><g><path d="m428.772 216.127c0-9.484-3.109-17.566-7.461-24.233-9.68-14.829-26.514-23.414-44.223-23.414h-242.176c-17.709 0-34.543 8.585-44.223 23.414-4.352 6.667-7.461 14.749-7.461 24.233 0 31.614 15.807 66.154 15.807 124.113 0 57.958-15.807 92.499-15.807 124.113 0 9.484 3.109 17.566 7.461 24.233 9.68 14.829 26.514 23.414 44.223 23.414h242.177c17.709 0 34.543-8.585 44.223-23.414 4.352-6.667 7.461-14.749 7.461-24.233 0-31.614-15.807-66.154-15.807-124.113-.001-57.958 15.806-92.499 15.806-124.113z" fill="#f7f0eb"/></g><g><path d="m173.103 488.586c-4.352-6.667-7.461-14.749-7.461-24.233 0-31.613 15.807-66.154 15.807-124.113 0-57.958-15.807-92.499-15.807-124.113 0-9.484 3.109-17.566 7.461-24.233 9.68-14.829 26.514-23.414 44.223-23.414h-82.414c-17.709 0-34.543 8.585-44.223 23.414-4.352 6.667-7.461 14.749-7.461 24.233 0 31.614 15.807 66.154 15.807 124.113 0 57.958-15.807 92.499-15.807 124.113 0 9.484 3.109 17.566 7.461 24.233 9.68 14.829 26.514 23.414 44.223 23.414h82.414c-17.709 0-34.543-8.585-44.223-23.414z" fill="#efe2dd"/></g><g><g><g><ellipse cx="169.913" cy="347.259" fill="#fda0c1" rx="31.765" ry="25.296"/></g><g><ellipse cx="342.087" cy="347.259" fill="#fda0c1" rx="31.765" ry="25.296"/></g></g><g><path d="m188.425 330.097c-4.143 0-7.5-3.358-7.5-7.5v-12.362c0-4.142 3.357-7.5 7.5-7.5s7.5 3.358 7.5 7.5v12.362c0 4.142-3.358 7.5-7.5 7.5z" fill="#6e6e6e"/></g><g><path d="m256 338.138c-8.995 0-17.55-3.896-23.47-10.688-2.722-3.123-2.396-7.86.727-10.582 3.121-2.721 7.859-2.396 10.582.727 3.07 3.523 7.503 5.544 12.161 5.544s9.091-2.021 12.161-5.544c2.722-3.123 7.46-3.448 10.582-.727 3.122 2.722 3.448 7.459.727 10.582-5.92 6.792-14.475 10.688-23.47 10.688z" fill="#6e6e6e"/></g><g><path d="m340.287 329.752c-4.143 0-7.5-3.358-7.5-7.5 0-3.764-3.062-6.826-6.825-6.826s-6.826 3.062-6.826 6.826c0 4.142-3.357 7.5-7.5 7.5s-7.5-3.358-7.5-7.5c0-12.035 9.791-21.826 21.826-21.826 12.034 0 21.825 9.791 21.825 21.826 0 4.142-3.357 7.5-7.5 7.5z" fill="#6e6e6e"/></g></g><g><path d="m225.095 41.207h-72.113c-11.379 0-20.604-9.225-20.604-20.604 0-11.378 9.225-20.603 20.604-20.603h72.113c11.379 0 20.604 9.225 20.604 20.604-.001 11.379-9.225 20.603-20.604 20.603z" fill="#fdb3cd"/></g><g><path d="m173.585 20.604c0-11.379 9.225-20.604 20.604-20.604h-41.207c-11.379 0-20.604 9.225-20.604 20.604 0 11.379 9.225 20.604 20.604 20.604h41.207c-11.379-.001-20.604-9.225-20.604-20.604z" fill="#fda0c1"/></g></g></svg>