<svg id="Capa_1" enable-background="new 0 0 512 512" height="512" viewBox="0 0 512 512" width="512" xmlns="http://www.w3.org/2000/svg"><g><g><path d="m489.219 155.117c-7.085-52.223-31.282-99.01-66.779-134.507l-134.507 134.507z" fill="#72bafd"/></g><g><path d="m317.07 155.117 119.938-119.939c8.046-8.046 8.046-21.091 0-29.137-8.046-8.046-21.091-8.046-29.137 0l-149.076 149.076z" fill="#9ccefd"/></g><g><path d="m258.795 155.117h58.274l58.779-58.779c-8.046 8.046-21.091 8.046-29.137 0s-8.046-21.091 0-29.137z" fill="#72bafd"/></g><g><path d="m89.179 428.547 172.481-172.481c8.046-8.046 8.046-21.091 0-29.137-8.046-8.046-21.091-8.046-29.137 0l-201.618 201.618z" fill="#efe2dd"/></g><g><path d="m422.808 428.547-172.481-172.481c-8.046-8.046-8.046-21.091 0-29.137 8.046-8.046 21.091-8.046 29.137 0l201.618 201.618z" fill="#efe2dd"/></g><g><path d="m255.994 369.904c-108.051 0-202.478-72.946-229.763-177.494l-4.356-16.69h468.238l-4.356 16.69c-27.286 104.548-121.713 177.494-229.763 177.494z" fill="#9ccefd"/></g><g><path d="m255.993 248.441v-72.721h-234.119l4.356 16.69c27.286 104.548 121.713 177.494 229.763 177.494-33.541 0-60.731-27.19-60.731-60.731s27.191-60.732 60.731-60.732z" fill="#72bafd"/></g><g><path d="m21.874 155.513v92.714c0 21.55 17.47 39.02 39.02 39.02 21.55 0 39.02-17.47 39.02-39.02 0 21.55 17.47 39.02 39.02 39.02 21.55 0 39.02-17.47 39.02-39.02 0 21.55 17.47 39.02 39.02 39.02 21.55 0 39.02-17.47 39.02-39.02 0 21.55 17.47 39.02 39.02 39.02 21.55 0 39.02-17.47 39.02-39.02 0 21.55 17.47 39.02 39.02 39.02 21.55 0 39.02-17.47 39.02-39.02 0 21.55 17.47 39.02 39.02 39.02 21.55 0 39.02-17.47 39.02-39.02v-92.714z" fill="#dceefe"/></g><g><g><path d="m139.57 248.227v-92.714h-117.696v92.714c0 21.55 17.47 39.02 39.02 39.02 21.55 0 39.02-17.47 39.02-39.02 0 21.55 17.47 39.02 39.02 39.02 7.241 0 14.016-1.979 19.828-5.416-11.485-6.792-19.192-19.295-19.192-33.604z" fill="#c4e2fe"/></g></g><g><g><path d="m204.486 221.674c-4.143 0-7.5-3.358-7.5-7.5v-9.897c0-4.142 3.357-7.5 7.5-7.5s7.5 3.358 7.5 7.5v9.897c0 4.142-3.358 7.5-7.5 7.5z" fill="#6e6e6e"/></g><g><path d="m307.501 221.674c-4.143 0-7.5-3.358-7.5-7.5v-9.897c0-4.142 3.357-7.5 7.5-7.5s7.5 3.358 7.5 7.5v9.897c0 4.142-3.357 7.5-7.5 7.5z" fill="#6e6e6e"/></g><g><path d="m255.994 227.566c-7.373 0-14.384-3.193-19.234-8.759-2.722-3.123-2.396-7.86.728-10.582 3.122-2.721 7.86-2.396 10.581.727 2.001 2.296 4.891 3.614 7.926 3.614s5.924-1.317 7.925-3.614c2.72-3.124 7.459-3.448 10.581-.727 3.123 2.721 3.449 7.458.728 10.582-4.853 5.566-11.863 8.759-19.235 8.759z" fill="#6e6e6e"/></g></g><g><path d="m491.384 175.72h-470.781c-11.379 0-20.603-9.225-20.603-20.603 0-11.379 9.224-20.603 20.603-20.603h470.781c11.379 0 20.603 9.224 20.603 20.603 0 11.378-9.224 20.603-20.603 20.603z" fill="#9ccefd"/></g><g><path d="m103.015 155.117c0-11.379 9.224-20.603 20.603-20.603h-103.015c-11.379 0-20.603 9.224-20.603 20.603s9.224 20.603 20.603 20.603h103.015c-11.378 0-20.603-9.225-20.603-20.603z" fill="#72bafd"/></g><g><g><path d="m255.994 511.993c-81.554 0-144.99-26.379-183.845-48.508-42.409-24.153-65.613-48.548-66.58-49.575-7.733-8.21-7.346-21.134.864-28.867 8.2-7.722 21.102-7.345 28.838.833.469.489 21.126 21.867 58.451 42.889 49.934 28.125 104.53 42.385 162.272 42.385 57.741 0 112.339-14.266 162.279-42.4 37.575-21.169 58.262-42.698 58.466-42.912 7.732-8.212 20.638-8.579 28.849-.848 8.211 7.732 8.581 20.675.849 28.886-.967 1.027-24.174 25.431-66.587 49.592-38.86 22.137-102.301 48.525-183.856 48.525z" fill="#f7f0eb"/></g></g><g><path d="m235.403 491.39c0-10.145 7.34-18.559 16.995-20.268-56.412-.581-109.78-14.817-158.676-42.357-37.325-21.023-57.983-42.4-58.451-42.889-7.736-8.179-20.638-8.555-28.838-.833-8.21 7.733-8.597 20.657-.864 28.867.967 1.027 24.171 25.422 66.58 49.575 38.855 22.129 102.291 48.508 183.845 48.508h.01c-11.377-.001-20.601-9.225-20.601-20.603z" fill="#efe2dd"/></g></g></svg>