<svg id="Capa_1" enable-background="new 0 0 512 512" height="512" viewBox="0 0 512 512" width="512" xmlns="http://www.w3.org/2000/svg"><g><g><path d="m386.935 180.544v-49.609c0-72.314-58.622-130.935-130.935-130.935-72.313 0-130.934 58.621-130.934 130.934v49.609c0 17.183-13.929 31.112-31.112 31.112-17.183 0-31.112 13.929-31.112 31.112v101.828h386.318v-101.827c0-17.183-13.929-31.112-31.112-31.112-17.184 0-31.113-13.93-31.113-31.112z" fill="#7fd196"/></g><g><path d="m256 41.207c-11.379 0-20.604-9.225-20.604-20.604 0-11.378 9.225-20.603 20.604-20.603-72.313 0-130.934 58.621-130.934 130.934v49.609c0 17.183-13.929 31.112-31.112 31.112-17.183 0-31.112 13.929-31.112 31.112v101.828h193.158z" fill="#6bc17f"/></g><g><path d="m166.273 344.596v-213.661c0-49.555 40.172-89.727 89.727-89.727 49.555 0 89.727 40.172 89.727 89.727v213.661z" fill="#6bc17f"/></g><g><path d="m427.56 311.579-3.194-.561c-42.089-7.392-80.226-28.843-109.263-60.196-14.87-16.056-34.82-30.106-59.103-30.106s-44.232 14.049-59.103 30.106c-29.037 31.353-67.174 52.804-109.263 60.196l-3.194.561c-21.31 3.742-38.009 20.403-41.802 41.704l-24.59 138.114h475.903l-24.59-138.114c-3.792-21.301-20.491-37.962-41.801-41.704z" fill="#9edcae"/></g><g><path d="m291.311 470.793c-69.057 0-125.038-55.982-125.038-125.038v-67.934c-23.319 16.676-50.066 28.179-78.638 33.197l-3.194.561c-21.31 3.742-38.009 20.403-41.802 41.704l-24.59 138.114h273.263v-20.604z" fill="#7fd196"/></g><g><path d="m491.396 470.793h-470.792c-11.379 0-20.604 9.224-20.604 20.603 0 11.379 9.225 20.604 20.604 20.604h470.793c11.379 0 20.604-9.225 20.604-20.604-.001-11.379-9.226-20.603-20.605-20.603z" fill="#9edcae"/></g><g><path d="m103.018 491.396c0 11.379 9.225 20.604 20.604 20.604h-103.018c-11.379 0-20.604-9.225-20.604-20.604s9.225-20.604 20.604-20.604h103.018c-11.379.001-20.604 9.225-20.604 20.604z" fill="#7fd196"/></g><g><g><g><ellipse cx="169.623" cy="382.47" fill="#fff" rx="31.872" ry="25.381"/></g><g><ellipse cx="342.377" cy="382.47" fill="#fff" rx="31.872" ry="25.381"/></g><g><ellipse cx="256" cy="362.969" fill="#6e6e6e" rx="16.918" ry="18.932"/></g></g><g><path d="m174.951 359.342c-4.142 0-7.5-3.358-7.5-7.5v-12.362c0-4.142 3.358-7.5 7.5-7.5s7.5 3.358 7.5 7.5v12.362c0 4.142-3.358 7.5-7.5 7.5z" fill="#6e6e6e"/></g><g><path d="m337.049 359.342c-4.142 0-7.5-3.358-7.5-7.5v-12.362c0-4.142 3.358-7.5 7.5-7.5s7.5 3.358 7.5 7.5v12.362c0 4.142-3.358 7.5-7.5 7.5z" fill="#6e6e6e"/></g></g></g></svg>