<svg id="Capa_1" enable-background="new 0 0 512 512" height="512" viewBox="0 0 512 512" width="512" xmlns="http://www.w3.org/2000/svg"><g><g><path d="m235.396 20.604v470.793h41.207v-470.793c.001-11.379-9.224-20.604-20.603-20.604-11.379 0-20.604 9.225-20.604 20.604z" fill="#c4e2fe"/></g><g><path d="m491.396 470.793h-470.792c-11.379 0-20.604 9.224-20.604 20.603 0 11.379 9.225 20.604 20.604 20.604h470.793c11.379 0 20.604-9.225 20.604-20.604-.001-11.379-9.226-20.603-20.605-20.603z" fill="#dceefe"/></g><g><path d="m103.018 491.396c0 11.379 9.225 20.604 20.604 20.604h-103.018c-11.379 0-20.604-9.225-20.604-20.604s9.225-20.604 20.604-20.604h103.018c-11.379.001-20.604 9.225-20.604 20.604z" fill="#c4e2fe"/></g><g><path d="m425.98 470.793h-339.96c-34.137 0-61.811-27.674-61.811-61.811 0-34.137 27.674-61.811 61.811-61.811h339.96c34.137 0 61.811 27.674 61.811 61.811 0 34.137-27.674 61.811-61.811 61.811z" fill="#9edcae"/></g><g><path d="m173.586 408.982c0-34.137 27.674-61.811 61.811-61.811h-149.377c-34.137 0-61.811 27.674-61.811 61.811 0 34.137 27.674 61.811 61.811 61.811h149.376c-34.137 0-61.81-27.674-61.81-61.811z" fill="#7fd196"/></g><g><path d="m374.471 347.171h-236.942c-34.137 0-61.811-27.674-61.811-61.811 0-34.137 27.674-61.811 61.811-61.811h236.942c34.137 0 61.811 27.674 61.811 61.811 0 34.137-27.674 61.811-61.811 61.811z" fill="#fff2b4"/></g><g><path d="m173.586 285.36c0-34.137 27.674-61.811 61.811-61.811h-97.867c-34.137 0-61.811 27.674-61.811 61.811 0 34.137 27.674 61.811 61.811 61.811h97.867c-34.138 0-61.811-27.674-61.811-61.811z" fill="#ffdf8e"/></g><g><path d="m322.962 182.342h-133.924c-34.137 0-61.811-27.674-61.811-61.811 0-34.137 27.674-61.811 61.811-61.811h133.924c34.137 0 61.811 27.674 61.811 61.811 0 34.137-27.674 61.811-61.811 61.811z" fill="#fda0c1"/></g><g><path d="m214.793 120.531c0-34.137 27.674-61.811 61.811-61.811h-87.565c-34.137 0-61.811 27.674-61.811 61.811 0 34.137 27.674 61.811 61.811 61.811h87.565c-34.138 0-61.811-27.674-61.811-61.811z" fill="#fc90b4"/></g><g><g><g><ellipse cx="169.623" cy="294.165" fill="#fda0c1" rx="31.872" ry="25.381"/></g><g><ellipse cx="342.377" cy="294.165" fill="#fda0c1" rx="31.872" ry="25.381"/></g><g><ellipse cx="256" cy="274.663" fill="#6e6e6e" rx="16.918" ry="18.932"/></g></g><g><path d="m174.951 271.037c-4.142 0-7.5-3.358-7.5-7.5v-12.362c0-4.142 3.358-7.5 7.5-7.5s7.5 3.358 7.5 7.5v12.362c0 4.142-3.358 7.5-7.5 7.5z" fill="#6e6e6e"/></g><g><path d="m337.049 271.037c-4.142 0-7.5-3.358-7.5-7.5v-12.362c0-4.142 3.358-7.5 7.5-7.5s7.5 3.358 7.5 7.5v12.362c0 4.142-3.358 7.5-7.5 7.5z" fill="#6e6e6e"/></g></g><g><g><g><ellipse cx="173.951" cy="417.5" fill="#fff" rx="30.274" ry="24.109"/></g><g><ellipse cx="338.049" cy="417.5" fill="#fff" rx="30.274" ry="24.109"/></g><g><path d="m280.409 398.976c0-15.085-10.928-16.502-24.409-16.502s-24.409 1.417-24.409 16.502 10.928 27.313 24.409 27.313 24.409-12.228 24.409-27.313z" fill="#6e6e6e"/></g></g><g><path d="m179.013 396.217c-4.142 0-7.5-3.358-7.5-7.5v-12.362c0-4.142 3.358-7.5 7.5-7.5s7.5 3.358 7.5 7.5v12.362c0 4.142-3.358 7.5-7.5 7.5z" fill="#6e6e6e"/></g><g><path d="m332.988 396.217c-4.142 0-7.5-3.358-7.5-7.5v-12.362c0-4.142 3.358-7.5 7.5-7.5s7.5 3.358 7.5 7.5v12.362c0 4.142-3.358 7.5-7.5 7.5z" fill="#6e6e6e"/></g></g><g><g><path d="m204.491 130.034c-4.142 0-7.5-3.358-7.5-7.5v-9.898c0-4.142 3.358-7.5 7.5-7.5s7.5 3.358 7.5 7.5v9.898c0 4.142-3.358 7.5-7.5 7.5z" fill="#6e6e6e"/></g><g><path d="m307.509 130.034c-4.142 0-7.5-3.358-7.5-7.5v-9.898c0-4.142 3.358-7.5 7.5-7.5s7.5 3.358 7.5 7.5v9.898c0 4.142-3.358 7.5-7.5 7.5z" fill="#6e6e6e"/></g><g><path d="m256 135.926c-7.373 0-14.383-3.193-19.234-8.76-2.721-3.123-2.396-7.86.727-10.582 3.122-2.721 7.86-2.396 10.582.727 2.001 2.297 4.891 3.614 7.926 3.614s5.924-1.317 7.926-3.614c2.721-3.124 7.458-3.448 10.582-.727 3.123 2.721 3.448 7.458.727 10.582-4.853 5.567-11.863 8.76-19.236 8.76z" fill="#6e6e6e"/></g></g></g></svg>