<svg id="Capa_1" enable-background="new 0 0 512 512" height="512" viewBox="0 0 512 512" width="512" xmlns="http://www.w3.org/2000/svg"><g><g><path d="m386.708 89.406c0 11.379 9.225 20.604 20.604 20.604h11.972c11.379 0 20.604 9.225 20.604 20.604v77.044h41.207v-77.044c0-34.137-27.674-61.811-61.811-61.811h-11.972c-11.379 0-20.604 9.224-20.604 20.603z" fill="#fda0c1"/></g><g><path d="m460.491 158.03c-11.379 0-20.604-9.225-20.604-20.604v70.231h41.207v-70.231c.001 11.38-9.224 20.604-20.603 20.604z" fill="#fc90b4"/></g><g><path d="m125.292 89.406c0 11.379-9.225 20.604-20.604 20.604h-11.972c-11.379 0-20.604 9.225-20.604 20.604v77.044h-41.207v-77.044c0-34.137 27.674-61.811 61.811-61.811h11.972c11.379 0 20.604 9.224 20.604 20.603z" fill="#fda0c1"/></g><g><path d="m51.509 158.03c11.379 0 20.604-9.225 20.604-20.604v70.231h-41.208v-70.231c0 11.38 9.225 20.604 20.604 20.604z" fill="#fc90b4"/></g><g><path d="m345.501 111.111v-21.61c0-49.43-40.071-89.501-89.501-89.501-49.43 0-89.501 40.071-89.501 89.501v21.61c0 11.745-9.522 21.267-21.267 21.267-11.745 0-21.267 9.522-21.267 21.267v54.013h264.07v-54.013c0-11.745-9.522-21.267-21.267-21.267-11.745 0-21.267-9.521-21.267-21.267z" fill="#fda0c1"/></g><g><path d="m256 41.207c-11.379 0-20.604-9.225-20.604-20.604s9.225-20.603 20.604-20.603c-49.43 0-89.501 40.071-89.501 89.501v21.61c0 11.745-9.521 21.267-21.267 21.267-11.745 0-21.267 9.521-21.267 21.267v54.013h132.035z" fill="#fc90b4"/></g><g><path d="m304.294 207.658h-96.588v-118.157c0-26.672 21.622-48.294 48.294-48.294 26.672 0 48.294 21.622 48.294 48.294z" fill="#fc80aa"/></g><g><path d="m30.905 207.658h41.207v252.833h-41.207z" fill="#ffcd6e"/></g><g><path d="m439.887 207.658h41.207v252.833h-41.207z" fill="#ffcd6e"/></g><g><g><path d="m289.672 362.195 80.172-108.78v-45.758h-227.688v45.758l80.172 108.78c10.642 3.29 21.95 5.064 33.672 5.064 11.723.001 23.031-1.773 33.672-5.064z" fill="#fda0c1"/></g><g><path d="m307.187 338.431c-5.709.882-11.558 1.341-17.515 1.341-62.874 0-113.844-50.97-113.844-113.844v-18.27h-33.672v45.758l80.172 108.78c10.642 3.29 21.95 5.064 33.672 5.064 11.723 0 23.03-1.774 33.672-5.064z" fill="#fc90b4"/></g><g><path d="m369.844 253.415c-44.278 0-80.172 35.894-80.172 80.172v28.608c46.436-14.357 80.172-57.628 80.172-108.78z" fill="#fc80aa"/></g><g><path d="m222.328 362.195v-28.608c0-44.278-35.894-80.172-80.172-80.172 0 51.152 33.736 94.423 80.172 108.78z" fill="#fc80aa"/></g></g><g><path d="m491.396 228.261h-470.792c-11.379 0-20.604-9.224-20.604-20.603 0-11.379 9.225-20.604 20.604-20.604h470.793c11.379 0 20.604 9.225 20.604 20.604-.001 11.379-9.226 20.603-20.605 20.603z" fill="#fff2b4"/></g><g><path d="m103.018 207.658c0-11.379 9.225-20.604 20.604-20.604h-103.018c-11.379 0-20.604 9.225-20.604 20.604s9.225 20.604 20.604 20.604h103.018c-11.379-.001-20.604-9.225-20.604-20.604z" fill="#ffdf8e"/></g><g><circle cx="51.509" cy="460.491" fill="#f7f0eb" r="51.509"/></g><g><path d="m51.509 408.982c-28.448 0-51.509 23.061-51.509 51.509s23.061 51.509 51.509 51.509c-8.534 0-15.453-6.918-15.453-15.453s6.918-15.453 15.453-15.453v-41.207c-8.534 0-15.453-6.918-15.453-15.453s6.919-15.452 15.453-15.452z" fill="#efe2dd"/></g><g><circle cx="256" cy="460.491" fill="#f7f0eb" r="51.509"/></g><g><path d="m256 408.982c-28.448 0-51.509 23.061-51.509 51.509s23.061 51.509 51.509 51.509c-8.534 0-15.453-6.918-15.453-15.453s6.918-15.453 15.453-15.453v-41.207c-8.534 0-15.453-6.918-15.453-15.453s6.919-15.452 15.453-15.452z" fill="#efe2dd"/></g><g><circle cx="460.491" cy="460.491" fill="#f7f0eb" r="51.509"/></g><g><path d="m460.491 408.982c-28.448 0-51.509 23.061-51.509 51.509s23.061 51.509 51.509 51.509c-8.534 0-15.453-6.918-15.453-15.453s6.918-15.453 15.453-15.453v-41.207c-8.534 0-15.453-6.918-15.453-15.453s6.919-15.452 15.453-15.452z" fill="#efe2dd"/></g><g><path d="m460.491 481.095h-408.982c-11.379 0-20.604-9.225-20.604-20.604 0-11.379 9.225-20.604 20.604-20.604h408.982c11.379 0 20.604 9.225 20.604 20.604 0 11.379-9.225 20.604-20.604 20.604z" fill="#fff2b4"/></g><g><path d="m146.629 460.491c0-11.379 9.225-20.604 20.604-20.604h-115.724c-11.379 0-20.604 9.225-20.604 20.604s9.225 20.604 20.604 20.604h115.724c-11.379 0-20.604-9.225-20.604-20.604z" fill="#ffdf8e"/></g></g></svg>