<svg id="Capa_1" enable-background="new 0 0 512 512" height="512" viewBox="0 0 512 512" width="512" xmlns="http://www.w3.org/2000/svg"><g><g><path d="m41.207 359.018h429.586v111.775h-429.586z" fill="#d98263"/></g><g><path d="m307.509 359.018h-266.302v111.775h266.302c-30.866 0-55.887-25.022-55.887-55.887 0-30.866 25.021-55.888 55.887-55.888z" fill="#c4715a"/></g><g><g><g><ellipse cx="174.042" cy="422.697" fill="#fda0c1" rx="30.241" ry="24.082"/></g><g><ellipse cx="337.958" cy="422.697" fill="#fda0c1" rx="30.241" ry="24.082"/></g></g><g><path d="m191.667 407.015c-4.143 0-7.5-3.358-7.5-7.5v-12.362c0-4.142 3.357-7.5 7.5-7.5s7.5 3.358 7.5 7.5v12.362c0 4.142-3.357 7.5-7.5 7.5z" fill="#f7f0eb"/></g><g><path d="m320.333 407.015c-4.143 0-7.5-3.358-7.5-7.5v-12.362c0-4.142 3.357-7.5 7.5-7.5s7.5 3.358 7.5 7.5v12.362c0 4.142-3.357 7.5-7.5 7.5z" fill="#f7f0eb"/></g><g><path d="m256 414.374c-8.668 0-16.911-3.754-22.615-10.3-2.722-3.123-2.396-7.86.727-10.582 3.122-2.721 7.859-2.397 10.582.727 2.854 3.275 6.976 5.154 11.307 5.154s8.452-1.879 11.307-5.154c2.723-3.124 7.457-3.448 10.582-.727 3.122 2.721 3.448 7.459.727 10.582-5.706 6.546-13.949 10.3-22.617 10.3z" fill="#f7f0eb"/></g></g><g><path d="m0 41.207v429.586c0 22.758 18.449 41.207 41.207 41.207 22.758 0 41.207-18.449 41.207-41.207v-429.586c0-22.758-18.449-41.207-41.207-41.207-22.758 0-41.207 18.449-41.207 41.207z" fill="#eb9b81"/></g><g><path d="m41.207 399.515c-22.758 0-41.207-18.45-41.207-41.208v112.485c0 22.759 18.449 41.208 41.207 41.208 22.758 0 41.207-18.449 41.207-41.207v-112.486c0 22.758-18.449 41.208-41.207 41.208z" fill="#d98263"/></g><g><path d="m429.586 41.207v429.586c0 22.758 18.449 41.207 41.207 41.207 22.758 0 41.207-18.449 41.207-41.207v-429.586c0-22.758-18.449-41.207-41.207-41.207-22.758 0-41.207 18.449-41.207 41.207z" fill="#eb9b81"/></g><g><path d="m470.793 399.515c-22.758 0-41.207-18.449-41.207-41.207v112.485c0 22.758 18.449 41.207 41.207 41.207 22.758 0 41.207-18.449 41.207-41.207v-112.486c0 22.758-18.449 41.208-41.207 41.208z" fill="#d98263"/></g><g><path d="m450.189 70.567h-388.378c-11.379 0-20.604 9.225-20.604 20.604 0 11.379 9.225 20.604 20.604 20.604h388.378c11.379 0 20.604-9.225 20.604-20.604 0-11.379-9.225-20.604-20.604-20.604z" fill="#f7f0eb"/></g><g><path d="m369.32 91.171c0-11.379 9.225-20.604 20.604-20.604h-328.113c-11.379 0-20.604 9.225-20.604 20.604 0 11.379 9.225 20.604 20.604 20.604h328.113c-11.379 0-20.604-9.225-20.604-20.604z" fill="#efe2dd"/></g><g><path d="m276.604 152.982c-11.379 0-20.604-9.225-20.604-20.604v-82.414c0-11.379 9.225-20.604 20.604-20.604 11.379 0 20.604 9.225 20.604 20.604v82.415c-.001 11.378-9.225 20.603-20.604 20.603z" fill="#9edcae"/></g><g><path d="m276.604 91.171c-11.379 0-20.604-9.225-20.604-20.604v61.811c0 11.379 9.225 20.604 20.604 20.604s20.604-9.225 20.604-20.604v-61.811c-.001 11.379-9.225 20.604-20.604 20.604z" fill="#7fd196"/></g><g><path d="m317.811 152.982c-11.379 0-20.604-9.225-20.604-20.604v-82.414c0-11.379 9.225-20.604 20.604-20.604 11.379 0 20.604 9.225 20.604 20.604v82.415c-.001 11.378-9.225 20.603-20.604 20.603z" fill="#fff2b4"/></g><g><path d="m317.811 91.171c-11.379 0-20.604-9.225-20.604-20.604v61.811c0 11.379 9.225 20.604 20.604 20.604s20.604-9.225 20.604-20.604v-61.811c-.001 11.379-9.225 20.604-20.604 20.604z" fill="#ffdf8e"/></g><g><path d="m194.189 152.982c-11.379 0-20.604-9.225-20.604-20.604v-82.414c0-11.379 9.225-20.604 20.604-20.604 11.379 0 20.604 9.225 20.604 20.604v82.415c0 11.378-9.225 20.603-20.604 20.603z" fill="#fda0c1"/></g><g><path d="m194.189 91.171c-11.379 0-20.604-9.225-20.604-20.604v61.811c0 11.379 9.225 20.604 20.604 20.604s20.604-9.225 20.604-20.604v-61.811c0 11.379-9.225 20.604-20.604 20.604z" fill="#fc90b4"/></g><g><path d="m450.189 235.396h-388.378c-11.379 0-20.604 9.225-20.604 20.604 0 11.379 9.225 20.604 20.604 20.604h388.378c11.379 0 20.604-9.225 20.604-20.604 0-11.379-9.225-20.604-20.604-20.604z" fill="#f7f0eb"/></g><g><path d="m245.698 256c0-11.379 9.225-20.604 20.604-20.604h-204.491c-11.379 0-20.604 9.225-20.604 20.604 0 11.379 9.225 20.604 20.604 20.604h204.491c-11.379 0-20.604-9.225-20.604-20.604z" fill="#efe2dd"/></g><g><path d="m152.982 317.811c-11.379 0-20.604-9.225-20.604-20.604v-82.415c0-11.379 9.225-20.604 20.604-20.604 11.379 0 20.604 9.225 20.604 20.604v82.415c0 11.379-9.225 20.604-20.604 20.604z" fill="#b0d8fd"/></g><g><path d="m152.982 256c-11.379 0-20.604-9.225-20.604-20.604v61.811c0 11.379 9.225 20.604 20.604 20.604s20.604-9.225 20.604-20.604v-61.811c0 11.379-9.225 20.604-20.604 20.604z" fill="#9ccefd"/></g><g><path d="m194.189 317.811c-11.379 0-20.604-9.225-20.604-20.604v-82.415c0-11.379 9.225-20.604 20.604-20.604 11.379 0 20.604 9.225 20.604 20.604v82.415c0 11.379-9.225 20.604-20.604 20.604z" fill="#9edcae"/></g><g><path d="m194.189 256c-11.379 0-20.604-9.225-20.604-20.604v61.811c0 11.379 9.225 20.604 20.604 20.604s20.604-9.225 20.604-20.604v-61.811c0 11.379-9.225 20.604-20.604 20.604z" fill="#7fd196"/></g><g><path d="m359.018 317.811c-11.379 0-20.604-9.225-20.604-20.604v-82.415c0-11.379 9.225-20.604 20.604-20.604 11.379 0 20.604 9.225 20.604 20.604v82.415c0 11.379-9.225 20.604-20.604 20.604z" fill="#fda0c1"/></g><g><path d="m359.018 256c-11.379 0-20.604-9.225-20.604-20.604v61.811c0 11.379 9.225 20.604 20.604 20.604s20.604-9.225 20.604-20.604v-61.811c0 11.379-9.225 20.604-20.604 20.604z" fill="#fc90b4"/></g></g></svg>