<svg id="Capa_1" enable-background="new 0 0 512 512" height="512" viewBox="0 0 512 512" width="512" xmlns="http://www.w3.org/2000/svg"><g><g><path d="m359.092 148.175v-14.502c0-73.825-59.847-133.673-133.673-133.673-73.826 0-133.673 59.848-133.673 133.673v204.869l164.254 24.465 164.254-24.465v-129.205c0-33.779-27.383-61.162-61.162-61.162z" fill="#fdb3cd"/></g><g><path d="m165.14 133.673c0-61.099 40.993-112.623 96.976-128.572-11.66-3.321-23.971-5.101-36.697-5.101-73.826 0-133.673 59.848-133.673 133.673v204.869l73.394 10.931z" fill="#fda0c1"/></g><g><path d="m91.746 435.283v-96.74c0-30.238 24.513-54.751 54.751-54.751 30.238 0 54.751 24.513 54.751 54.751 0-30.238 24.513-54.751 54.751-54.751 30.238 0 54.751 24.513 54.751 54.751 0-30.238 24.513-54.751 54.751-54.751 30.238 0 54.751 24.513 54.751 54.751v96.74z" fill="#f7f0eb"/></g><g><g><path d="m256 338.542v96.74h-164.254v-96.74c0-30.238 24.513-54.751 54.751-54.751 30.238 0 54.751 24.513 54.751 54.751 0-30.238 24.513-54.751 54.751-54.751 9.976 0 19.32 2.681 27.375 7.343-16.359 9.468-27.374 27.146-27.374 47.408z" fill="#efe2dd"/></g></g><g><path d="m447.391 483.09c0 15.966-12.943 28.91-28.91 28.91h-324.963c-15.966 0-28.91-12.943-28.91-28.91 0-7.413 2.79-14.174 7.377-19.291 4.857-5.418 4.857-13.819 0-19.237-4.587-5.117-7.377-11.878-7.377-19.291 0-15.966 12.943-28.91 28.91-28.91h324.963c15.966 0 28.91 12.943 28.91 28.91 0 7.413-2.79 14.174-7.377 19.291-4.857 5.418-4.857 13.819 0 19.237 4.587 5.117 7.377 11.878 7.377 19.291z" fill="#fdb3cd"/></g><g><path d="m216.534 444.562c4.857 5.418 4.857 13.819 0 19.237-4.587 5.117-7.377 11.878-7.377 19.291 0 15.966 12.943 28.91 28.91 28.91h-143.856c-15.676 0-29.027-12.189-29.584-27.855-.28-7.873 2.589-15.074 7.446-20.443 4.863-5.375 4.863-13.668 0-19.043-4.857-5.369-7.726-12.57-7.446-20.443.557-15.666 13.908-27.855 29.584-27.855h143.855c-15.966 0-28.91 12.943-28.91 28.91.001 7.413 2.791 14.174 7.378 19.291z" fill="#fda0c1"/></g><g><path d="m389.673 239.918c16.889 0 30.581-13.692 30.581-30.581 0-33.779-27.383-61.162-61.162-61.162v61.162c0 16.889 13.692 30.581 30.581 30.581z" fill="#fda0c1"/></g><g><g><g><ellipse cx="174.042" cy="459.912" fill="#fff" rx="30.241" ry="24.082"/></g><g><ellipse cx="337.958" cy="459.912" fill="#fff" rx="30.241" ry="24.082"/></g></g><g><path d="m191.667 444.229c-4.142 0-7.5-3.357-7.5-7.5v-12.362c0-4.143 3.358-7.5 7.5-7.5s7.5 3.357 7.5 7.5v12.362c0 4.143-3.358 7.5-7.5 7.5z" fill="#6e6e6e"/></g><g><path d="m320.333 444.229c-4.142 0-7.5-3.357-7.5-7.5v-12.362c0-4.143 3.358-7.5 7.5-7.5s7.5 3.357 7.5 7.5v12.362c0 4.143-3.357 7.5-7.5 7.5z" fill="#6e6e6e"/></g><g><path d="m256 451.589c-8.668 0-16.911-3.754-22.615-10.3-2.721-3.123-2.396-7.86.727-10.582s7.86-2.395 10.582.727c2.855 3.276 6.976 5.155 11.307 5.155s8.452-1.879 11.307-5.155c2.721-3.123 7.459-3.447 10.582-.727 3.123 2.722 3.448 7.459.727 10.582-5.706 6.546-13.949 10.3-22.617 10.3z" fill="#6e6e6e"/></g></g></g></svg>