<svg id="Capa_1" enable-background="new 0 0 512 512" height="512" viewBox="0 0 512 512" width="512" xmlns="http://www.w3.org/2000/svg"><g><g><path d="m297.207 66.962h194.189c11.379 0 20.604 9.225 20.604 20.604 0 56.895-46.123 103.018-103.018 103.018h-111.775z" fill="#ffcd6e"/></g><g><path d="m297.207 190.583h111.775c21.211 0 40.923-6.414 57.308-17.403.525-5.488.827-11.012.886-16.561.332-31.595-6.852-62.148-20.716-89.658h-149.253z" fill="#f8b55e"/></g><g><path d="m387.353 256.731c23.7-26.854 38.213-62.008 38.618-100.544.896-85.194-68.21-155.583-153.407-156.183-85.853-.604-155.638 68.81-155.638 154.523 0 33.413 10.607 64.349 28.635 89.626h-13.69c-31.072 0-60.269-14.868-78.545-39.997-7.614-10.469-19.777-16.663-32.722-16.663-11.379 0-20.604 9.225-20.604 20.604v169.98c0 73.963 59.96 133.923 133.923 133.923h158.133c73.964 0 133.923-59.96 133.923-133.923 0-36.279-14.428-69.185-37.857-93.301-7.525-7.748-7.916-19.947-.769-28.045z" fill="#ffdf8e"/></g><g><g><g><ellipse cx="342.377" cy="110.563" fill="#fda0c1" rx="30.274" ry="24.109"/></g></g><g><path d="m347.438 89.28c-4.142 0-7.5-3.357-7.5-7.5v-12.362c0-4.143 3.358-7.5 7.5-7.5s7.5 3.357 7.5 7.5v12.362c0 4.143-3.358 7.5-7.5 7.5z" fill="#6e6e6e"/></g></g><g><g><path d="m388.69 470.793c-64.748 0-117.237-52.489-117.237-117.237 0-23.144-15.582-43.537-38.019-49.213-35.981-9.103-66.934-30.829-87.873-60.189h-13.69c-31.072 0-60.269-14.868-78.545-39.997-7.614-10.469-19.777-16.663-32.722-16.663-11.379-.001-20.604 9.224-20.604 20.603v169.98c0 73.963 59.96 133.923 133.923 133.923h158.133c37.979 0 72.261-15.812 96.634-41.207z" fill="#ffcd6e"/></g></g><g><path d="m256.148 285.36c-33.832.001-63.431 18.122-79.622 45.187-17.456 29.18-48.48 47.529-82.483 47.529h-1.225c-6.944 0-11.842 6.714-9.843 13.364 5.737 19.088 23.446 32.994 44.403 32.994 0 25.603 20.755 46.358 46.358 46.358h81.241c51.08 0 93.444-40.819 93.886-91.897.446-51.535-41.281-93.536-92.715-93.535z" fill="#fff2b4"/></g></g></svg>