<svg id="Capa_1" enable-background="new 0 0 512 512" height="512" viewBox="0 0 512 512" width="512" xmlns="http://www.w3.org/2000/svg"><g><g><path d="m256 185.747h-120.531v61.811c35.848 0 68.476 20.688 83.765 53.111l7.375 15.639c5.365 11.377 16.813 18.636 29.391 18.636 12.578 0 24.027-7.259 29.391-18.636l7.375-15.639c15.289-32.423 47.917-53.111 83.765-53.111v-61.811z" fill="#c4e2fe"/></g><g><path d="m229.196 206.351c0-7.09.824-13.987 2.376-20.604h-96.103v61.811c35.848 0 68.476 20.688 83.765 53.111l7.375 15.639c5.365 11.377 16.813 18.636 29.391 18.636 12.578 0 24.027-7.259 29.391-18.636l7.375-15.639c1.176-2.494 2.466-4.909 3.841-7.26-38.767-9.982-67.411-45.175-67.411-87.058z" fill="#b0d8fd"/></g><g><path d="m35.541 412.058h440.918v41.207h-440.918z" fill="#c4e2fe"/></g><g><path d="m216.947 412.058h-181.406v41.207h181.406c-11.379 0-20.604-9.225-20.604-20.604.001-11.379 9.225-20.603 20.604-20.603z" fill="#b0d8fd"/></g><g><path d="m387.691 185.89-38.071 15.769 122.736 296.31c4.355 10.513 16.407 15.505 26.92 11.151 10.513-4.355 15.505-16.407 11.151-26.92z" fill="#dceefe"/></g><g><path d="m124.309 185.89 38.071 15.769-122.736 296.31c-4.355 10.513-16.407 15.505-26.92 11.151-10.513-4.355-15.505-16.407-11.151-26.92z" fill="#dceefe"/></g><g><path d="m63.11 333.637-61.536 148.562c-4.355 10.513.638 22.565 11.151 26.92 10.513 4.355 22.565-.638 26.92-11.151l61.537-148.562c-4.355 10.513-16.407 15.505-26.92 11.151-10.514-4.355-15.506-16.407-11.152-26.92z" fill="#c4e2fe"/></g><g><path d="m345.501 109.804v-20.303c0-49.43-40.071-89.501-89.501-89.501-49.43 0-89.501 40.071-89.501 89.501v20.303c0 11.745-9.522 21.267-21.267 21.267-11.745 0-21.267 9.522-21.267 21.267v33.409h264.07v-33.409c0-11.745-9.522-21.267-21.267-21.267-11.745 0-21.267-9.521-21.267-21.267z" fill="#c4e2fe"/></g><g><path d="m256 41.207c-11.379 0-20.604-9.225-20.604-20.604s9.225-20.603 20.604-20.603c-49.43 0-89.501 40.071-89.501 89.501v20.303c0 11.745-9.521 21.267-21.267 21.267-11.745 0-21.267 9.522-21.267 21.267v33.409h132.035z" fill="#b0d8fd"/></g><g><path d="m304.294 185.747h-96.588v-96.246c0-26.672 21.622-48.294 48.294-48.294 26.672 0 48.294 21.622 48.294 48.294z" fill="#9ccefd"/></g><g><path d="m439.887 206.351h-367.774c-11.379 0-20.604-9.225-20.604-20.604 0-11.379 9.225-20.604 20.604-20.604h367.775c11.379 0 20.604 9.225 20.604 20.604-.001 11.379-9.226 20.604-20.605 20.604z" fill="#dceefe"/></g><g><path d="m103.018 185.747c0-11.379 9.225-20.604 20.604-20.604h-51.509c-11.379 0-20.604 9.225-20.604 20.604s9.225 20.604 20.604 20.604h51.509c-11.379 0-20.604-9.225-20.604-20.604z" fill="#c4e2fe"/></g><g><path d="m410.819 350.713 61.536 148.562c4.355 10.513 16.407 15.505 26.92 11.151 10.513-4.355 15.505-16.407 11.151-26.92l-61.536-148.562c4.355 10.513-.638 22.565-11.151 26.92s-22.565-.638-26.92-11.151z" fill="#c4e2fe"/></g></g></svg>