<svg id="Capa_1" enable-background="new 0 0 512 512" height="512" viewBox="0 0 512 512" width="512" xmlns="http://www.w3.org/2000/svg"><g><g><path d="m127.227 165.143h257.545v130.519h-257.545z" fill="#fff2b4"/></g><g><path d="m199.34 285.36c-17.069 0-30.905-13.837-30.905-30.905v-46.651c0-17.069 13.837-30.905 30.905-30.905h185.433v-11.755h-257.546v130.519h257.545v-10.303z" fill="#ffdf8e"/></g><g><path d="m55.115 316.266v164.829c0 17.068 13.837 30.905 30.905 30.905h78.981c17.069 0 30.905-13.837 30.905-30.905v-42.925c0-33.189 26.905-60.094 60.094-60.094 33.189 0 60.094 26.905 60.094 60.094v42.924c0 17.069 13.837 30.905 30.905 30.905h78.981c17.069 0 30.905-13.837 30.905-30.905v-164.828c0-17.069-13.837-30.905-30.905-30.905h-339.96c-17.068-.001-30.905 13.836-30.905 30.905z" fill="#9edcae"/></g><g><g><path d="m97.352 481.095v-164.829c0-17.069 13.837-30.905 30.905-30.905h-42.237c-17.069 0-30.905 13.837-30.905 30.905v164.829c0 17.068 13.836 30.905 30.905 30.905h37.773c.752 0 1.494-.036 2.232-.089-16.025-1.145-28.673-14.499-28.673-30.816z" fill="#7fd196"/></g></g><g><g><path d="m105.74 141.726 135.691-135.691c8.046-8.046 21.092-8.046 29.138 0l135.691 135.691c12.98 12.98 3.787 35.173-14.569 35.173h-271.382c-18.356-.001-27.549-22.194-14.569-35.173z" fill="#fdb3cd"/></g></g><g><path d="m387.399 122.865c-15.252 6.132-31.905 9.513-49.351 9.513-60.394 0-111.338-40.446-127.234-95.727l-105.074 105.075c-12.979 12.98-3.787 35.173 14.569 35.173h271.382c18.356 0 27.548-22.193 14.569-35.173z" fill="#fda0c1"/></g></g><g><g><g><ellipse cx="176.443" cy="240.466" fill="#fda0c1" rx="29.355" ry="23.377"/></g><g><ellipse cx="335.557" cy="240.466" fill="#fda0c1" rx="29.355" ry="23.377"/></g></g><g><path d="m193.551 225.463c-4.143 0-7.5-3.357-7.5-7.5v-12c0-4.143 3.357-7.5 7.5-7.5s7.5 3.357 7.5 7.5v12c0 4.142-3.358 7.5-7.5 7.5z" fill="#6e6e6e"/></g><g><path d="m318.448 225.463c-4.143 0-7.5-3.357-7.5-7.5v-12c0-4.143 3.357-7.5 7.5-7.5s7.5 3.357 7.5 7.5v12c0 4.142-3.357 7.5-7.5 7.5z" fill="#6e6e6e"/></g><g><path d="m256 232.606c-8.478 0-16.54-3.672-22.118-10.074-2.722-3.122-2.396-7.86.728-10.581 3.122-2.721 7.86-2.396 10.581.728 2.729 3.132 6.669 4.928 10.81 4.928s8.08-1.796 10.81-4.928c2.721-3.124 7.458-3.448 10.581-.728s3.449 7.459.728 10.581c-5.58 6.402-13.642 10.074-22.12 10.074z" fill="#6e6e6e"/></g></g></svg>