<svg id="Capa_1" enable-background="new 0 0 512 512" height="512" viewBox="0 0 512 512" width="512" xmlns="http://www.w3.org/2000/svg"><g><g><path d="m439.887 82.572h-299.749c-11.379 0-20.604-9.225-20.604-20.604 0-11.379 9.225-20.604 20.604-20.604h299.749c11.379 0 20.604 9.225 20.604 20.604 0 11.379-9.225 20.604-20.604 20.604z" fill="#fff2b4"/></g><g><path d="m72.113 185.747h367.775v305.649h-367.775z" fill="#c4e2fe"/></g><g><path d="m72.113 185.747h84.509v305.649h-84.509z" fill="#b0d8fd"/></g><g><path d="m439.887 206.351h-367.774c-11.379 0-20.604-9.225-20.604-20.604 0-11.379 9.225-20.604 20.604-20.604h367.775c11.379 0 20.604 9.225 20.604 20.604-.001 11.379-9.226 20.604-20.605 20.604z" fill="#dceefe"/></g><g><path d="m103.018 185.747c0-11.379 9.225-20.604 20.604-20.604h-51.509c-11.379 0-20.604 9.225-20.604 20.604s9.225 20.604 20.604 20.604h51.509c-11.379 0-20.604-9.225-20.604-20.604z" fill="#c4e2fe"/></g><g><path d="m228.734 61.968c0-11.379 9.225-20.604 20.604-20.604h-109.199c-11.379 0-20.604 9.225-20.604 20.604s9.225 20.604 20.604 20.604h109.199c-11.379 0-20.604-9.225-20.604-20.604z" fill="#ffdf8e"/></g><g><path d="m439.887 512h-367.774c-11.379 0-20.604-9.225-20.604-20.604 0-11.379 9.225-20.604 20.604-20.604h367.775c11.379 0 20.604 9.225 20.604 20.604-.001 11.379-9.226 20.604-20.605 20.604z" fill="#dceefe"/></g><g><path d="m103.018 491.396c0-11.379 9.225-20.604 20.604-20.604h-51.509c-11.379 0-20.604 9.225-20.604 20.604s9.225 20.604 20.604 20.604h51.509c-11.379 0-20.604-9.225-20.604-20.604z" fill="#c4e2fe"/></g><g><path d="m166.957 123.936h-94.844c-11.379 0-20.604-9.225-20.604-20.604v-82.728c0-11.379 9.225-20.604 20.604-20.604h94.844c11.379 0 20.604 9.225 20.604 20.604v82.729c0 11.379-9.225 20.603-20.604 20.603z" fill="#fff2b4"/></g><g><path d="m92.716 103.332v-82.728c0-11.379 9.225-20.604 20.604-20.604h-41.207c-11.379 0-20.604 9.225-20.604 20.604v82.729c0 11.379 9.225 20.604 20.604 20.604h41.207c-11.379-.001-20.604-9.225-20.604-20.605z" fill="#ffdf8e"/></g><g><path d="m355.378 335.638c-9.521-46.163-50.396-80.869-99.378-80.869s-89.857 34.706-99.378 80.869c-23.915 0-43.302 19.387-43.302 43.302v.132c0 23.915 19.387 43.302 43.302 43.302h198.756c23.915 0 43.302-19.387 43.302-43.302v-.132c0-23.915-19.387-43.302-43.302-43.302z" fill="#fff"/></g><g><path d="m356.186 392.923c-66.339 0-120.118-53.779-120.118-120.118 0-5.521.381-10.953 1.102-16.277-40.347 7.573-72.278 39.012-80.548 79.109-23.915 0-43.302 19.387-43.302 43.302v.132c0 23.915 19.387 43.302 43.302 43.302h198.756c21.78 0 39.798-16.082 42.843-37.019-13.084 4.89-27.246 7.569-42.035 7.569z" fill="#f7f0eb"/></g><g><g><path d="m204.491 348.074c-4.142 0-7.5-3.357-7.5-7.5v-9.897c0-4.143 3.358-7.5 7.5-7.5s7.5 3.357 7.5 7.5v9.897c0 4.143-3.358 7.5-7.5 7.5z" fill="#6e6e6e"/></g><g><path d="m307.509 348.074c-4.142 0-7.5-3.357-7.5-7.5v-9.897c0-4.143 3.358-7.5 7.5-7.5s7.5 3.357 7.5 7.5v9.897c0 4.143-3.358 7.5-7.5 7.5z" fill="#6e6e6e"/></g><g><path d="m256 353.967c-7.373 0-14.384-3.192-19.234-8.76-2.721-3.122-2.396-7.86.727-10.581 3.123-2.722 7.86-2.396 10.582.728 2.001 2.296 4.89 3.613 7.926 3.613s5.924-1.317 7.926-3.613c2.721-3.124 7.458-3.449 10.582-.728 3.123 2.721 3.448 7.459.727 10.581-4.852 5.567-11.863 8.76-19.236 8.76z" fill="#6e6e6e"/></g></g></g></svg>