<svg id="Capa_1" enable-background="new 0 0 512 512" height="512" viewBox="0 0 512 512" width="512" xmlns="http://www.w3.org/2000/svg"><g><g><path d="m480.281 268.36v-23.788c0-71.119-57.653-128.773-128.773-128.773h-95.508v41.207h96.005c48.087 0 87.069 38.982 87.069 87.069 0 47.329 15.067 93.429 43.019 131.623 9.452 12.915 29.907 6.229 29.907-9.775 0-3.497-1.108-6.904-3.164-9.733-18.559-25.524-28.555-56.271-28.555-87.83z" fill="#fdb3cd"/></g><g><path d="m330.905 136.403c0-11.379 9.225-20.604 20.604-20.604h-95.509v41.207h95.509c-11.379 0-20.604-9.224-20.604-20.603z" fill="#fda0c1"/></g><g><path d="m308.539 204.604h-105.078v-88.805c0-28.448 23.061-51.509 51.509-51.509h2.06c28.448 0 51.509 23.061 51.509 51.509z" fill="#fff2b4"/></g><g><path d="m276.604 68.15c-6.036-2.482-12.643-3.86-19.573-3.86h-2.06c-28.448 0-51.509 23.061-51.509 51.509v88.805h41.207v-88.805c-.001-21.517 13.196-39.943 31.935-47.649z" fill="#ffdf8e"/></g><g><path d="m41.207 30.905h-20.604v105.497 105.498h20.604c41.484-53.551 105.412-84.894 173.152-84.894h21.037c11.379 0 20.604-9.225 20.604-20.604 0-11.379-9.225-20.604-20.604-20.604h-21.037c-67.74.001-131.667-31.342-173.152-84.893z" fill="#fdb3cd"/></g><g><g><path d="m153.866 107.266c11.379 4.777 19.372 16.023 19.372 29.137s-7.992 24.36-19.371 29.137c19.455-5.592 39.793-8.533 60.492-8.533h21.037c11.379 0 20.604-9.225 20.604-20.604 0-11.379-9.225-20.604-20.604-20.604h-21.037c-20.699 0-41.037-2.941-60.493-8.533z" fill="#fda0c1"/></g></g><g><path d="m338.57 286.012h-165.14c-25.325 0-45.855-20.53-45.855-45.855 0-25.325 20.53-45.855 45.855-45.855h165.14c25.325 0 45.855 20.53 45.855 45.855-.001 25.325-20.531 45.855-45.855 45.855z" fill="#fdb3cd"/></g><g><path d="m209.99 240.157c0-25.325 20.53-45.855 45.855-45.855h-82.415c-25.325 0-45.855 20.53-45.855 45.855 0 25.325 20.53 45.855 45.855 45.855h82.414c-25.324 0-45.854-20.53-45.854-45.855z" fill="#fda0c1"/></g><g><path d="m408.169 319.146c0-9.484-3.109-17.566-7.461-24.233-9.68-14.829-26.514-23.414-44.223-23.414h-79.881-121.089c-17.709 0-34.543 8.585-44.223 23.414-4.352 6.667-7.461 14.749-7.461 24.233 0 31.614 8.596 37.392 8.596 72.604s-8.596 40.99-8.596 72.604c0 9.484 3.109 17.566 7.461 24.233 9.68 14.829 26.514 23.414 44.223 23.414h121.088 79.881c17.709 0 34.543-8.585 44.223-23.414 4.352-6.667 7.461-14.749 7.461-24.233 0-31.614-8.596-37.393-8.596-72.604s8.597-40.991 8.597-72.604z" fill="#f7f0eb"/></g><g><path d="m183.405 488.586c-4.352-6.667-7.461-14.749-7.461-24.233 0-31.614 8.596-37.393 8.596-72.604s-8.596-40.99-8.596-72.604c0-9.484 3.109-17.566 7.461-24.233 9.68-14.829 26.514-23.414 44.223-23.414h-72.113c-17.709 0-34.543 8.585-44.223 23.414-4.352 6.667-7.461 14.749-7.461 24.233 0 31.614 8.596 37.392 8.596 72.604s-8.596 40.99-8.596 72.604c0 9.484 3.109 17.566 7.461 24.233 9.68 14.829 26.514 23.414 44.223 23.414h72.113c-17.709 0-34.543-8.585-44.223-23.414z" fill="#efe2dd"/></g><g><path d="m0 252.202v-231.598c0-11.379 9.225-20.604 20.604-20.604 11.379 0 20.604 9.225 20.604 20.604v231.598c0 11.379-9.225 20.604-20.604 20.604-11.379 0-20.604-9.225-20.604-20.604z" fill="#fff2b4"/></g><g><path d="m20.604 169.787c-11.379 0-20.604-9.224-20.604-20.603v103.018c0 11.379 9.225 20.604 20.604 20.604s20.604-9.225 20.604-20.604v-103.018c-.001 11.379-9.225 20.603-20.604 20.603z" fill="#ffdf8e"/></g><g><g><g><ellipse cx="169.623" cy="400.554" fill="#fda0c1" rx="31.872" ry="25.381"/></g><g><ellipse cx="342.377" cy="400.554" fill="#fda0c1" rx="31.872" ry="25.381"/></g><g><ellipse cx="256" cy="381.053" fill="#6e6e6e" rx="16.918" ry="18.932"/></g></g><g><path d="m174.951 377.426c-4.142 0-7.5-3.357-7.5-7.5v-12.362c0-4.143 3.358-7.5 7.5-7.5s7.5 3.357 7.5 7.5v12.362c0 4.142-3.358 7.5-7.5 7.5z" fill="#6e6e6e"/></g><g><path d="m337.049 377.426c-4.142 0-7.5-3.357-7.5-7.5v-12.362c0-4.143 3.358-7.5 7.5-7.5s7.5 3.357 7.5 7.5v12.362c0 4.142-3.358 7.5-7.5 7.5z" fill="#6e6e6e"/></g></g></g></svg>