<svg id="Capa_1" enable-background="new 0 0 512 512" height="512" viewBox="0 0 512 512" width="512" xmlns="http://www.w3.org/2000/svg"><g><g><path d="m505.808 76.024-69.832-69.832c-8.046-8.046-21.092-8.046-29.138 0l-400.646 400.646c-8.046 8.046-8.046 21.092 0 29.138l69.832 69.832c8.046 8.046 21.092 8.046 29.138 0l400.646-400.646c8.046-8.046 8.046-21.092 0-29.138z" fill="#fda0c1"/></g><g><circle cx="256" cy="256" fill="#fdb3cd" r="256"/></g><g><path d="m256 0c-141.385 0-256 114.615-256 256s114.615 256 256 256c-11.379 0-20.604-9.225-20.604-20.604s9.225-20.604 20.604-20.604v-429.585c-11.379 0-20.604-9.225-20.604-20.604 0-11.378 9.225-20.603 20.604-20.603z" fill="#fda0c1"/></g><g><circle cx="256" cy="256" fill="#fc90b4" r="214.793"/></g><g><g><path d="m429.586 256c0-12.689-5.739-24.034-14.759-31.593 5.44-10.435 6.401-23.113 1.546-34.836-4.856-11.723-14.5-20.008-25.725-23.54 1.033-11.723-2.931-23.803-11.903-32.776-8.972-8.972-21.053-12.936-32.776-11.903-3.532-11.226-11.817-20.87-23.54-25.725s-24.4-3.895-34.836 1.546c-7.559-9.02-18.904-14.759-31.593-14.759s-24.034 5.739-31.593 14.759c-10.435-5.44-23.113-6.401-34.836-1.546-11.723 4.856-20.008 14.5-23.54 25.725-11.723-1.033-23.803 2.931-32.775 11.903s-12.936 21.053-11.903 32.776c-11.226 3.532-20.87 11.817-25.725 23.54-4.856 11.723-3.895 24.4 1.546 34.836-9.02 7.559-14.759 18.904-14.759 31.593s5.739 24.034 14.759 31.593c-5.44 10.435-6.401 23.113-1.546 34.836 4.856 11.723 14.5 20.008 25.725 23.54-1.033 11.723 2.931 23.803 11.903 32.775s21.053 12.936 32.775 11.903c3.532 11.226 11.817 20.87 23.54 25.726s24.4 3.895 34.836-1.546c7.559 9.02 18.904 14.759 31.593 14.759s24.034-5.739 31.593-14.759c10.435 5.44 23.113 6.401 34.836 1.546 11.723-4.856 20.008-14.5 23.54-25.726 11.723 1.033 23.803-2.931 32.776-11.903 8.972-8.972 12.936-21.053 11.903-32.775 11.226-3.532 20.87-11.817 25.725-23.54 4.856-11.723 3.895-24.4-1.546-34.836 9.019-7.559 14.759-18.904 14.759-31.593z" fill="#fff2b4"/></g></g><g><path d="m365.297 320.289c-95.715 0-173.586-77.87-173.586-173.585 0-18.81 3.019-36.925 8.578-53.9-3.601.446-7.202 1.369-10.717 2.825-11.723 4.856-20.008 14.5-23.54 25.725-11.723-1.033-23.803 2.931-32.775 11.903s-12.936 21.053-11.903 32.776c-11.226 3.532-20.87 11.817-25.725 23.54-4.856 11.723-3.895 24.4 1.546 34.836-9.02 7.559-14.759 18.904-14.759 31.593s5.739 24.034 14.759 31.593c-5.44 10.435-6.401 23.113-1.546 34.836 4.856 11.723 14.5 20.008 25.725 23.54-1.033 11.723 2.931 23.803 11.903 32.775s21.053 12.936 32.775 11.903c3.532 11.226 11.817 20.87 23.54 25.726s24.4 3.895 34.836-1.546c7.559 9.02 18.904 14.759 31.593 14.759s24.034-5.739 31.593-14.759c10.435 5.44 23.113 6.401 34.836 1.546 11.723-4.856 20.008-14.5 23.54-25.726 11.723 1.033 23.803-2.931 32.776-11.903 8.972-8.972 12.936-21.053 11.903-32.775 11.226-3.532 20.87-11.817 25.725-23.54 1.456-3.515 2.379-7.116 2.825-10.717-16.978 5.556-35.093 8.575-53.902 8.575z" fill="#ffdf8e"/></g><g><g><g><ellipse cx="173.952" cy="264.518" fill="#fda0c1" rx="30.274" ry="24.109"/></g><g><ellipse cx="338.049" cy="264.518" fill="#fda0c1" rx="30.274" ry="24.109"/></g><g><path d="m280.409 245.994c0-15.085-10.928-16.502-24.409-16.502s-24.409 1.417-24.409 16.502 10.928 27.313 24.409 27.313 24.409-12.228 24.409-27.313z" fill="#6e6e6e"/></g></g><g><path d="m179.013 243.235c-4.142 0-7.5-3.357-7.5-7.5v-12.362c0-4.143 3.358-7.5 7.5-7.5s7.5 3.357 7.5 7.5v12.362c0 4.143-3.358 7.5-7.5 7.5z" fill="#6e6e6e"/></g><g><path d="m332.987 243.235c-4.143 0-7.5-3.357-7.5-7.5v-12.362c0-4.143 3.357-7.5 7.5-7.5s7.5 3.357 7.5 7.5v12.362c0 4.143-3.357 7.5-7.5 7.5z" fill="#6e6e6e"/></g></g></g></svg>