<svg id="Capa_1" enable-background="new 0 0 512 512" height="512" viewBox="0 0 512 512" width="512" xmlns="http://www.w3.org/2000/svg"><g><g><g><path d="m512 256c0-18.713-8.464-35.444-21.766-46.592 8.023-15.39 9.441-34.086 2.279-51.375-7.161-17.289-21.384-29.507-37.939-34.716 1.523-17.289-4.322-35.104-17.554-48.337s-31.048-19.078-48.337-17.554c-5.209-16.555-17.427-30.778-34.716-37.939s-35.985-5.744-51.375 2.279c-11.148-13.302-27.879-21.766-46.592-21.766s-35.444 8.464-46.592 21.766c-15.39-8.023-34.086-9.441-51.375-2.279-17.289 7.161-29.507 21.384-34.716 37.939-17.289-1.523-35.104 4.322-48.336 17.554s-19.078 31.048-17.555 48.337c-16.555 5.209-30.778 17.427-37.939 34.716s-5.744 35.985 2.279 51.375c-13.302 11.148-21.766 27.879-21.766 46.592s8.464 35.444 21.766 46.592c-8.023 15.39-9.441 34.086-2.279 51.375 7.161 17.289 21.384 29.507 37.939 34.716-1.523 17.289 4.322 35.104 17.555 48.337s31.048 19.078 48.336 17.554c5.209 16.555 17.427 30.778 34.716 37.939s35.985 5.744 51.375-2.279c11.148 13.302 27.879 21.766 46.592 21.766s35.444-8.464 46.592-21.766c15.39 8.023 34.086 9.441 51.375 2.279 17.289-7.161 29.507-21.384 34.716-37.939 17.289 1.523 35.104-4.322 48.337-17.554s19.078-31.048 17.554-48.337c16.555-5.209 30.778-17.427 37.939-34.716s5.744-35.985-2.279-51.375c13.302-11.148 21.766-27.879 21.766-46.592z" fill="#eb9b81"/></g></g><g><path d="m417.188 350.812c-141.159 0-256-114.841-256-256 0-27.74 4.453-54.456 12.651-79.491-5.31.658-10.621 2.019-15.806 4.166-17.289 7.161-29.507 21.384-34.716 37.939-17.289-1.523-35.104 4.322-48.336 17.554s-19.078 31.048-17.555 48.337c-16.555 5.209-30.778 17.427-37.939 34.716s-5.744 35.985 2.279 51.375c-13.302 11.148-21.766 27.879-21.766 46.592s8.464 35.444 21.766 46.592c-8.023 15.39-9.441 34.086-2.279 51.375 7.161 17.289 21.384 29.507 37.939 34.716-1.523 17.289 4.322 35.104 17.555 48.337s31.048 19.078 48.336 17.554c5.209 16.555 17.427 30.778 34.716 37.939s35.985 5.744 51.375-2.279c11.148 13.302 27.879 21.766 46.592 21.766s35.444-8.464 46.592-21.766c15.39 8.023 34.086 9.441 51.375 2.279 17.289-7.161 29.507-21.384 34.716-37.939 17.289 1.523 35.104-4.322 48.337-17.554s19.078-31.048 17.554-48.337c16.555-5.209 30.778-17.427 37.939-34.716 2.147-5.184 3.508-10.495 4.166-15.806-25.035 8.198-51.751 12.651-79.491 12.651z" fill="#d98263"/></g><g><g><path d="m256 103.822c-4.143 0-7.5-3.357-7.5-7.5v-41.208c0-4.143 3.357-7.5 7.5-7.5s7.5 3.357 7.5 7.5v41.208c0 4.143-3.357 7.5-7.5 7.5z" fill="#d98263"/></g><g><path d="m276.603 83.219h-41.207c-4.143 0-7.5-3.357-7.5-7.5s3.357-7.5 7.5-7.5h41.207c4.143 0 7.5 3.357 7.5 7.5s-3.357 7.5-7.5 7.5z" fill="#d98263"/></g></g><g><g><path d="m256 464.386c-4.143 0-7.5-3.357-7.5-7.5v-41.208c0-4.143 3.357-7.5 7.5-7.5s7.5 3.357 7.5 7.5v41.208c0 4.142-3.357 7.5-7.5 7.5z" fill="#c4715a"/></g><g><path d="m276.603 443.781h-41.207c-4.143 0-7.5-3.357-7.5-7.5s3.357-7.5 7.5-7.5h41.207c4.143 0 7.5 3.357 7.5 7.5s-3.357 7.5-7.5 7.5z" fill="#c4715a"/></g></g><g><g><path d="m383.478 156.625c-4.143 0-7.5-3.357-7.5-7.5v-41.207c0-4.143 3.357-7.5 7.5-7.5s7.5 3.357 7.5 7.5v41.207c0 4.143-3.357 7.5-7.5 7.5z" fill="#d98263"/></g><g><path d="m404.082 136.021h-41.207c-4.143 0-7.5-3.357-7.5-7.5s3.357-7.5 7.5-7.5h41.207c4.143 0 7.5 3.357 7.5 7.5s-3.357 7.5-7.5 7.5z" fill="#d98263"/></g></g><g><g><path d="m128.521 411.582c-4.143 0-7.5-3.357-7.5-7.5v-41.207c0-4.143 3.357-7.5 7.5-7.5s7.5 3.357 7.5 7.5v41.207c0 4.143-3.357 7.5-7.5 7.5z" fill="#c4715a"/></g><g><path d="m149.125 390.979h-41.207c-4.143 0-7.5-3.357-7.5-7.5s3.357-7.5 7.5-7.5h41.207c4.143 0 7.5 3.357 7.5 7.5s-3.357 7.5-7.5 7.5z" fill="#c4715a"/></g></g><g><g><path d="m456.886 263.5h-41.208c-4.143 0-7.5-3.357-7.5-7.5s3.357-7.5 7.5-7.5h41.208c4.143 0 7.5 3.357 7.5 7.5s-3.358 7.5-7.5 7.5z" fill="#d98263"/></g><g><path d="m436.282 284.104c-4.143 0-7.5-3.357-7.5-7.5v-41.207c0-4.143 3.357-7.5 7.5-7.5s7.5 3.357 7.5 7.5v41.207c0 4.142-3.357 7.5-7.5 7.5z" fill="#d98263"/></g></g><g><g><path d="m96.322 263.5h-41.208c-4.143 0-7.5-3.357-7.5-7.5s3.357-7.5 7.5-7.5h41.208c4.143 0 7.5 3.357 7.5 7.5s-3.357 7.5-7.5 7.5z" fill="#c4715a"/></g><g><path d="m75.719 284.104c-4.143 0-7.5-3.357-7.5-7.5v-41.207c0-4.143 3.357-7.5 7.5-7.5s7.5 3.357 7.5 7.5v41.207c0 4.142-3.358 7.5-7.5 7.5z" fill="#c4715a"/></g></g><g><g><path d="m404.082 390.979h-41.207c-4.143 0-7.5-3.357-7.5-7.5s3.357-7.5 7.5-7.5h41.207c4.143 0 7.5 3.357 7.5 7.5s-3.357 7.5-7.5 7.5z" fill="#c4715a"/></g><g><path d="m383.478 411.582c-4.143 0-7.5-3.357-7.5-7.5v-41.207c0-4.143 3.357-7.5 7.5-7.5s7.5 3.357 7.5 7.5v41.207c0 4.143-3.357 7.5-7.5 7.5z" fill="#c4715a"/></g></g><g><g><path d="m128.521 156.625c-4.143 0-7.5-3.357-7.5-7.5v-41.207c0-4.143 3.357-7.5 7.5-7.5s7.5 3.357 7.5 7.5v41.207c0 4.143-3.357 7.5-7.5 7.5z" fill="#c4715a"/></g><g><path d="m149.125 136.021h-41.207c-4.143 0-7.5-3.357-7.5-7.5s3.357-7.5 7.5-7.5h41.207c4.143 0 7.5 3.357 7.5 7.5s-3.357 7.5-7.5 7.5z" fill="#c4715a"/></g></g><g><g><g><ellipse cx="173.951" cy="264.518" fill="#fff" rx="30.274" ry="24.109"/></g><g><ellipse cx="338.049" cy="264.518" fill="#fff" rx="30.274" ry="24.109"/></g><g><path d="m280.409 245.994c0-15.085-10.928-16.502-24.409-16.502s-24.409 1.417-24.409 16.502 10.928 27.313 24.409 27.313 24.409-12.228 24.409-27.313z" fill="#6e6e6e"/></g></g><g><path d="m179.013 243.235c-4.143 0-7.5-3.357-7.5-7.5v-12.362c0-4.143 3.357-7.5 7.5-7.5s7.5 3.357 7.5 7.5v12.362c0 4.143-3.358 7.5-7.5 7.5z" fill="#6e6e6e"/></g><g><path d="m332.987 243.235c-4.143 0-7.5-3.357-7.5-7.5v-12.362c0-4.143 3.357-7.5 7.5-7.5s7.5 3.357 7.5 7.5v12.362c0 4.143-3.357 7.5-7.5 7.5z" fill="#6e6e6e"/></g></g></g></svg>