<svg id="Capa_1" enable-background="new 0 0 512 512" height="512" viewBox="0 0 512 512" width="512" xmlns="http://www.w3.org/2000/svg"><g><g><path d="m477.63 52.698c7.564-15.665-12.635-30.07-24.826-17.661-7.949 8.09-17.399 14.379-32.09 14.379-41.182 0-41.182-49.416-82.364-49.416-41.18 0-41.18 49.416-82.36 49.416-41.179 0-41.179-49.416-82.357-49.416-41.177 0-41.177 49.416-82.354 49.416-14.684 0-24.132-6.284-32.078-14.37-12.193-12.408-32.391 1.996-24.827 17.661l122.795 254.288h197.662z" fill="#dceefe"/></g><g><g><path d="m223.912 35.045c.055.056.113.111.168.167-14.43-14.6-23.851-35.212-50.447-35.212-41.177 0-41.177 49.415-82.354 49.415-14.684 0-24.132-6.284-32.078-14.37-12.193-12.408-32.391 1.996-24.827 17.661l122.795 254.288h164.711l-122.795-254.288c-7.565-15.665 12.634-30.068 24.827-17.661z" fill="#c4e2fe"/></g></g><g><g><g><ellipse cx="169.624" cy="145.725" fill="#fda0c1" rx="31.872" ry="25.381"/></g><g><ellipse cx="342.379" cy="145.725" fill="#fda0c1" rx="31.872" ry="25.381"/></g><g><ellipse cx="256.002" cy="126.224" fill="#6e6e6e" rx="16.918" ry="18.932"/></g></g><g><path d="m174.952 122.598c-4.143 0-7.5-3.357-7.5-7.5v-12.362c0-4.143 3.357-7.5 7.5-7.5s7.5 3.357 7.5 7.5v12.362c0 4.142-3.357 7.5-7.5 7.5z" fill="#6e6e6e"/></g><g><path d="m337.051 122.598c-4.143 0-7.5-3.357-7.5-7.5v-12.362c0-4.143 3.357-7.5 7.5-7.5s7.5 3.357 7.5 7.5v12.362c0 4.142-3.358 7.5-7.5 7.5z" fill="#6e6e6e"/></g></g><g><path d="m414.133 512h-316.266c-42.671 0-77.264-34.592-77.264-77.264v-178.736h470.793v178.736c0 42.672-34.592 77.264-77.263 77.264z" fill="#fff2b4"/></g><g><path d="m123.622 434.736v-178.736h-103.018v178.736c0 42.672 34.592 77.264 77.264 77.264h103.018c-42.672 0-77.264-34.592-77.264-77.264z" fill="#ffdf8e"/></g><g><path d="m491.396 276.604h-470.792c-11.379 0-20.604-9.225-20.604-20.604 0-11.379 9.225-20.604 20.604-20.604h470.793c11.379 0 20.604 9.225 20.604 20.604-.001 11.379-9.226 20.604-20.605 20.604z" fill="#fdb3cd"/></g><g><path d="m103.018 256c0-11.379 9.225-20.604 20.604-20.604h-103.018c-11.379 0-20.604 9.225-20.604 20.604s9.225 20.604 20.604 20.604h103.018c-11.379 0-20.604-9.225-20.604-20.604z" fill="#fda0c1"/></g><g><path d="m97.867 512h316.266c42.672 0 77.264-34.592 77.264-77.264v-102.245c-117.698 0-117.698 103.018-235.396 103.018s-117.699-103.018-235.397-103.018v102.245c0 42.672 34.592 77.264 77.263 77.264z" fill="#fda0c1"/></g><g><path d="m123.622 434.736v-63.35c-25.243-20.927-53.866-38.896-103.018-38.896v102.245c0 42.672 34.592 77.264 77.264 77.264h103.018c-42.672.001-77.264-34.591-77.264-77.263z" fill="#fc90b4"/></g></g></svg>