<svg id="Capa_1" enable-background="new 0 0 512 512" height="512" viewBox="0 0 512 512" width="512" xmlns="http://www.w3.org/2000/svg"><g><g><path d="m225.618 441.655-48.499-48.499 77.637-77.637-58.276-58.276-77.637 77.637-48.499-48.499c-16.092-16.092-42.183-16.092-58.276 0-16.092 16.092-16.092 42.183 0 58.276l48.499 48.499-48.499 48.499c-16.092 16.092-16.092 42.183 0 58.276 16.092 16.092 42.183 16.092 58.276 0l48.499-48.499 48.499 48.499c16.092 16.092 42.183 16.092 58.276 0 16.093-16.093 16.093-42.184 0-58.276z" fill="#fda0c1"/></g><g><path d="m254.756 315.52-58.276-58.276-77.637 77.637-48.499-48.499c-16.092-16.092-42.183-16.092-58.276 0-16.092 16.092-16.092 42.183 0 58.276l48.499 48.499-48.499 48.499c-16.092 16.092-16.092 42.183 0 58.276 16.092 16.092 42.183 16.092 58.276 0l48.499-48.499c-16.092-16.092-16.093-42.183 0-58.276 16.092-16.092 42.183-16.092 58.276 0z" fill="#fc90b4"/></g><g><g><path d="m512 195.735c0-108.102-87.633-195.735-195.734-195.735-108.102 0-195.735 87.634-195.735 195.734 0 108.101 87.633 195.735 195.734 195.735 108.102 0 195.735-87.633 195.735-195.734zm-82.414-.001c0 62.485-50.835 113.32-113.32 113.32s-113.32-50.835-113.32-113.32 50.835-113.32 113.32-113.32 113.32 50.835 113.32 113.32z" fill="#fdb3cd"/></g></g><g><path d="m275.058 41.207c0 22.758 18.449 41.207 41.207 41.207-62.485 0-113.32 50.835-113.32 113.32s50.835 113.32 113.32 113.32c-22.758 0-41.207 18.449-41.207 41.207s18.449 41.207 41.207 41.207c-108.101 0-195.734-87.633-195.734-195.735 0-108.099 87.633-195.733 195.735-195.733-22.759 0-41.208 18.449-41.208 41.207z" fill="#fda0c1"/></g><g><g><g><ellipse cx="248.539" cy="200.47" fill="#fda0c1" rx="24.99" ry="19.901"/></g><g><ellipse cx="383.992" cy="200.47" fill="#fda0c1" rx="24.99" ry="19.901"/></g></g><g><path d="m263.103 188.813c-4.142 0-7.5-3.357-7.5-7.5v-10.216c0-4.143 3.358-7.5 7.5-7.5s7.5 3.357 7.5 7.5v10.216c0 4.143-3.358 7.5-7.5 7.5z" fill="#6e6e6e"/></g><g><path d="m369.428 188.813c-4.142 0-7.5-3.357-7.5-7.5v-10.216c0-4.143 3.358-7.5 7.5-7.5s7.5 3.357 7.5 7.5v10.216c0 4.143-3.358 7.5-7.5 7.5z" fill="#6e6e6e"/></g><g><path d="m316.266 194.895c-7.539 0-14.708-3.265-19.67-8.957-2.722-3.122-2.396-7.859.726-10.581 3.122-2.723 7.86-2.398 10.582.726 2.112 2.423 5.16 3.813 8.362 3.813s6.25-1.39 8.362-3.813c2.721-3.123 7.459-3.448 10.582-.726s3.448 7.459.726 10.581c-4.962 5.692-12.131 8.957-19.67 8.957z" fill="#6e6e6e"/></g></g></g></svg>