<svg id="Capa_1" enable-background="new 0 0 512.018 512.018" height="512" viewBox="0 0 512.018 512.018" width="512" xmlns="http://www.w3.org/2000/svg"><g><g><path d="m277.024 123.95c-.945 0-1.905-.18-2.834-.56-34.691-14.175-51.383-53.93-37.208-88.621 5.645-13.815 16.332-24.605 30.091-30.383 13.761-5.777 28.947-5.851 42.762-.205 11.423 4.666 20.345 13.503 25.122 24.881 4.777 11.377 4.838 23.935.17 35.357-3.885 9.509-11.241 16.937-20.713 20.913s-19.925 4.026-29.434.141c-16.47-6.729-24.394-25.604-17.665-42.073 2.76-6.754 7.984-12.027 14.711-14.852 3.82-1.605 8.215.192 9.818 4.012 1.604 3.819-.192 8.215-4.012 9.818-3.033 1.273-5.388 3.651-6.632 6.696-3.6 8.813.64 18.912 9.454 22.514 11.975 4.893 25.695-.869 30.587-12.843 3.152-7.714 3.111-16.193-.115-23.877s-9.251-13.65-16.965-16.802c-10.107-4.131-21.216-4.078-31.281.15-10.066 4.226-17.883 12.119-22.013 22.226-11.046 27.034 1.961 58.016 28.997 69.063 3.834 1.566 5.672 5.944 4.106 9.779-1.188 2.906-3.99 4.666-6.946 4.666z" fill="#ffdf8e"/></g><g><circle cx="403.328" cy="254.825" fill="#ffcebf" r="36.625"/></g><g><circle cx="108.69" cy="254.825" fill="#f9bcaf" r="36.625"/></g><g><g><path d="m297.323 396.269c-2.576-.924-5.188-1.755-7.837-2.504-10.643-3.023-21.872-4.65-33.476-4.65-67.753 0-122.902 55.16-122.902 122.902h245.804c.001-52.808-33.681-98.596-81.589-115.748z" fill="#ffcebf"/></g></g><g><path d="m281.381 391.76c-8.187-1.731-16.674-2.645-25.371-2.645-67.753 0-122.902 55.16-122.902 122.902h50.755c0-59.043 41.898-108.522 97.518-120.257z" fill="#f9bcaf"/></g><g><circle cx="256.01" cy="254.822" fill="#ffdfcf" r="147.188"/></g><g><path d="m159.577 254.823c0-72.635 52.616-132.975 121.811-145.002-8.245-1.433-16.723-2.187-25.377-2.187-81.29 0-147.188 65.898-147.188 147.188s65.898 147.188 147.188 147.188c8.655 0 17.132-.754 25.377-2.187-69.195-12.026-121.811-72.366-121.811-145z" fill="#ffcebf"/></g><g><g><g><ellipse cx="175.253" cy="304.555" fill="#fda0c1" rx="29.798" ry="23.73"/></g><g><ellipse cx="336.768" cy="304.555" fill="#fda0c1" rx="29.798" ry="23.73"/></g></g><g><path d="m192.619 289.213c-4.142 0-7.5-3.357-7.5-7.5v-12.182c0-4.143 3.358-7.5 7.5-7.5s7.5 3.357 7.5 7.5v12.182c0 4.142-3.358 7.5-7.5 7.5z" fill="#6e6e6e"/></g><g><path d="m319.402 289.213c-4.142 0-7.5-3.357-7.5-7.5v-12.182c0-4.143 3.358-7.5 7.5-7.5s7.5 3.357 7.5 7.5v12.182c0 4.142-3.358 7.5-7.5 7.5z" fill="#6e6e6e"/></g><g><path d="m256.01 296.464c-8.573 0-16.725-3.713-22.367-10.187-2.721-3.123-2.396-7.86.727-10.582 3.124-2.722 7.86-2.396 10.582.727 2.792 3.204 6.823 5.042 11.059 5.042s8.266-1.838 11.059-5.042c2.721-3.123 7.458-3.448 10.582-.727 3.123 2.722 3.448 7.459.727 10.582-5.643 6.474-13.796 10.187-22.369 10.187z" fill="#6e6e6e"/></g></g><g><g><path d="m325.826 51.853c-37.176 0-69.816 63.713-69.816 63.713s-32.64-63.713-69.816-63.713c-14.809 0-30.273 34.349-30.273 68.697h100.089 100.089c0-34.349-15.464-68.697-30.273-68.697z" fill="#fc90b4"/></g><g><path d="m186.195 224.321c37.176 0 69.816-63.713 69.816-63.713s32.64 63.713 69.816 63.713c14.809 0 30.273-34.349 30.273-68.697h-100.09-100.088c0 34.349 15.464 68.697 30.273 68.697z" fill="#fc90b4"/></g><g><path d="m348.032 77.039c-31.936 0-92.022 45.245-92.022 45.245s-60.085-45.245-92.022-45.245-31.937 122.096 0 122.096c31.936 0 92.022-45.245 92.022-45.245s60.085 45.245 92.022 45.245 31.937-122.096 0-122.096z" fill="#fda0c1"/></g><g><circle cx="256.01" cy="138.087" fill="#fdb3cd" r="40.296"/></g></g></g></svg>