<svg id="Capa_1" enable-background="new 0 0 512 512" height="512" viewBox="0 0 512 512" width="512" xmlns="http://www.w3.org/2000/svg"><g><g><path d="m249.339 95.085h252.738v82.414h-252.738z" fill="#9ccefd" transform="matrix(.707 -.707 .707 .707 13.67 305.585)"/></g><g><path d="m512 211.531v-170.324c0-22.758-18.449-41.207-41.207-41.207h-170.324c-22.758 0-41.207 18.449-41.207 41.207 0 22.758 18.449 41.207 41.207 41.207h129.116v129.116c0 22.758 18.449 41.207 41.207 41.207 22.759.001 41.208-18.448 41.208-41.206z" fill="#b0d8fd"/></g><g><g><path d="m195.735 120.531c-108.102 0-195.735 87.634-195.735 195.735 0 108.1 87.633 195.734 195.734 195.734s195.734-87.633 195.734-195.735c.001-108.1-87.633-195.734-195.733-195.734zm-.001 309.055c-62.485 0-113.32-50.835-113.32-113.32s50.835-113.32 113.32-113.32 113.32 50.835 113.32 113.32-50.835 113.32-113.32 113.32z" fill="#b0d8fd"/></g></g><g><path d="m154.527 470.793c0-22.758 18.449-41.207 41.207-41.207-62.485 0-113.32-50.835-113.32-113.32s50.835-113.32 113.32-113.32c-22.758 0-41.207-18.449-41.207-41.207s18.449-41.207 41.207-41.207c-108.101-.001-195.734 87.633-195.734 195.734 0 108.1 87.633 195.734 195.734 195.734-22.758 0-41.207-18.449-41.207-41.207z" fill="#9ccefd"/></g><g><g><path d="m429.586 12.069c5.7-5.7 12.444-9.714 19.613-12.069h-148.729c-22.758 0-41.207 18.449-41.207 41.207 0 22.758 18.449 41.207 41.207 41.207h129.116c-19.426-19.425-19.426-50.919 0-70.345z" fill="#9ccefd"/></g></g><g><g><g><ellipse cx="128.008" cy="323.297" fill="#fda0c1" rx="24.99" ry="19.901"/></g><g><ellipse cx="263.461" cy="323.297" fill="#fda0c1" rx="24.99" ry="19.901"/></g><g><path d="m215.882 308.007c0-12.452-9.021-13.622-20.148-13.622s-20.148 1.17-20.148 13.622 9.021 22.545 20.148 22.545 20.148-10.094 20.148-22.545z" fill="#6e6e6e"/></g></g><g><path d="m132.186 307.038c-4.143 0-7.5-3.357-7.5-7.5v-10.204c0-4.143 3.357-7.5 7.5-7.5s7.5 3.357 7.5 7.5v10.204c0 4.143-3.358 7.5-7.5 7.5z" fill="#6e6e6e"/></g><g><path d="m259.283 307.038c-4.143 0-7.5-3.357-7.5-7.5v-10.204c0-4.143 3.357-7.5 7.5-7.5s7.5 3.357 7.5 7.5v10.204c0 4.143-3.357 7.5-7.5 7.5z" fill="#6e6e6e"/></g></g></g></svg>