<svg id="Capa_1" enable-background="new 0 0 512 512" height="512" viewBox="0 0 512 512" width="512" xmlns="http://www.w3.org/2000/svg"><g><g><path d="m132.378 204.491h61.811v103.018h-61.811z" fill="#b0d8fd"/></g><g><path d="m163.284 512c-28.448 0-51.509-23.061-51.509-51.509v-166.889c0-11.379 9.225-20.604 20.604-20.604h61.811c11.379 0 20.604 9.225 20.604 20.604v166.889c-.001 28.448-23.063 51.509-51.51 51.509z" fill="#9edcae"/></g><g><ellipse cx="163.284" cy="115.895" fill="#dceefe" rx="92.716" ry="115.895"/></g><g><path d="m163.284 115.895c0-42.897 18.646-80.348 46.358-100.387-13.638-9.861-29.47-15.508-46.358-15.508-51.206 0-92.716 51.888-92.716 115.895s41.511 115.895 92.716 115.895c16.888 0 32.721-5.647 46.358-15.509-27.712-20.038-46.358-57.489-46.358-100.386z" fill="#c4e2fe"/></g><g><g><path d="m111.774 125.398c-4.142 0-7.5-3.357-7.5-7.5v-9.898c0-4.143 3.358-7.5 7.5-7.5s7.5 3.357 7.5 7.5v9.898c0 4.143-3.357 7.5-7.5 7.5z" fill="#6e6e6e"/></g><g><path d="m214.793 125.398c-4.142 0-7.5-3.357-7.5-7.5v-9.898c0-4.143 3.358-7.5 7.5-7.5s7.5 3.357 7.5 7.5v9.898c0 4.143-3.358 7.5-7.5 7.5z" fill="#6e6e6e"/></g><g><path d="m163.284 131.29c-7.373 0-14.384-3.192-19.234-8.76-2.721-3.122-2.396-7.86.727-10.581s7.86-2.396 10.582.728c2.001 2.296 4.89 3.613 7.926 3.613s5.924-1.317 7.926-3.613c2.721-3.124 7.458-3.448 10.582-.728 3.123 2.721 3.448 7.459.727 10.581-4.853 5.568-11.863 8.76-19.236 8.76z" fill="#6e6e6e"/></g></g><g><path d="m163.284 460.491v-166.889c0-11.379 9.225-20.604 20.604-20.604h-51.509c-11.379 0-20.604 9.225-20.604 20.604v166.889c0 28.448 23.061 51.509 51.509 51.509 9.385 0 18.176-2.523 25.754-6.908-15.391-8.907-25.754-25.539-25.754-44.601z" fill="#7fd196"/></g><g><path d="m317.811 204.491h61.811v103.018h-61.811z" fill="#b0d8fd"/></g><g><path d="m348.716 0c28.448 0 51.509 23.061 51.509 51.509v166.889c0 11.379-9.225 20.604-20.604 20.604h-61.811c-11.379 0-20.604-9.225-20.604-20.604v-166.889c.001-28.448 23.063-51.509 51.51-51.509z" fill="#ffdf8e"/></g><g><path d="m348.716 51.509v166.889c0 11.379 9.225 20.604 20.604 20.604h-51.509c-11.379 0-20.604-9.225-20.604-20.604v-166.889c0-28.448 23.062-51.509 51.509-51.509 9.385 0 18.176 2.523 25.754 6.908-15.391 8.907-25.754 25.539-25.754 44.601z" fill="#ffcd6e"/></g><g><path d="m348.716 280.209c-51.206 0-92.716 51.888-92.716 115.895v97.352c0 10.241 8.302 18.543 18.543 18.543 10.241 0 18.543-8.302 18.543-18.543v-78.809c0-10.241 8.302-18.543 18.543-18.543 10.241 0 18.543 8.302 18.543 18.543v78.809c0 10.241 8.302 18.543 18.543 18.543 10.241 0 18.543-8.302 18.543-18.543v-78.809c0-10.241 8.302-18.543 18.543-18.543 10.241 0 18.543 8.302 18.543 18.543v78.809c0 10.241 8.302 18.543 18.543 18.543 10.241 0 18.543-8.302 18.543-18.543v-97.352c.003-64.007-41.508-115.895-92.714-115.895z" fill="#dceefe"/></g><g><g><path d="m348.716 396.105c0-42.897 18.646-80.348 46.358-100.387-13.638-9.862-29.47-15.509-46.358-15.509-51.206 0-92.716 51.888-92.716 115.895v97.352c0 10.241 8.302 18.543 18.543 18.543 10.241 0 18.543-8.302 18.543-18.543v-78.809c0-10.241 8.302-18.543 18.543-18.543 10.241 0 18.543 8.302 18.543 18.543v78.809c0 10.241 8.302 18.543 18.543 18.543 10.241 0 18.543-8.302 18.543-18.543v-27.808c-11.641-19.371-18.542-43.449-18.542-69.543z" fill="#c4e2fe"/></g></g><g><g><path d="m297.207 359.651c-4.142 0-7.5-3.357-7.5-7.5v-9.897c0-4.143 3.358-7.5 7.5-7.5s7.5 3.357 7.5 7.5v9.897c0 4.143-3.358 7.5-7.5 7.5z" fill="#6e6e6e"/></g><g><path d="m400.226 359.651c-4.142 0-7.5-3.357-7.5-7.5v-9.897c0-4.143 3.358-7.5 7.5-7.5s7.5 3.357 7.5 7.5v9.897c0 4.143-3.358 7.5-7.5 7.5z" fill="#6e6e6e"/></g><g><path d="m348.716 365.544c-7.373 0-14.383-3.193-19.234-8.761-2.721-3.122-2.396-7.86.727-10.581 3.123-2.722 7.86-2.396 10.582.728 2.002 2.297 4.891 3.614 7.926 3.614s5.924-1.317 7.926-3.614c2.721-3.125 7.458-3.449 10.582-.728 3.123 2.721 3.448 7.459.727 10.581-4.852 5.568-11.863 8.761-19.236 8.761z" fill="#6e6e6e"/></g></g></g></svg>