<svg id="Capa_1" enable-background="new 0 0 512 512" height="512" viewBox="0 0 512 512" width="512" xmlns="http://www.w3.org/2000/svg"><g><g><path d="m408.982 512h-305.964c-56.895 0-103.018-46.123-103.018-103.018v-305.964c0-56.895 46.123-103.018 103.018-103.018h305.964c56.895 0 103.018 46.123 103.018 103.018v305.964c0 56.895-46.123 103.018-103.018 103.018z" fill="#f7f0eb"/></g><g><path d="m235.396 491.396c0-11.379 9.225-20.604 20.604-20.604v-429.585c-11.379 0-20.604-9.225-20.604-20.604s9.225-20.603 20.604-20.603h-152.982c-56.895 0-103.018 46.123-103.018 103.018v305.964c0 56.895 46.123 103.018 103.018 103.018h152.982c-11.379 0-20.604-9.225-20.604-20.604z" fill="#efe2dd"/></g><g><path d="m103.018 470.793c-34.082 0-61.811-27.728-61.811-61.811v-305.964c0-34.082 27.728-61.811 61.811-61.811h305.964c34.082 0 61.811 27.728 61.811 61.811v305.964c0 34.082-27.728 61.811-61.811 61.811z" fill="#838383"/></g><g><path d="m123.622 408.982v-305.964c0-34.082 27.728-61.811 61.811-61.811h-82.414c-34.082 0-61.811 27.728-61.811 61.811v305.964c0 34.082 27.728 61.811 61.811 61.811h82.414c-34.083 0-61.811-27.729-61.811-61.811z" fill="#6e6e6e"/></g><g><path d="m389.151 430.358h-72.113c-22.758 0-41.207-18.449-41.207-41.207v-72.113c0-22.758 18.449-41.207 41.207-41.207h72.113c22.758 0 41.207 18.449 41.207 41.207v72.113c0 22.758-18.449 41.207-41.207 41.207z" fill="#fdb3cd"/></g><g><path d="m327.34 389.151v-72.113c0-22.758 18.449-41.207 41.207-41.207h-51.509c-22.758 0-41.207 18.449-41.207 41.207v72.113c0 22.758 18.449 41.207 41.207 41.207h51.509c-22.758 0-41.207-18.449-41.207-41.207z" fill="#fda0c1"/></g><g><circle cx="158.905" cy="158.905" fill="#c4e2fe" r="77.264"/></g><g><path d="m158.905 158.905c0-28.593 15.544-53.54 38.632-66.901-11.367-6.578-24.554-10.362-38.632-10.362-42.671 0-77.264 34.592-77.264 77.264s34.592 77.264 77.264 77.264c14.078 0 27.265-3.784 38.632-10.362-23.087-13.362-38.632-38.309-38.632-66.903z" fill="#b0d8fd"/></g><g><path d="m277.305 211.664 66.868-115.819c3.965-6.868 13.878-6.868 17.843 0l66.868 115.819c3.965 6.868-.991 15.453-8.922 15.453h-133.736c-7.93 0-12.886-8.585-8.921-15.453z" fill="#9edcae"/></g><g><path d="m412.94 184.048c-5.422 1.205-11.051 1.862-16.836 1.862-34.183 0-63.161-22.207-73.346-52.974l-45.454 78.729c-3.965 6.868.991 15.453 8.922 15.453h133.736c7.93 0 12.887-8.585 8.922-15.453z" fill="#7fd196"/></g><g><path d="m168.144 284.851 15.894 32.205c1.501 3.041 4.402 5.148 7.757 5.636l35.541 5.164c8.451 1.228 11.825 11.613 5.71 17.573l-25.717 25.068c-2.428 2.367-3.536 5.777-2.963 9.119l6.071 35.397c1.444 8.416-7.39 14.835-14.949 10.861l-31.788-16.711c-3.001-1.578-6.587-1.578-9.589 0l-31.788 16.712c-7.558 3.974-16.392-2.445-14.949-10.861l6.071-35.397c.573-3.342-.535-6.752-2.963-9.119l-25.718-25.068c-6.115-5.961-2.741-16.345 5.71-17.573l35.541-5.164c3.356-.488 6.257-2.595 7.757-5.636l15.894-32.205c3.78-7.659 14.699-7.659 18.478-.001z" fill="#fff2b4"/></g><g><path d="m204.366 379.617c-.167-.973-.175-1.949-.066-2.907-35.019-.239-64.484-23.772-73.711-55.88-1.332.968-2.897 1.617-4.575 1.861l-35.541 5.164c-8.451 1.228-11.825 11.613-5.71 17.573l25.717 25.068c2.428 2.367 3.536 5.777 2.963 9.119l-6.071 35.397c-1.444 8.416 7.39 14.835 14.949 10.861l31.788-16.712c3.002-1.578 6.587-1.578 9.589 0l31.788 16.712c7.558 3.974 16.392-2.445 14.949-10.861z" fill="#ffdf8e"/></g></g></svg>