<svg id="Capa_1" enable-background="new 0 0 512 512" height="512" viewBox="0 0 512 512" width="512" xmlns="http://www.w3.org/2000/svg"><g><g><path d="m209.642 235.735c0-28.917 12.13-85.317 14.891-117.317.371-3.624.562-7.301.562-11.022 0-59.218-48.178-107.396-107.397-107.396s-107.396 48.178-107.396 107.396c0 3.721.191 7.397.562 11.022 2.76 32.001 14.891 88.4 14.891 117.317 0 32.627-25.755 94.953-25.755 158.567 0 64.899 52.799 117.698 117.698 117.698s117.698-52.799 117.698-117.698c0-63.614-25.754-125.94-25.754-158.567z" fill="#fff2b4"/></g><g><path d="m69.537 372.41c0-121.046 48.161-198.825 48.161-198.825v-132.378c-11.379 0-20.604-9.225-20.604-20.604s9.225-20.603 20.604-20.603c-59.218 0-107.396 48.178-107.396 107.396 0 3.721.191 7.397.562 11.022 2.76 32.001 14.891 88.4 14.891 117.317 0 32.627-25.755 94.953-25.755 158.567 0 64.899 52.799 117.698 117.698 117.698 0 0-48.161-18.543-48.161-139.59z" fill="#ffdf8e"/></g><g><circle cx="117.698" cy="107.396" fill="#ffcd6e" r="66.189"/></g><g><path d="m188.552 110.225c-37.728 0-70.854 64.66-70.854 64.66s-33.125-64.66-70.854-64.66c-15.029 0-30.723 34.859-30.723 69.718h101.576 101.576c.002-34.859-15.692-69.718-30.721-69.718z" fill="#fc90b4"/></g><g><path d="m46.844 285.258c37.728 0 70.854-64.66 70.854-64.66s33.125 64.66 70.854 64.66c15.029 0 30.723-34.859 30.723-69.718h-101.577-101.576c0 34.858 15.693 69.718 30.722 69.718z" fill="#fc90b4"/></g><g><path d="m211.088 135.786c-32.411 0-93.39 45.918-93.39 45.918s-60.978-45.918-93.39-45.918-32.412 123.911 0 123.911c32.411 0 93.39-45.918 93.39-45.918s60.978 45.918 93.39 45.918c32.411 0 32.411-123.911 0-123.911z" fill="#fda0c1"/></g><g><circle cx="117.698" cy="197.741" fill="#fdb3cd" r="40.896"/></g><g><path d="m486.245 235.735c0-28.917 12.13-85.317 14.891-117.317.371-3.624.562-7.301.562-11.022 0-59.218-48.178-107.396-107.396-107.396s-107.397 48.178-107.397 107.396c0 3.721.191 7.397.562 11.022 2.76 32.001 14.891 88.4 14.891 117.317 0 32.627-25.755 94.953-25.755 158.567 0 64.899 52.799 117.698 117.698 117.698s117.699-52.799 117.699-117.698c0-63.614-25.755-125.94-25.755-158.567z" fill="#fff2b4"/></g><g><path d="m346.141 372.41c0-121.046 48.161-198.825 48.161-198.825v-132.378c-11.379 0-20.604-9.225-20.604-20.604s9.225-20.603 20.604-20.603c-59.218 0-107.396 48.178-107.396 107.396 0 3.721.191 7.397.562 11.022 2.76 32.001 14.891 88.4 14.891 117.317 0 32.627-25.755 94.953-25.755 158.567 0 64.899 52.799 117.698 117.698 117.698 0 0-48.161-18.543-48.161-139.59z" fill="#ffdf8e"/></g><g><circle cx="394.302" cy="107.396" fill="#ffcd6e" r="66.189"/></g><g><path d="m465.156 110.225c-37.728 0-70.854 64.66-70.854 64.66s-33.125-64.66-70.854-64.66c-15.029 0-30.723 34.859-30.723 69.718h101.576 101.576c.001-34.859-15.692-69.718-30.721-69.718z" fill="#fc90b4"/></g><g><path d="m323.448 285.258c37.728 0 70.854-64.66 70.854-64.66s33.125 64.66 70.854 64.66c15.029 0 30.723-34.859 30.723-69.718h-101.577-101.577c0 34.858 15.694 69.718 30.723 69.718z" fill="#fc90b4"/></g><g><path d="m487.691 135.786c-32.411 0-93.39 45.918-93.39 45.918s-60.978-45.918-93.39-45.918-32.412 123.911 0 123.911c32.411 0 93.39-45.918 93.39-45.918s60.978 45.918 93.39 45.918 32.412-123.911 0-123.911z" fill="#fda0c1"/></g><g><circle cx="394.302" cy="197.741" fill="#fdb3cd" r="40.896"/></g></g></svg>