<svg id="Capa_1" enable-background="new 0 0 512 512" height="512" viewBox="0 0 512 512" width="512" xmlns="http://www.w3.org/2000/svg"><g><g><path d="m425.98 192.675v61.811h-169.98l-87.565-31.843-82.415-29.968c0-15.339 3.42-30.287 9.797-43.845s15.71-25.724 27.526-35.5c16.112-13.351 27.217-31.771 31.493-52.251l8.447-40.476h185.433l8.447 40.476c2.143 10.24 5.985 19.965 11.311 28.794 5.316 8.839 12.125 16.782 20.181 23.457 23.644 19.563 37.325 48.656 37.325 79.345z" fill="#c4e2fe"/></g><g><path d="m245.698 20.604-8.447 40.476c-2.143 10.24-5.985 19.965-11.311 28.794-5.316 8.839-12.125 16.782-20.181 23.457-23.643 19.563-37.323 48.655-37.323 79.345v29.968l-82.416-29.969c0-15.339 3.42-30.287 9.797-43.845s15.71-25.724 27.526-35.5c16.112-13.351 27.217-31.771 31.493-52.251l8.447-40.476h82.415z" fill="#b0d8fd"/></g><g><path d="m348.716 41.207h-185.432c-11.379 0-20.604-9.225-20.604-20.604 0-11.378 9.225-20.603 20.604-20.603h185.433c11.379 0 20.604 9.225 20.604 20.604-.001 11.379-9.226 20.603-20.605 20.603z" fill="#dceefe"/></g><g><path d="m225.095 20.604c0-11.379 9.224-20.604 20.603-20.604h-82.414c-11.379 0-20.604 9.225-20.604 20.604 0 11.379 9.225 20.604 20.604 20.604h82.414c-11.379-.001-20.603-9.225-20.603-20.604z" fill="#c4e2fe"/></g><g><path d="m189.038 512h133.924c56.895 0 103.018-46.123 103.018-103.018v-154.495c-169.98 0-169.98-61.811-339.96-61.811v216.305c0 56.896 46.123 103.019 103.018 103.019z" fill="#f7f0eb"/></g><g><path d="m168.435 408.982v-210.196c-22.707-3.769-49.342-6.11-82.414-6.11v216.305c-.001 56.896 46.122 103.019 103.017 103.019h82.415c-56.896 0-103.018-46.123-103.018-103.018z" fill="#efe2dd"/></g><g><g><g><ellipse cx="173.951" cy="360.856" fill="#fda0c1" rx="30.274" ry="24.109"/></g><g><ellipse cx="338.049" cy="360.856" fill="#fda0c1" rx="30.274" ry="24.109"/></g><g><path d="m280.409 342.333c0-15.085-10.928-16.502-24.409-16.502s-24.409 1.417-24.409 16.502 10.928 27.313 24.409 27.313 24.409-12.229 24.409-27.313z" fill="#6e6e6e"/></g></g><g><path d="m179.013 339.573c-4.143 0-7.5-3.357-7.5-7.5v-12.362c0-4.143 3.357-7.5 7.5-7.5s7.5 3.357 7.5 7.5v12.362c0 4.143-3.358 7.5-7.5 7.5z" fill="#6e6e6e"/></g><g><path d="m332.987 339.573c-4.143 0-7.5-3.357-7.5-7.5v-12.362c0-4.143 3.357-7.5 7.5-7.5s7.5 3.357 7.5 7.5v12.362c0 4.143-3.357 7.5-7.5 7.5z" fill="#6e6e6e"/></g></g></g></svg>