<svg id="Capa_1" enable-background="new 0 0 512 512" height="512" viewBox="0 0 512 512" width="512" xmlns="http://www.w3.org/2000/svg"><g><g><path d="m270.585 270.555-29.14-29.14-235.41 235.41c-3.864 3.865-6.035 9.106-6.035 14.57 0 11.38 9.225 20.605 20.605 20.605 5.465 0 10.706-2.171 14.57-6.035z" fill="#dceefe"/></g><g><path d="m241.445 241.416-190.535 190.534c3.864-3.864 9.105-6.035 14.57-6.035 11.38 0 20.605 9.225 20.605 20.605 0 5.465-2.171 10.706-6.035 14.57l190.535-190.535z" fill="#c4e2fe"/></g><g><path d="m321.201 77.533h144.111v82.419h-144.111z" fill="#c4e2fe" transform="matrix(.707 -.707 .707 .707 31.218 312.854)"/></g><g><path d="m306.632 83.568h144.111v41.21h-144.111z" fill="#b0d8fd" transform="matrix(.707 -.707 .707 .707 37.253 298.284)"/></g><g><path d="m505.965 129.549c8.047-8.047 8.047-21.093 0-29.14l-94.375-94.374c-8.047-8.047-21.093-8.047-29.14 0-8.047 8.047-8.047 21.093 0 29.14l94.375 94.375c8.047 8.046 21.093 8.046 29.14-.001z" fill="#dceefe"/></g><g><path d="m429.638 53.222c8.047-8.047 21.093-8.047 29.14 0l-47.188-47.187c-8.047-8.047-21.093-8.046-29.14 0-8.047 8.047-8.047 21.093 0 29.139l47.187 47.187c-8.045-8.046-8.046-21.092.001-29.139z" fill="#c4e2fe"/></g><g><path d="m415.155 242.543-145.698-145.698-189.407 189.407c-16.093 16.093-16.093 42.186 0 58.279l87.419 87.419c16.093 16.093 42.186 16.093 58.279 0z" fill="#fff2b4"/></g><g><path d="m138.329 344.532 189.407-189.407-58.279-58.279-189.407 189.406c-16.093 16.093-16.093 42.186 0 58.279l58.279 58.279c-16.093-16.093-16.094-42.185 0-58.278z" fill="#ffdf8e"/></g><g><path d="m451.579 278.967c8.047-8.047 8.047-21.093 0-29.14l-189.407-189.406c-8.047-8.047-21.093-8.047-29.14 0-8.047 8.047-8.047 21.093 0 29.14l189.408 189.406c8.047 8.047 21.093 8.047 29.139 0z" fill="#dceefe"/></g><g><path d="m298.597 125.985c8.047-8.047 21.093-8.047 29.14 0l-65.564-65.564c-8.047-8.047-21.093-8.047-29.14 0-8.047 8.047-8.047 21.093 0 29.14l65.564 65.564c-8.047-8.047-8.047-21.094 0-29.14z" fill="#c4e2fe"/></g><g><g><g><ellipse cx="170.892" cy="353.56" fill="#fda0c1" rx="31.873" ry="25.382" transform="matrix(.707 -.707 .707 .707 -199.951 224.395)"/></g><g><ellipse cx="293.055" cy="231.397" fill="#fda0c1" rx="31.873" ry="25.382" transform="matrix(.707 -.707 .707 .707 -77.789 274.996)"/></g><g><ellipse cx="218.184" cy="278.688" fill="#6e6e6e" rx="16.919" ry="18.933" transform="matrix(.707 -.707 .707 .707 -133.158 235.907)"/></g></g><g><path d="m153.001 335.634c-1.919 0-3.839-.732-5.303-2.197l-8.742-8.742c-2.929-2.929-2.929-7.678 0-10.606s7.678-2.929 10.606.001l8.742 8.742c2.929 2.929 2.929 7.678 0 10.606-1.464 1.463-3.384 2.196-5.303 2.196z" fill="#6e6e6e"/></g><g><path d="m267.629 221.007c-1.919 0-3.839-.732-5.303-2.197l-8.742-8.742c-2.929-2.929-2.929-7.678 0-10.606s7.678-2.929 10.606.001l8.742 8.742c2.929 2.929 2.929 7.678 0 10.606-1.464 1.463-3.384 2.196-5.303 2.196z" fill="#6e6e6e"/></g></g></g></svg>