<svg id="Capa_1" enable-background="new 0 0 512 512" height="512" viewBox="0 0 512 512" width="512" xmlns="http://www.w3.org/2000/svg"><g><g><circle cx="388.204" cy="77.108" fill="#d98263" r="77.108"/></g><g><path d="m333.68 131.632c30.113 30.113 78.935 30.113 109.048 0-6.022 6.022-15.787 6.023-21.81 0s-6.022-15.787 0-21.81l-65.428-65.428c-6.022 6.022-15.787 6.023-21.81 0s-6.022-15.787 0-21.81c-30.112 30.113-30.112 78.936 0 109.048z" fill="#c4715a"/></g><g><circle cx="388.204" cy="77.108" fill="#ffcebf" r="46.265"/></g><g><circle cx="123.796" cy="77.108" fill="#d98263" r="77.108"/></g><g><path d="m178.32 131.632c30.113-30.113 30.113-78.935 0-109.048 6.022 6.022 6.023 15.787 0 21.81s-15.787 6.022-21.81 0l-65.429 65.429c6.022 6.022 6.023 15.787 0 21.81s-15.787 6.022-21.81 0c30.114 30.112 78.936 30.112 109.049-.001z" fill="#c4715a"/></g><g><circle cx="123.796" cy="77.108" fill="#ffcebf" r="46.265"/></g><g><g><path d="m299.673 389.638c-2.724-.976-5.485-1.856-8.285-2.647-11.251-3.196-23.122-4.915-35.388-4.915-71.624 0-129.924 58.312-129.924 129.924h259.849c-.001-55.826-35.607-104.23-86.252-122.362z" fill="#d98263"/></g></g><g><path d="m281.653 384.645c-8.295-1.674-16.87-2.57-25.653-2.57-71.624 0-129.924 58.311-129.924 129.924h51.406c-.001-62.799 44.835-115.365 104.171-127.354z" fill="#c4715a"/></g><g><g><path d="m256 77.108c-102.878 0-186.277 83.399-186.277 186.277s83.399 132.323 186.277 132.323 186.277-29.445 186.277-132.323-83.399-186.277-186.277-186.277z" fill="#eb9b81"/></g></g><g><path d="m121.129 263.385c0-94.156 69.862-171.981 160.574-184.503-8.403-1.16-16.981-1.773-25.703-1.773-102.878 0-186.277 83.399-186.277 186.277s83.399 132.323 186.277 132.323c8.722 0 17.3-.218 25.703-.668-90.713-4.86-160.574-37.5-160.574-131.656z" fill="#d98263"/></g><g><circle cx="256" cy="294.554" fill="#ffdfcf" r="61.687"/></g><g><path d="m235.438 294.554c0-26.857 17.168-49.693 41.124-58.163-6.433-2.275-13.35-3.524-20.562-3.524-34.069 0-61.687 27.618-61.687 61.687s27.618 61.687 61.687 61.687c7.212 0 14.129-1.25 20.562-3.524-23.956-8.47-41.124-31.306-41.124-58.163z" fill="#ffcebf"/></g><g><path d="m284.273 232.867c0 15.615-12.658 28.273-28.273 28.273s-28.273-12.658-28.273-28.273 12.658-17.992 28.273-17.992 28.273 2.378 28.273 17.992z" fill="#d98263"/></g><g><path d="m256 232.867c0-10.463 5.688-14.978 14.137-16.821-4.16-.908-8.985-1.171-14.137-1.171-15.615 0-28.273 2.377-28.273 17.992s12.658 28.273 28.273 28.273c5.152 0 9.977-1.385 14.137-3.792-8.449-4.888-14.137-14.017-14.137-24.481z" fill="#c4715a"/></g><g><g><g><ellipse cx="174.116" cy="232.047" fill="#fff" rx="30.214" ry="24.06"/></g><g><ellipse cx="337.884" cy="232.047" fill="#fff" rx="30.213" ry="24.06"/></g></g><g><path d="m179.167 210.821c-4.142 0-7.5-3.357-7.5-7.5v-12.337c0-4.143 3.358-7.5 7.5-7.5s7.5 3.357 7.5 7.5v12.337c0 4.143-3.358 7.5-7.5 7.5z" fill="#6e6e6e"/></g><g><path d="m332.833 210.821c-4.142 0-7.5-3.357-7.5-7.5v-12.337c0-4.143 3.358-7.5 7.5-7.5s7.5 3.357 7.5 7.5v12.337c0 4.143-3.358 7.5-7.5 7.5z" fill="#6e6e6e"/></g></g></g></svg>