<svg id="Capa_1" enable-background="new 0 0 512 512" height="512" viewBox="0 0 512 512" width="512" xmlns="http://www.w3.org/2000/svg"><g><g><path d="m370.349 64.49c-23.714 0-46.064 5.829-65.7 16.131-30.531 16.018-66.768 16.018-97.299 0-19.636-10.302-41.986-16.131-65.7-16.131-78.223 0-141.275 62.735-141.649 140.957-.375 78.549 63.187 142.343 141.649 142.343 23.775 0 46.18-5.859 65.852-16.211 30.405-15.999 66.591-15.999 96.996 0 19.672 10.352 42.077 16.211 65.852 16.211 78.462 0 142.024-63.794 141.648-142.343-.374-78.222-63.426-140.957-141.649-140.957z" fill="#9ccefd"/></g><g><g><path d="m82.416 205.447c.306-63.842 42.364-117.36 100.343-134.882-13.012-3.942-26.809-6.074-41.109-6.074-78.222-.001-141.274 62.734-141.648 140.956-.376 78.549 63.186 142.343 141.648 142.343 14.331 0 28.158-2.142 41.195-6.101-58.335-17.716-100.736-72.047-100.429-136.242z" fill="#72bafd"/></g></g><g><g><path d="m256 189.713c-83.244 0-150.727 67.483-150.727 150.727s67.483 107.07 150.727 107.07 150.727-23.825 150.727-107.07c0-83.244-67.483-150.727-150.727-150.727zm85.383 200.141c-18.195 10.914-46.922 16.448-85.383 16.448s-67.189-5.534-85.383-16.448c-11.936-7.159-24.137-18.629-24.137-49.414 0-60.39 49.13-109.52 109.52-109.52s109.52 49.13 109.52 109.52c0 30.785-12.201 42.255-24.137 49.414z" fill="#dceefe"/></g></g><g><path d="m235.396 426.906c0-11.379 9.225-20.604 20.604-20.604-38.461 0-67.189-5.534-85.383-16.448-11.936-7.159-24.137-18.629-24.137-49.414 0-60.39 49.13-109.52 109.52-109.52v-41.207c-83.244 0-150.727 67.483-150.727 150.727s67.483 107.07 150.727 107.07c-11.379 0-20.604-9.225-20.604-20.604z" fill="#c4e2fe"/></g><g><circle cx="256" cy="206.14" fill="#fff2b4" r="77.264"/></g><g><path d="m256 206.14c0-28.593 15.544-53.54 38.632-66.901-11.367-6.578-24.554-10.362-38.632-10.362-42.671 0-77.264 34.592-77.264 77.264s34.592 77.264 77.264 77.264c14.078 0 27.265-3.784 38.632-10.362-23.088-13.362-38.632-38.309-38.632-66.903z" fill="#ffdf8e"/></g></g></svg>