<svg id="Capa_1" enable-background="new 0 0 512 512" height="512" viewBox="0 0 512 512" width="512" xmlns="http://www.w3.org/2000/svg"><g><g><path d="m213.574 263.915h-103.018v-263.915h56.66c25.603 0 46.358 20.755 46.358 46.358z" fill="#b0d8fd"/></g><g><path d="m110.556 263.915v-233.01h56.66c8.521 0 15.453 6.932 15.453 15.453v217.557z" fill="#fdb3cd"/></g><g><path d="m298.426 263.915h103.018v-263.915h-56.66c-25.603 0-46.358 20.755-46.358 46.358z" fill="#b0d8fd"/></g><g><path d="m401.444 263.915v-233.01h-56.66c-8.534 0-15.453 6.918-15.453 15.453v217.557z" fill="#fdb3cd"/></g><g><g><path d="m299.761 389.392c-2.729-.978-5.496-1.859-8.301-2.652-11.274-3.202-23.168-4.925-35.46-4.925-71.768 0-130.186 58.429-130.186 130.186h260.372c0-55.939-35.678-104.441-86.425-122.609z" fill="#c4e2fe"/></g></g><g><path d="m281.705 384.389c-8.312-1.677-16.904-2.575-25.705-2.575-71.768 0-130.186 58.429-130.186 130.186h51.509c0-62.926 44.926-115.599 104.382-127.611z" fill="#b0d8fd"/></g><g><g><path d="m256 76.233c-103.085 0-186.651 83.567-186.651 186.651 0 103.085 83.567 132.589 186.651 132.589s186.652-29.504 186.652-132.589c0-103.084-83.567-186.651-186.652-186.651z" fill="#dceefe"/></g></g><g><path d="m120.858 262.885c0-94.345 70.002-172.327 160.897-184.874-8.42-1.162-17.015-1.777-25.755-1.777-103.085 0-186.651 83.567-186.651 186.651 0 103.085 83.567 132.589 186.651 132.589 8.74 0 17.335-.218 25.755-.669-90.895-4.869-160.897-37.575-160.897-131.92z" fill="#c4e2fe"/></g><g><circle cx="256" cy="294.117" fill="#fff" r="61.811"/></g><g><path d="m235.396 294.117c0-26.911 17.203-49.793 41.207-58.28-6.446-2.279-13.377-3.531-20.604-3.531-34.137 0-61.811 27.674-61.811 61.811s27.674 61.811 61.811 61.811c7.226 0 14.158-1.252 20.604-3.531-24.004-8.488-41.207-31.37-41.207-58.28z" fill="#c4e2fe"/></g><g><path d="m284.33 232.306c0 15.646-12.684 28.33-28.33 28.33s-28.33-12.684-28.33-28.33 12.684-18.028 28.33-18.028 28.33 2.382 28.33 18.028z" fill="#838383"/></g><g><path d="m256 232.306c0-10.484 5.7-15.008 14.165-16.855-4.168-.909-9.003-1.173-14.165-1.173-15.646 0-28.33 2.382-28.33 18.028s12.684 28.33 28.33 28.33c5.162 0 9.997-1.387 14.165-3.8-8.465-4.899-14.165-14.046-14.165-24.53z" fill="#6e6e6e"/></g><g><g><g><ellipse cx="173.951" cy="231.483" fill="#fda0c1" rx="30.274" ry="24.109"/></g><g><ellipse cx="338.049" cy="231.483" fill="#fda0c1" rx="30.274" ry="24.109"/></g></g><g><path d="m179.013 210.2c-4.143 0-7.5-3.357-7.5-7.5v-12.362c0-4.143 3.357-7.5 7.5-7.5s7.5 3.357 7.5 7.5v12.362c0 4.143-3.358 7.5-7.5 7.5z" fill="#6e6e6e"/></g><g><path d="m332.987 210.2c-4.143 0-7.5-3.357-7.5-7.5v-12.362c0-4.143 3.357-7.5 7.5-7.5s7.5 3.357 7.5 7.5v12.362c0 4.143-3.357 7.5-7.5 7.5z" fill="#6e6e6e"/></g></g><g><path d="m74.499 0c-25.603 0-46.358 20.755-46.358 46.358v119.69c0 25.603 20.755 46.358 46.358 46.358 25.603 0 46.358-20.755 46.358-46.358v-119.69c.001-25.603 20.756-46.358 46.359-46.358z" fill="#c4e2fe"/></g><g><g><path d="m74.499 129.991c-25.603 0-46.358-20.755-46.358-46.358v82.414c0 25.603 20.755 46.358 46.358 46.358 25.603 0 46.358-20.755 46.358-46.358v-82.414c.001 25.603-20.755 46.358-46.358 46.358z" fill="#b0d8fd"/></g></g><g><path d="m437.501 0c25.603 0 46.358 20.755 46.358 46.358v119.69c0 25.603-20.755 46.358-46.358 46.358-25.603 0-46.358-20.755-46.358-46.358v-119.69c-.001-25.603-20.756-46.358-46.359-46.358z" fill="#c4e2fe"/></g><g><g><path d="m437.501 129.991c-25.603 0-46.358-20.755-46.358-46.358v82.414c0 25.603 20.755 46.358 46.358 46.358 25.603 0 46.358-20.755 46.358-46.358v-82.414c0 25.603-20.755 46.358-46.358 46.358z" fill="#b0d8fd"/></g></g></g></svg>