<svg id="Capa_1" enable-background="new 0 0 512 512" height="512" viewBox="0 0 512 512" width="512" xmlns="http://www.w3.org/2000/svg"><g><g><path d="m149.646 274.939-144.662 196.328c-3.237 4.394-4.984 9.708-4.984 15.166 0 14.12 11.446 25.567 25.566 25.567 5.458 0 10.772-1.746 15.166-4.984l196.328-144.663z" fill="#dceefe"/></g><g><path d="m149.646 274.939-70.416 95.566c17.282-16.075 44.323-15.71 61.149 1.116s17.191 43.867 1.116 61.149l95.565-70.417z" fill="#c4e2fe"/></g><g><path d="m466.74 263.644c59.911-59.911 60.344-156.778 1.297-217.222-58.978-60.374-156.357-62.102-217.338-3.751-26.279 25.146-41.71 57.213-46.295 90.488-6.645 48.222-28.149 93.169-62.57 127.59l-3.114 3.114 109.267 109.267 3.115-3.115c33.988-33.988 78.132-56.321 125.821-62.335 32.838-4.142 64.601-18.82 89.817-44.036z" fill="#fda0c1"/></g><g><path d="m255.395 184.15c4.586-33.275 20.017-65.343 46.295-90.488 51.585-49.361 129.213-55.725 187.611-19.97-5.928-9.668-13.015-18.825-21.265-27.271-58.979-60.375-156.357-62.102-217.338-3.751-26.279 25.146-41.71 57.213-46.295 90.488-6.645 48.222-28.149 93.169-62.57 127.59l-3.114 3.114 50.991 50.991 3.114-3.114c34.421-34.42 55.926-79.367 62.571-127.589z" fill="#fc90b4"/></g><g><path d="m237.06 391.341-116.551-116.552c-8.046-8.046-8.046-21.092 0-29.138 8.046-8.046 21.092-8.046 29.138 0l116.552 116.552c8.046 8.046 8.046 21.092 0 29.138-8.047 8.046-21.092 8.046-29.139 0z" fill="#fdb3cd"/></g><g><path d="m171.5 296.642c8.046-8.046 21.092-8.046 29.138 0l-50.991-50.991c-8.046-8.046-21.092-8.046-29.138 0s-8.046 21.092 0 29.138l50.991 50.991c-8.046-8.046-8.046-21.091 0-29.138z" fill="#fda0c1"/></g><g><path d="m458.279 279.389-225.819-225.819c-8.046-8.046-8.046-21.092 0-29.138 8.046-8.046 21.092-8.046 29.138 0l225.819 225.819c8.046 8.046 8.046 21.092 0 29.138-8.046 8.046-21.092 8.046-29.138 0z" fill="#fdb3cd"/></g><g><path d="m283.452 75.424c8.046-8.046 21.092-8.046 29.138 0l-50.991-50.991c-8.046-8.046-21.092-8.046-29.138 0s-8.046 21.092 0 29.138l50.991 50.991c-8.046-8.047-8.046-21.092 0-29.138z" fill="#fda0c1"/></g></g></svg>