<svg height="512" viewBox="0 0 64 64" width="512" xmlns="http://www.w3.org/2000/svg"><rect fill="#fcd6e7" height="46" rx="2" width="58" x="3" y="3"/><path d="m3 11h58v28h-58z" fill="#eb9198"/><path d="m27 49h10l4 8h-18z" fill="#6f8099"/><g fill="#9aa5a6"><path d="m14 57h36v4h-36z"/><path d="m3 43h58a0 0 0 0 1 0 0v4a2 2 0 0 1 -2 2h-54a2 2 0 0 1 -2-2v-4a0 0 0 0 1 0 0z"/><path d="m5 3h54a2 2 0 0 1 2 2v2a0 0 0 0 1 0 0h-58a0 0 0 0 1 0 0v-2a2 2 0 0 1 2-2z"/></g><path d="m10 15h8v8h-8z" fill="#fcd6e7"/><path d="m22 15h8v8h-8z" fill="#cd4b4c"/><path d="m34 15h8v8h-8z" fill="#fcd6e7"/><path d="m46 15h8v8h-8z" fill="#cd4b4c"/><path d="m10 27h8v8h-8z" fill="#cd4b4c"/><path d="m22 27h8v8h-8z" fill="#fcd6e7"/><path d="m34 27h8v8h-8z" fill="#cd4b4c"/><path d="m46 27h8v8h-8z" fill="#fcd6e7"/></svg>