<svg id="Capa_1" enable-background="new 0 0 497 497" height="512" viewBox="0 0 497 497" width="512" xmlns="http://www.w3.org/2000/svg"><g><g><g><path d="m474.255 368.208h-451.51c-12.562 0-22.745-10.184-22.745-22.745v-275.15c0-12.562 10.183-22.745 22.745-22.745h451.511c12.561 0 22.745 10.183 22.745 22.745v275.15c-.001 12.561-10.184 22.745-22.746 22.745z" fill="#ddebfd"/></g></g><g><g><path d="m474.255 47.568h-30c12.561 0 22.745 10.183 22.745 22.745v275.15c0 12.562-10.183 22.745-22.745 22.745h30c12.561 0 22.745-10.183 22.745-22.745v-275.15c0-12.562-10.183-22.745-22.745-22.745z" fill="#bed9fd"/></g></g><g><g><path d="m0 304.928v40.535c0 12.561 10.183 22.745 22.745 22.745h451.511c12.561 0 22.745-10.183 22.745-22.745v-40.535z" fill="#e3e0e4"/></g></g><g><g><path d="m467 304.927v40.535c0 12.562-10.183 22.745-22.745 22.745h30c12.561 0 22.745-10.183 22.745-22.745v-40.535z" fill="#d4cfd5"/></g></g><g><g><path d="m314.678 441.932h-132.356l10-73.724h112.356z" fill="#b5adb7"/></g></g><g><g><path d="m304.678 368.208h-30l10 73.724h30z" fill="#a59da7"/></g></g><g><g><path d="m336.365 235.12h.001l18.243-3.198z" fill="#61aab8"/></g></g><g><g><path d="m301.065 206.464-50.26-43.333-11.174-20.533c-3.739-6.87-10.894-11.141-18.667-11.141h-26.671c-3.44 0-7.774 2.789-11.728 6.124l-36.895-.175v74.77h21.663l24.578 18.572c32.439 24.512 78.677 17.64 102.585-15.246z" fill="#ffc7b5"/></g></g><g><g><path d="m152.634 232.12-46.775-8.2c-4.335-.76-7.232-4.89-6.472-9.224l16.987-96.897c.76-4.335 4.89-7.232 9.224-6.472l46.775 8.2c4.335.76 7.232 4.89 6.473 9.224l-16.988 96.897c-.759 4.334-4.889 7.232-9.224 6.472z" fill="#92e0c4"/></g></g><g><g><path d="m172.374 119.526-21.476-3.765c.036.607.011 1.225-.099 1.85l-18.046 102.934c-.76 4.335-4.89 7.232-9.224 6.473l29.105 5.102c4.335.76 8.465-2.138 9.225-6.473l16.987-96.898c.76-4.333-2.138-8.463-6.472-9.223z" fill="#77d1b3"/></g></g><g><g><path d="m339.228 449.432h-187.028c-4.143 0-7.5-3.358-7.5-7.5s3.357-7.5 7.5-7.5h187.028c4.143 0 7.5 3.358 7.5 7.5s-3.357 7.5-7.5 7.5z" fill="#a59da7"/></g></g><g><g><path d="m315.436 152.523s-17.564-21.327-28.227-21.327h-33.226c-9.683 0-18.597 5.277-23.255 13.766l-27.954 50.948c-1.804 3.288.087 7.413 3.769 8.129 7.272 1.414 18.673 2 27.347-5.097 13.8-11.291 21.328-20.7 21.328-20.7l4.419 3.929c23.024 20.467 49.303 36.948 77.754 48.763l-.562-77.894c0-.002-21.045-.17-21.393-.517z" fill="#ffd4c6"/></g></g><g><g><path d="m336.366 235.12 46.775-8.2c4.335-.76 7.232-4.89 6.473-9.224l-16.988-96.897c-.76-4.335-4.89-7.232-9.224-6.472l-46.775 8.2c-4.335.76-7.232 4.89-6.473 9.224l16.988 96.897c.759 4.334 4.889 7.232 9.224 6.472z" fill="#92e0c4"/></g></g><g><g><path d="m389.613 217.696-16.988-96.898c-.76-4.334-4.89-7.232-9.224-6.472l-46.775 8.2 18.476-3.239c4.335-.76 8.464 2.138 9.224 6.473l16.987 96.897c.76 4.335-2.138 8.464-6.473 9.224l28.299-4.961c4.336-.76 7.234-4.89 6.474-9.224z" fill="#77d1b3"/></g></g></g></svg>