<svg enable-background="new 0 0 256 256" height="512" viewBox="0 0 256 256" width="512" xmlns="http://www.w3.org/2000/svg"><g id="Layer_4"><g><g><g><path d="m170 57.787c-10.77 0-19.5-8.73-19.5-19.5 0-6.157 2.861-11.64 7.318-15.213h-123.572c-6.527 0-11.867 5.34-11.867 11.867v206.692c0 6.527 5.34 11.867 11.867 11.867h133.509c6.527 0 11.867-5.34 11.867-11.867 0-18.745 0-136.623 0-186.398-2.841 1.616-6.12 2.552-9.622 2.552z" fill="#5290db"/></g></g><g><g><circle cx="170" cy="38.287" fill="#87d147" r="19.5"/></g></g><g><g><path d="m150.842 41.864h-116.596c-1.072 0-1.978.906-1.978 1.978v179.99c0 1.072.906 1.978 1.978 1.978h133.509c1.072 0 1.978-.906 1.978-1.978 0-55.351 0-110.62 0-166.058-9.426-.129-17.225-6.937-18.891-15.91z" fill="#dae6f1"/></g></g><g><g><path d="m150.842 41.864h-116.596c-1.072 0-1.978.906-1.978 1.978v10.945h127.373c-4.52-2.844-7.788-7.481-8.799-12.923z" fill="#3a70bf"/></g></g><g><g><path d="m105.45 234.215h-8.9c-2.72 0-4.945 2.225-4.945 4.945s2.225 4.945 4.945 4.945h8.901c2.72 0 4.945-2.225 4.945-4.945-.001-2.719-2.226-4.945-4.946-4.945z" fill="#3a70bf"/></g></g><g><g><path d="m234.337 98.787h-39.035c-2.1 0-3.802 1.702-3.802 3.802v71.396c0 2.1 1.702 3.802 3.802 3.802h54.396c2.1 0 3.802-1.702 3.802-3.802v-56.035z" fill="#dae6f1"/></g></g><g><g><path d="m156.211 88.787h-110.422c-1.238 0-2.241-1.003-2.241-2.241v-19.518c0-1.238 1.003-2.241 2.241-2.241h110.421c1.238 0 2.241 1.003 2.241 2.241v19.518c.001 1.238-1.003 2.241-2.24 2.241z" fill="#fc657e"/></g></g><g><g><path d="m156.211 123.787h-110.422c-1.238 0-2.241-1.003-2.241-2.241v-20.518c0-1.238 1.003-2.241 2.241-2.241h110.421c1.238 0 2.241 1.003 2.241 2.241v20.518c.001 1.238-1.003 2.241-2.24 2.241z" fill="#f5c84c"/></g></g><g><g><path d="m93.759 133.787h-47.97c-1.238 0-2.241 1.003-2.241 2.241v76.518c0 1.238 1.003 2.241 2.241 2.241h47.97c1.238 0 2.241-1.003 2.241-2.241v-76.518c0-1.238-1.003-2.241-2.241-2.241z" fill="#9be5f9"/></g></g><g><g><path d="m106 136.028v76.518c0 1.238 1.003 2.241 2.241 2.241h47.97c1.238 0 2.241-1.003 2.241-2.241v-76.518c0-1.238-1.003-2.241-2.241-2.241h-47.97c-1.238 0-2.241 1.003-2.241 2.241z" fill="#9be5f9"/></g></g><g><g><path d="m238.139 117.95h15.361l-19.163-19.163v15.361c0 2.099 1.702 3.802 3.802 3.802z" fill="#70d6f9"/></g></g><g><g><path d="m111.064 7.34c-3.717-.692-6.646-3.562-7.353-7.203-.035-.183-.291-.183-.326 0-.707 3.641-3.636 6.511-7.353 7.203-.187.035-.187.285 0 .32 3.717.692 6.646 3.562 7.353 7.203.036.183.291.183.326 0 .707-3.641 3.636-6.511 7.353-7.203.187-.035.187-.285 0-.32z" fill="#f5c84c"/></g></g><g><g><path d="m13.084 174.362c-3.205-.597-5.732-3.072-6.341-6.212-.031-.158-.251-.158-.281 0-.609 3.14-3.136 5.615-6.341 6.212-.161.03-.161.246 0 .276 3.205.597 5.732 3.072 6.341 6.212.031.158.251.158.281 0 .609-3.14 3.136-5.615 6.341-6.212.161-.03.161-.246 0-.276z" fill="#87d147"/></g></g><g><g><path d="m217.88 198.487h-2.33v-2.33c0-1.744-1.413-3.157-3.157-3.157s-3.157 1.413-3.157 3.157v2.33h-2.329c-1.744 0-3.157 1.413-3.157 3.157s1.413 3.157 3.157 3.157h2.329v2.33c0 1.744 1.413 3.157 3.157 3.157s3.157-1.413 3.157-3.157v-2.33h2.33c1.744 0 3.157-1.413 3.157-3.157s-1.413-3.157-3.157-3.157z" fill="#70d6f9"/></g></g><g><g><circle cx="197.601" cy="221.377" fill="#f5c84c" r="3.377"/></g></g><g><g><circle cx="200.601" cy="57.377" fill="#70d6f9" r="3.377"/></g></g><g><g><circle cx="79.601" cy="11.377" fill="#fc657e" r="3.377"/></g></g><g><g><path d="m105.753 34.969h-9.506c-1.381 0-2.5-1.119-2.5-2.5s1.119-2.5 2.5-2.5h9.506c1.381 0 2.5 1.119 2.5 2.5s-1.119 2.5-2.5 2.5z"/></g></g><g><g><path d="m221.5 93.037c-1.381 0-2.5-1.119-2.5-2.5v-11.25h-60.5c-1.381 0-2.5-1.119-2.5-2.5s1.119-2.5 2.5-2.5h63c1.381 0 2.5 1.119 2.5 2.5v13.75c0 1.381-1.119 2.5-2.5 2.5z"/></g></g><g><g><path d="m212.254 152.134c-.64 0-1.279-.244-1.768-.732l-8.099-8.098c-.469-.469-.732-1.104-.732-1.768s.264-1.299.732-1.768l8.099-8.099c.977-.977 2.559-.977 3.535 0 .977.976.977 2.559 0 3.535l-6.331 6.331 6.331 6.33c.977.977.977 2.56 0 3.536-.488.489-1.127.733-1.767.733z"/></g></g><g><g><path d="m232.727 152.134c-.64 0-1.279-.244-1.768-.732-.977-.976-.977-2.559 0-3.536l6.331-6.33-6.331-6.331c-.977-.976-.977-2.559 0-3.535.977-.977 2.559-.977 3.535 0l8.099 8.099c.469.469.732 1.104.732 1.768s-.264 1.299-.732 1.768l-8.099 8.098c-.488.487-1.128.731-1.767.731z"/></g></g><g><g><path d="m217.519 156.99c-.297 0-.6-.053-.895-.167-1.289-.495-1.934-1.94-1.438-3.229l9.941-25.907c.495-1.288 1.937-1.936 3.229-1.438 1.289.495 1.934 1.94 1.438 3.229l-9.941 25.907c-.381.994-1.329 1.605-2.334 1.605z"/></g></g><g><g><path d="m168.525 47.625c-.64 0-1.279-.244-1.768-.732l-6.364-6.364c-.977-.977-.977-2.56 0-3.536.977-.977 2.559-.976 3.535 0l4.597 4.596 9.546-9.545c.977-.977 2.559-.977 3.535 0 .977.976.977 2.559 0 3.535l-11.313 11.313c-.488.489-1.128.733-1.768.733z"/></g></g><g><g><path d="m167.754 256h-133.509c-7.922 0-14.367-6.445-14.367-14.367v-206.692c0-7.922 6.445-14.367 14.367-14.367h123.172c1.381 0 2.5 1.119 2.5 2.5s-1.119 2.5-2.5 2.5h-123.172c-5.165 0-9.367 4.202-9.367 9.367v206.692c0 5.165 4.202 9.367 9.367 9.367h133.509c5.166 0 9.368-4.202 9.368-9.367v-185.945c0-1.381 1.119-2.5 2.5-2.5s2.5 1.119 2.5 2.5v185.945c0 7.922-6.445 14.367-14.368 14.367z"/></g></g><g><g><path d="m170 60.287c-12.131 0-22-9.869-22-22s9.869-22 22-22 22 9.869 22 22-9.869 22-22 22zm0-39c-9.374 0-17 7.626-17 17s7.626 17 17 17 17-7.626 17-17-7.626-17-17-17z"/></g></g><g><g><path d="m167.754 228.309h-133.509c-2.469 0-4.478-2.009-4.478-4.478v-179.989c0-2.469 2.009-4.478 4.478-4.478h116.255c1.381 0 2.5 1.119 2.5 2.5s-1.119 2.5-2.5 2.5h-115.732v178.945h132.465v-165.184c0-1.381 1.119-2.5 2.5-2.5s2.5 1.119 2.5 2.5v165.707c-.001 2.468-2.009 4.477-4.479 4.477z"/></g></g><g><g><path d="m158.958 57.287h-125.833c-1.381 0-2.5-1.119-2.5-2.5s1.119-2.5 2.5-2.5h125.833c1.381 0 2.5 1.119 2.5 2.5s-1.119 2.5-2.5 2.5z"/></g></g><g><g><path d="m105.45 246.605h-8.9c-4.105 0-7.445-3.34-7.445-7.445s3.34-7.445 7.445-7.445h8.9c4.105 0 7.445 3.34 7.445 7.445s-3.339 7.445-7.445 7.445zm-8.9-9.89c-1.349 0-2.445 1.097-2.445 2.445s1.097 2.445 2.445 2.445h8.9c1.349 0 2.445-1.097 2.445-2.445s-1.097-2.445-2.445-2.445z"/></g></g><g><g><path d="m249.698 180.287h-54.396c-3.475 0-6.302-2.827-6.302-6.302v-71.396c0-3.475 2.827-6.302 6.302-6.302h39.035c.663 0 1.299.263 1.768.732l19.163 19.163c.469.469.732 1.104.732 1.768v56.035c0 3.474-2.827 6.302-6.302 6.302zm-54.396-79c-.718 0-1.302.584-1.302 1.302v71.396c0 .718.584 1.302 1.302 1.302h54.396c.718 0 1.302-.584 1.302-1.302v-55l-17.698-17.699h-38z"/></g></g><g><g><path d="m156.211 91.287h-110.422c-2.614 0-4.74-2.126-4.74-4.741v-19.518c0-2.614 2.126-4.741 4.74-4.741h110.422c2.614 0 4.74 2.127 4.74 4.741v19.518c0 2.614-2.126 4.741-4.74 4.741zm-110.162-5h109.902v-19h-109.902z"/></g></g><g><g><path d="m156.211 126.287h-110.422c-2.614 0-4.74-2.126-4.74-4.741v-20.518c0-2.614 2.126-4.741 4.74-4.741h110.422c2.614 0 4.74 2.127 4.74 4.741v20.518c0 2.614-2.126 4.741-4.74 4.741zm-110.162-5h109.902v-20h-109.902z"/></g></g><g><g><path d="m93.759 217.287h-47.97c-2.614 0-4.74-2.126-4.74-4.741v-76.518c0-2.614 2.126-4.741 4.74-4.741h47.97c2.614 0 4.741 2.127 4.741 4.741v76.518c0 2.614-2.127 4.741-4.741 4.741zm-47.71-5h47.451v-76h-47.451zm47.71-76h.01z"/></g></g><g><g><path d="m156.211 217.287h-47.97c-2.614 0-4.741-2.126-4.741-4.741v-76.518c0-2.614 2.127-4.741 4.741-4.741h47.97c2.614 0 4.74 2.127 4.74 4.741v76.518c0 2.614-2.126 4.741-4.74 4.741zm-47.711-5h47.451v-76h-47.451zm47.711-76h.01z"/></g></g><g><g><path d="m252.813 120.45h-14.674c-3.475 0-6.302-2.827-6.302-6.302v-14.757c0-1.381 1.119-2.5 2.5-2.5s2.5 1.119 2.5 2.5v14.756c0 .718.584 1.302 1.302 1.302h14.674c1.381 0 2.5 1.119 2.5 2.5s-1.12 2.501-2.5 2.501z"/></g></g></g></g></svg>