<svg id="Capa_1" enable-background="new 0 0 512 512" height="512" viewBox="0 0 512 512" width="512" xmlns="http://www.w3.org/2000/svg"><g><path d="m488.369 10.147 13.484 13.484c13.53 13.53 13.53 35.466 0 48.996l-162.424 162.424-62.48-62.48 162.424-162.424c13.529-13.529 35.466-13.529 48.996 0z" fill="#e1b89a"/><path d="m354.722 94.798-77.772 77.772 62.48 62.48 37.241-37.241c-15.917-24.866-26.169-70.972-21.949-103.011z" fill="#da9b85"/><path d="m164.072 204.527c29.969-29.969 80.957-16.754 120.556 22.845s52.814 90.587 22.845 120.556c-16.746 16.746-56.841 54.067-72.675 90.43-6.32 14.513-23.589 20.625-37.655 13.365-26.287-13.569-53.825-34.536-78.077-58.788s-45.219-51.791-58.788-78.077c-7.261-14.066-1.149-31.335 13.365-37.655 36.362-15.836 73.683-55.93 90.429-72.676z" fill="#f7ef87"/><path d="m157.749 210.918c-18.713 18.974-51.781 52.208-84.106 66.284-14.513 6.32-20.625 23.589-13.365 37.655 13.569 26.286 34.536 53.825 58.788 78.077 17.199 17.199 36.051 32.73 54.938 45.158-45.396-57.846-42.925-153.347-16.255-227.174z" fill="#f1d88c"/><g><path d="m183.262 381.087c-12.386 12.386-22.046 26.162-29.65 42.377 4.082 3.172 8.192 6.217 12.317 9.126 7.062-15.849 16.143-29.1 27.94-40.897 2.929-2.929 2.929-7.677 0-10.606-2.929-2.93-7.678-2.929-10.607 0z" fill="#f1d88c"/><path d="m88.536 358.388c16.215-7.604 29.991-17.264 42.378-29.65 2.929-2.929 2.929-7.677 0-10.606-2.928-2.929-7.677-2.929-10.607 0-11.797 11.797-25.048 20.877-40.897 27.94 2.909 4.124 5.954 8.234 9.126 12.316z" fill="#f7ef87"/></g><g><g fill="#f1aacb"><ellipse cx="127.44" cy="285.025" rx="20.681" ry="25.969" transform="matrix(.707 -.707 .707 .707 -164.217 173.596)"/><ellipse cx="226.975" cy="384.56" rx="20.681" ry="25.969" transform="matrix(.707 -.707 .707 .707 -205.445 273.127)"/></g><g fill="#4e5660"><path d="m152.219 289.15c-1.919 0-3.839-.732-5.303-2.197-2.929-2.929-2.929-7.678 0-10.607l7.507-7.507c2.929-2.929 7.678-2.929 10.606 0 2.929 2.929 2.929 7.678 0 10.606l-7.507 7.507c-1.464 1.466-3.383 2.198-5.303 2.198z"/><path d="m230.35 367.281c-1.919 0-3.839-.732-5.304-2.197-2.929-2.929-2.928-7.678.001-10.607l7.507-7.506c2.929-2.928 7.678-2.928 10.607 0 2.929 2.929 2.928 7.678-.001 10.607l-7.507 7.506c-1.464 1.464-3.384 2.197-5.303 2.197z"/><path d="m200.476 338.337c-7.093 0-13.92-2.806-18.963-7.85-5.48-5.48-8.318-13.064-7.787-20.809.283-4.133 3.862-7.26 7.996-6.969 4.132.284 7.252 3.864 6.969 7.996-.234 3.417 1.015 6.761 3.428 9.175 2.414 2.413 5.761 3.659 9.174 3.428 4.137-.277 7.712 2.836 7.996 6.969.284 4.132-2.837 7.712-6.969 7.996-.615.043-1.231.064-1.844.064z"/></g></g><path d="m308.892 168.739 34.368 34.368c14.594 14.594 14.594 38.255 0 52.849l-33.366 33.366-87.218-87.218 33.366-33.366c14.595-14.593 38.256-14.593 52.85.001z" fill="#f1aacb"/><path d="m290.962 221.038c-38.78-38.78-92.672-48.955-125.948-25.58-4.687 3.292-5.333 9.983-1.283 14.033l138.779 138.778c4.05 4.05 10.74 3.404 14.033-1.283 23.374-33.276 13.199-87.169-25.581-125.948z" fill="#f5c9d3"/><path d="m102.353 294.526c3.228-7.477 4.794-15.838 4.229-24.623-1.696-26.34-22.86-47.731-49.183-49.674-31.294-2.31-57.399 22.395-57.399 53.197 0 13.912 5.328 26.576 14.052 36.071 5.477 5.96 7.602 14.331 5.257 22.078-8.929 29.496 12.626 62.318 46.405 62.318 26.73 0 48.4-21.669 48.4-48.4 0-10.514-3.354-20.243-9.05-28.18-4.781-6.66-5.96-15.26-2.711-22.787z" fill="#fbf1cf"/><g fill="#f7dfb7"><circle cx="102.156" cy="142.611" r="37.917"/><path d="m96.658 382.704c-43.596-6.6-47.351-49.91-34.654-69.96 1.902-3.003.771-6.922-2.395-8.539-30.525-15.591-31.665-70.044-15.383-83.333-25.115 4.33-44.226 26.203-44.226 52.554 0 13.911 5.327 26.575 14.051 36.071 5.477 5.961 7.602 14.332 5.257 22.08-8.928 29.496 12.627 62.316 46.405 62.316 11.77 0 22.556-4.204 30.945-11.189z"/></g></g></svg>