<svg id="Capa_1" enable-background="new 0 0 497 497" height="512" viewBox="0 0 497 497" width="512" xmlns="http://www.w3.org/2000/svg"><g><g><g><path d="m314.678 471.205h-132.356l10-73.725 60.892-10 51.464 10z" fill="#b5adb7"/></g></g><g><g><path d="m304.678 397.48-14-10-16 10 10 73.724h30z" fill="#a59da7"/></g></g><g><g><path d="m497 334.201v-234.615c0-12.562-10.183-22.745-22.745-22.745h-451.51c-12.562 0-22.745 10.183-22.745 22.745v234.615l245.667 12.296z" fill="#ddebfd"/></g></g><g><g><path d="m467 99.586v260.463l30-25.848v-234.615c0-12.562-10.183-22.745-22.745-22.745h-30c12.562 0 22.745 10.183 22.745 22.745z" fill="#bed9fd"/></g></g><g><g><path d="m0 334.201v40.535c0 12.562 10.183 22.745 22.745 22.745h451.511c12.561 0 22.745-10.183 22.745-22.745v-40.535z" fill="#e3e0e4"/></g></g><g><g><path d="m467 334.201v40.535c0 12.561-10.183 22.745-22.745 22.745h30c12.561 0 22.745-10.183 22.745-22.745v-40.535z" fill="#d4cfd5"/></g></g><g><g><path d="m338.326 298.029h-179.652c-6.737 0-12.198-5.461-12.198-12.198v-16.759c0-6.737 5.461-12.198 12.198-12.198h179.653c6.737 0 12.198 5.461 12.198 12.198v16.759c0 6.736-5.462 12.198-12.199 12.198z" fill="#bed9fd"/></g></g><g><g><path d="m376.178 18.296h-255.356c-4.315 0-7.813 3.498-7.813 7.813v179.748c0 4.315 3.498 7.813 7.813 7.813h88.63c2.833 0 5.45 1.511 6.867 3.964l19.037 45.653c2.761 4.782 9.664 4.782 12.425 0l19.037-45.653c1.416-2.453 4.034-3.964 6.866-3.964h102.494c4.315 0 7.813-3.498 7.813-7.813v-179.749c0-4.315-3.498-7.812-7.813-7.812z" fill="#f8e883"/></g></g><g><g><path d="m376.178 18.296h-30c4.315 0 7.813 3.498 7.813 7.813v179.748c0 4.315-3.498 7.813-7.813 7.813h30c4.315 0 7.813-3.498 7.813-7.813v-179.749c0-4.315-3.498-7.812-7.813-7.812z" fill="#f7e365"/></g></g><g><g><path d="m328.97 72.833h-160.94c-4.142 0-7.5-3.358-7.5-7.5s3.358-7.5 7.5-7.5h160.94c4.142 0 7.5 3.358 7.5 7.5s-3.358 7.5-7.5 7.5z" fill="#fcf5c7"/></g></g><g><g><path d="m328.97 120.286h-160.94c-4.142 0-7.5-3.358-7.5-7.5s3.358-7.5 7.5-7.5h160.94c4.142 0 7.5 3.358 7.5 7.5s-3.358 7.5-7.5 7.5z" fill="#fcf5c7"/></g></g><g><g><path d="m328.97 167.739h-160.94c-4.142 0-7.5-3.358-7.5-7.5s3.358-7.5 7.5-7.5h160.94c4.142 0 7.5 3.358 7.5 7.5s-3.358 7.5-7.5 7.5z" fill="#fcf5c7"/></g></g><path d="m339.228 463.704h-187.028c-4.142 0-7.5 3.358-7.5 7.5s3.358 7.5 7.5 7.5h187.028c4.142 0 7.5-3.358 7.5-7.5s-3.357-7.5-7.5-7.5z" fill="#a59da7"/></g></svg>