<svg id="Capa_1" enable-background="new 0 0 512 512" height="512" viewBox="0 0 512 512" width="512" xmlns="http://www.w3.org/2000/svg"><g><path d="m93.386 439.758c25.288-72.702 56.551-111.871 134.717-190.037l51.365 51.365c-71.911 71.911-96.218 101.682-117.121 161.504-2.619 7.495-10.711 11.563-18.274 9.145l-41.33-13.212c-7.841-2.506-12.062-10.991-9.357-18.765z" fill="#f1d88c"/><path d="m153.903 481.87c19.408-66.242 49.1-109.87 122.79-183.559l51.365 51.365c-64.424 64.423-88.267 98.291-104.081 151.408-2.251 7.56-10.066 11.999-17.701 10.017l-42.021-10.91c-8.009-2.08-12.679-10.381-10.352-18.321z" fill="#f7ef87"/><path d="m10.313 343.201-9.841-37.904c-1.982-7.635 2.457-15.45 10.017-17.701 53.115-15.814 86.983-39.658 151.407-104.082l51.365 51.365c-72.146 72.145-115.476 102.118-179.422 121.556-10.239 3.112-20.837-2.876-23.526-13.234z" fill="#f1d88c"/><path d="m46.393 401.047-13.212-41.33c-2.418-7.562 1.65-15.655 9.145-18.274 59.823-20.903 89.593-45.21 161.504-117.121l51.365 51.365c-78.166 78.166-117.335 109.43-190.037 134.717-7.775 2.704-16.259-1.516-18.765-9.357z" fill="#f7ef87"/><path d="m495.947 11.075 5.406 5.406c14.196 14.196 14.196 37.213 0 51.409l-200.597 200.597-56.815-56.815 200.597-200.597c14.196-14.196 37.213-14.196 51.409 0z" fill="#7fd49d"/><path d="m342.214 113.399-98.274 98.273 56.815 56.815 42.026-42.026c-9.474-36.24-9.313-82.818-.567-113.062z" fill="#5ec783"/><path d="m289.278 223.15c-46.95-46.95-112.196-59.269-152.482-30.97-5.674 3.986-6.457 12.086-1.553 16.989l168.016 168.016c4.903 4.903 13.003 4.121 16.989-1.553 28.299-40.287 15.98-105.533-30.97-152.482z" fill="#7fd49d"/><path d="m270.977 288.064c-1.919 0-3.839-.732-5.304-2.197l-39.113-39.113c-2.929-2.929-2.929-7.678 0-10.606 2.929-2.929 7.678-2.929 10.606 0l39.114 39.113c2.929 2.929 2.929 7.678 0 10.606-1.464 1.464-3.384 2.197-5.303 2.197z" fill="#fff"/><path d="m23.313 165.367c0 40.892 33.149 74.041 74.041 74.041s74.041-33.149 74.041-74.041c0-50.503-39.747-69.241-64.379-101.683-4.835-6.368-14.489-6.368-19.324 0-24.632 32.442-64.379 51.18-64.379 101.683z" fill="#ceeafb"/><path d="m149.463 217.956c-108.881-6.754-103.574-82.518-92.496-121.629-17.851 17.984-33.654 37.197-33.654 69.04 0 40.892 33.149 74.041 74.041 74.041 20.324 0 38.73-8.194 52.109-21.452z" fill="#a3defe"/></g></svg>