<svg id="Capa_1" enable-background="new 0 0 511.999 511.999" height="512" viewBox="0 0 511.999 511.999" width="512" xmlns="http://www.w3.org/2000/svg"><g><path d="m384.902 204.84-35.476-.016c-2.16-.001-4.173-.666-5.845-1.801l-.086 212.073c-.014 30.888 5.063 61.566 15.025 90.795 2.774 8.14 14.257 8.145 17.038.008 9.988-29.22 15.091-59.894 15.104-90.782l.086-212.073c-1.673 1.134-3.686 1.797-5.846 1.796z" fill="#477b9e"/><g><g><path d="m368.152 415.097.085-210.264-18.811-.008c-2.16-.001-4.173-.666-5.845-1.801l-.086 212.073c-.014 30.888 5.063 61.566 15.025 90.795 2.774 8.14 14.257 8.145 17.038.008 1.367-3.998 2.633-8.026 3.816-12.076-7.443-25.556-11.234-52.062-11.222-78.727z" fill="#3f6d8e"/></g></g><g fill="#ffe07d"><path d="m417.282 16.481c-14.082-10.362-31.411-16.481-50.16-16.481-18.707 0-36 6.091-50.065 16.41-6.836 5.015-8.824 14.439-4.524 21.789l36.927 63.123c21.269.01 13.685.01 35.442 0l36.891-63.062c4.297-7.345 2.313-16.757-4.511-21.779z"/><path d="m272.102 8.381c-.887-4.864-5.095-8.381-9.986-8.381h-34.53c-4.901 0-9.115 3.532-9.991 8.408-2.935 16.341-6.845 54.194 9.581 92.918h35.479c16.435-38.745 12.425-76.618 9.447-92.945z"/><path d="m105.169 101.322 35.175.016c.28 0 .555.021.829.043 34.381-36.477 5.201-80.699-10.503-99.551-2.592-3.112-7.603-2.085-8.708 1.828-5.493 19.433-34.012 39.135-34.022 62.906-.008 17.999 9.969 29.076 17.229 34.758z"/></g><path d="m338.133 28.502c-4.091-8.181-2.481-18.548 3.571-24.59-8.932 2.817-17.241 7.064-24.648 12.498-6.836 5.015-8.824 14.439-4.524 21.789l36.927 63.123c16.803.007 15.608.009 25.089.005z" fill="#ffd064"/><path d="m243.27 7.214c.561-3.122 2.453-5.707 5.018-7.214h-20.702c-4.901 0-9.115 3.532-9.991 8.408-2.935 16.341-6.845 54.194 9.581 92.918h25.362c-16.195-39.316-12.249-77.511-9.268-94.112z" fill="#ffd064"/><path d="m113.541 67.102c.008-18.772 17.205-35.089 27.861-50.703-3.7-5.737-7.501-10.691-10.732-14.569-2.592-3.112-7.603-2.085-8.709 1.828-5.492 19.433-34.011 39.135-34.021 62.906-.008 17.999 9.969 29.076 17.229 34.758l24.122.011c-7.198-6.267-15.758-17.279-15.75-34.231z" fill="#ffd064"/><path d="m395.394 176.96.02-66.262c.003-5.765-4.712-10.484-10.477-10.486l-35.476-.016c-5.765-.003-10.484 4.712-10.486 10.477l-.02 66.287z" fill="#ecf4ff"/><path d="m377.43 100.209-27.97-.012c-5.765-.003-10.484 4.712-10.486 10.477l-.02 66.287h28.213l.02-66.287c.002-5.683 4.59-10.336 10.243-10.465z" fill="#ddeafb"/><path d="m338.955 174.9-.006 20.163c-.003 5.765 4.712 10.484 10.477 10.486l35.476.016c5.765.002 10.484-4.712 10.486-10.477l.006-20.188z" fill="#ddeafb"/><path d="m377.639 205.549c-5.765-.002-10.48-4.721-10.477-10.486l.006-20.163h-28.213l-.006 20.163c-.003 5.765 4.712 10.484 10.477 10.486l35.476.016c.083 0 .163-.01.245-.012z" fill="#bed8fb"/><path d="m263.172 204.84-35.476-.016c-2.16-.001-4.173-.666-5.845-1.801l-.086 212.073c-.014 30.888 5.063 61.566 15.025 90.795 2.774 8.14 14.257 8.145 17.038.008 9.988-29.22 15.091-59.894 15.104-90.782l.086-212.073c-1.673 1.134-3.686 1.797-5.846 1.796z" fill="#477b9e"/><g><g><path d="m246.422 415.097.085-210.264-18.811-.008c-2.16-.001-4.173-.666-5.845-1.801l-.086 212.073c-.014 30.888 5.063 61.566 15.025 90.795 2.774 8.14 14.257 8.145 17.038.008 1.367-3.998 2.633-8.026 3.816-12.076-7.443-25.556-11.234-52.062-11.222-78.727z" fill="#3f6d8e"/></g></g><path d="m273.663 176.96.02-66.262c.003-5.765-4.712-10.484-10.477-10.486l-35.476-.016c-5.765-.003-10.484 4.712-10.486 10.477l-.02 66.287z" fill="#ecf4ff"/><path d="m255.7 100.209-27.97-.012c-5.765-.003-10.484 4.712-10.486 10.477l-.02 66.287h28.213l.02-66.287c.002-5.683 4.59-10.336 10.243-10.465z" fill="#ddeafb"/><path d="m217.224 174.9-.006 20.163c-.003 5.765 4.712 10.484 10.477 10.486l35.476.016c5.765.002 10.484-4.712 10.486-10.477l.006-20.188z" fill="#ddeafb"/><path d="m255.909 205.549c-5.765-.002-10.48-4.721-10.477-10.486l.006-20.163h-28.213l-.006 20.163c-.003 5.765 4.712 10.484 10.477 10.486l35.476.016c.083 0 .163-.01.245-.012z" fill="#bed8fb"/><path d="m140.251 204.84-35.476-.016c-2.16-.001-4.173-.666-5.845-1.801l-.086 212.073c-.014 30.888 5.063 61.566 15.025 90.795 2.774 8.14 14.257 8.145 17.038.008 9.988-29.22 15.091-59.894 15.104-90.782l.086-212.073c-1.673 1.134-3.686 1.797-5.846 1.796z" fill="#477b9e"/><g><g><path d="m123.501 415.097.085-210.264-18.811-.008c-2.16-.001-4.173-.666-5.845-1.801l-.086 212.073c-.014 30.888 5.063 61.566 15.025 90.795 2.774 8.14 14.257 8.145 17.038.008 1.367-3.998 2.633-8.026 3.816-12.076-7.444-25.556-11.234-52.062-11.222-78.727z" fill="#3f6d8e"/></g></g><path d="m150.742 176.96.02-66.262c.003-5.765-4.712-10.484-10.477-10.486l-35.476-.016c-5.765-.003-10.484 4.712-10.486 10.477l-.02 66.287z" fill="#ecf4ff"/><path d="m132.778 100.209-27.97-.012c-5.765-.003-10.484 4.712-10.486 10.477l-.02 66.287h28.213l.02-66.287c.003-5.683 4.591-10.336 10.243-10.465z" fill="#ddeafb"/><path d="m94.303 174.9-.006 20.163c-.003 5.765 4.712 10.484 10.477 10.486l35.476.016c5.765.002 10.484-4.712 10.486-10.477l.006-20.188z" fill="#ddeafb"/><path d="m132.988 205.549c-5.765-.002-10.48-4.721-10.477-10.486l.006-20.163h-28.214l-.006 20.163c-.003 5.765 4.712 10.484 10.477 10.486l35.476.016c.083 0 .163-.01.245-.012z" fill="#bed8fb"/></g></svg>