<svg id="Capa_1" enable-background="new 0 0 497 497" height="512" viewBox="0 0 497 497" width="512" xmlns="http://www.w3.org/2000/svg"><g><g><g><path d="m314.678 441.932h-132.356l10-73.724 56.178-10 56.178 10z" fill="#b5adb7"/></g></g><g><g><path d="m304.678 368.207-14.178-10-15.822 10 10 73.725h30z" fill="#a59da7"/></g></g><g><g><path d="m497 304.928v-234.615c0-12.562-10.183-22.745-22.745-22.745h-451.51c-12.562 0-22.745 10.183-22.745 22.745v234.615l256.089 18.156z" fill="#ddebfd"/></g></g><g><g><path d="m467 70.313v252.771h30v-252.771c0-12.562-10.183-22.745-22.745-22.745h-30c12.562 0 22.745 10.183 22.745 22.745z" fill="#bed9fd"/></g></g><g><g><path d="m0 304.928v40.535c0 12.561 10.183 22.745 22.745 22.745h451.511c12.561 0 22.745-10.183 22.745-22.745v-40.535z" fill="#d4cfd5"/></g></g><g><g><path d="m244.829 159.989-2.892.07c-.754-13.815-5.759-26.509-13.717-36.817l2.431-1.776c3.976-2.905 4.529-8.639 1.169-12.24-6.898-7.39-15.227-13.424-24.377-17.659-4.472-2.07-9.749.254-11.263 4.943l-1.199 3.713c-6.111-1.861-12.589-2.871-19.3-2.871-7.234 0-14.195 1.18-20.718 3.33l-1.339-4.105c-1.528-4.684-6.813-6.991-11.278-4.907-9.138 4.264-17.448 10.325-24.323 17.737-3.349 3.611-2.778 9.343 1.207 12.236l3.293 2.39c-7.993 10.68-12.826 23.843-13.162 38.1l-3.251.003c-4.918.005-8.735 4.301-8.157 9.185 1.197 10.116 4.356 19.815 9.343 28.679 2.412 4.287 8.032 5.506 12.007 2.608l1.751-1.277c7.988 11.564 19.547 20.47 33.072 25.13l-.37 1.141c-1.517 4.681 1.392 9.65 6.22 10.598 4.929.969 9.956 1.457 15.027 1.457h.005c5.096 0 10.147-.493 15.098-1.471 4.829-.954 7.734-5.924 6.212-10.605l-.237-.728c14.603-4.73 26.997-14.392 35.223-27.015l1.35.93c4.055 2.794 9.65 1.422 11.939-2.938 4.698-8.951 7.643-18.805 8.619-28.841.479-4.906-3.457-9.12-8.383-9zm-69.148 28.098c-13.44 0-24.374-10.934-24.374-24.374s10.934-24.374 24.374-24.374 24.374 10.934 24.374 24.374-10.934 24.374-24.374 24.374z" fill="#e3e0e4"/></g></g><g><g><path d="m244.829 159.988-2.892.07c-.754-13.815-5.759-26.509-13.717-36.817l2.431-1.776c3.976-2.906 4.529-8.639 1.169-12.24-6.898-7.391-15.227-13.424-24.377-17.659-4.472-2.069-9.749.254-11.262 4.943l-1.199 3.713c-6.111-1.861-12.589-2.871-19.3-2.871-4.066 0-8.04.385-11.904 1.093 28.75 8.6 49.71 35.239 49.71 66.787 0 34.888-25.628 63.79-59.084 68.909 1.128 2.022 3.094 3.572 5.572 4.059 4.929.969 9.956 1.457 15.027 1.457h.005c5.096 0 10.147-.493 15.098-1.471 4.829-.954 7.734-5.924 6.212-10.606l-.237-.728c14.603-4.73 26.997-14.392 35.223-27.015l1.35.93c4.055 2.794 9.65 1.422 11.939-2.938 4.698-8.951 7.643-18.805 8.619-28.841.479-4.904-3.457-9.118-8.383-8.999z" fill="#d4cfd5"/></g></g><g><g><path d="m385.006 212.773-2.094.051c-.546-10.003-4.17-19.195-9.932-26.658l1.76-1.286c2.879-2.104 3.279-6.256.846-8.862-4.994-5.351-11.025-9.72-17.651-12.786-3.238-1.498-7.059.184-8.155 3.579l-.868 2.689c-4.424-1.348-9.115-2.079-13.975-2.079-5.238 0-10.278.854-15.002 2.411l-.97-2.972c-1.107-3.392-4.933-5.062-8.166-3.553-6.616 3.088-12.634 7.476-17.612 12.843-2.425 2.615-2.012 6.765.874 8.86l2.384 1.73c-5.787 7.733-9.287 17.264-9.53 27.587l-2.354.002c-3.561.004-6.325 3.114-5.906 6.651.866 7.325 3.154 14.348 6.765 20.766 1.746 3.104 5.816 3.987 8.694 1.888l1.268-.924c5.784 8.373 14.153 14.822 23.946 18.196l-.268.826c-1.098 3.39 1.008 6.987 4.504 7.674 3.569.701 7.209 1.055 10.881 1.055h.003c3.69 0 7.347-.357 10.932-1.065 3.497-.691 5.6-4.29 4.498-7.679l-.171-.527c10.574-3.425 19.548-10.421 25.504-19.561l.978.673c2.936 2.023 6.987 1.03 8.645-2.128 3.402-6.481 5.534-13.616 6.241-20.883.347-3.553-2.502-6.605-6.069-6.518zm-50.068 20.346c-9.732 0-17.649-7.917-17.649-17.649s7.917-17.649 17.649-17.649 17.649 7.917 17.649 17.649-7.918 17.649-17.649 17.649z" fill="#e3e0e4"/></g></g><g><g><path d="m467 304.927v40.536c0 12.562-10.183 22.744-22.745 22.744h30c12.561 0 22.745-10.183 22.745-22.744v-40.536z" fill="#c5bec6"/></g></g><g><g><path d="m385.006 212.773-2.094.051c-.546-10.003-4.17-19.195-9.932-26.658l1.76-1.286c2.879-2.104 3.279-6.256.846-8.863-4.994-5.351-11.025-9.72-17.651-12.786-3.238-1.498-7.059.184-8.155 3.579l-.868 2.689c-4.425-1.348-9.115-2.079-13.975-2.079-2.944 0-5.822.279-8.619.792 20.817 6.227 35.994 25.516 35.994 48.359 0 25.262-18.556 46.189-42.782 49.895.817 1.464 2.24 2.586 4.035 2.939 3.569.701 7.209 1.055 10.881 1.055h.003c3.69 0 7.347-.357 10.932-1.065 3.497-.691 5.6-4.29 4.498-7.679l-.171-.527c10.574-3.425 19.548-10.421 25.504-19.561l.978.674c2.936 2.023 6.987 1.03 8.645-2.128 3.402-6.481 5.534-13.616 6.241-20.883.346-3.553-2.503-6.605-6.07-6.518z" fill="#d4cfd5"/></g></g><g><g><path d="m339.228 449.432h-187.028c-4.143 0-7.5-3.358-7.5-7.5s3.357-7.5 7.5-7.5h187.028c4.143 0 7.5 3.358 7.5 7.5s-3.357 7.5-7.5 7.5z" fill="#a59da7"/></g></g></g></svg>