<svg height="511pt" viewBox="-101 1 511 511.999" width="511pt" xmlns="http://www.w3.org/2000/svg"><path d="m277.300781 0h-244.546875c-17.8125 0-32.253906 14.441406-32.253906 32.253906v447.492188c0 17.8125 14.441406 32.253906 32.253906 32.253906h244.546875c17.8125 0 32.253907-14.441406 32.253907-32.253906v-447.492188c0-17.8125-14.441407-32.253906-32.253907-32.253906zm0 0" fill="#edebed"/><path d="m31.40625 479.746094v-447.492188c0-17.8125 14.4375-32.253906 32.253906-32.253906h-30.90625c-17.8125 0-32.253906 14.441406-32.253906 32.253906v447.492188c0 17.8125 14.441406 32.253906 32.253906 32.253906h30.90625c-17.816406 0-32.253906-14.441406-32.253906-32.253906zm0 0" fill="#dbd9dc"/><path d="m31.40625 403.976562v-337.160156c0-2.765625 2.242188-5.003906 5.003906-5.003906h237.234375c2.765625 0 5.003907 2.238281 5.003907 5.003906v337.160156c0 2.765626-2.238282 5.003907-5.003907 5.003907h-237.234375c-2.765625 0-5.003906-2.238281-5.003906-5.003907zm0 0" fill="#8cb4eb"/><path d="m72.613281 403.976562v-337.160156c0-2.765625 2.238281-5.003906 5.003907-5.003906h-41.207032c-2.761718 0-5.003906 2.238281-5.003906 5.003906v337.160156c0 2.765626 2.242188 5.003907 5.003906 5.003907h41.207032c-2.765626 0-5.003907-2.238281-5.003907-5.003907zm0 0" fill="#739bd7"/><path d="m155.027344 141.9375c-9.785156 0-17.71875-7.933594-17.71875-17.71875v-10.226562c0-1.691407 1.371094-3.0625 3.0625-3.0625h29.308594c1.695312 0 3.066406 1.371093 3.066406 3.0625v10.226562c0 9.785156-7.933594 17.71875-17.71875 17.71875zm0 0" fill="#5a4650"/><path d="m183.183594 460.492188c0 15.550781-12.605469 28.15625-28.15625 28.15625-15.550782 0-28.160156-12.605469-28.160156-28.15625 0-15.550782 12.609374-28.160157 28.160156-28.160157 15.550781 0 28.15625 12.609375 28.15625 28.160157zm0 0" fill="#c9c6ca"/><path d="m80.707031 184.402344h148.636719c4.472656 0 8.097656 3.625 8.097656 8.09375v65.195312c0 4.46875-3.625 8.09375-8.097656 8.09375h-148.636719c-4.46875 0-8.09375-3.625-8.09375-8.09375v-65.195312c0-4.46875 3.625-8.09375 8.09375-8.09375zm0 0" fill="#b4f09b"/><path d="m80.707031 296.691406h148.636719c4.472656 0 8.097656 3.625 8.097656 8.09375v65.195313c0 4.472656-3.625 8.09375-8.097656 8.09375h-148.636719c-4.46875 0-8.09375-3.621094-8.09375-8.09375v-65.195313c0-4.46875 3.625-8.09375 8.09375-8.09375zm0 0" fill="#e6646e"/><path d="m113.820312 257.691406v-65.195312c0-4.46875 3.625-8.09375 8.09375-8.09375h-41.207031c-4.46875 0-8.09375 3.625-8.09375 8.09375v65.195312c0 4.46875 3.625 8.09375 8.09375 8.09375h41.207031c-4.46875 0-8.09375-3.625-8.09375-8.09375zm0 0" fill="#64dca0"/><path d="m113.820312 369.980469v-65.195313c0-4.46875 3.625-8.09375 8.09375-8.09375h-41.207031c-4.46875 0-8.09375 3.625-8.09375 8.09375v65.195313c0 4.472656 3.625 8.09375 8.09375 8.09375h41.207031c-4.46875 0-8.09375-3.621094-8.09375-8.09375zm0 0" fill="#dc4655"/><path d="m220.636719 119.273438c-4.140625 0-7.5-3.355469-7.5-7.5v-11.699219c0-4.140625 3.359375-7.5 7.5-7.5 4.144531 0 7.5 3.359375 7.5 7.5v11.699219c0 4.144531-3.355469 7.5-7.5 7.5zm0 0" fill="#5a4650"/><path d="m89.414062 119.273438c-4.140624 0-7.5-3.355469-7.5-7.5v-11.699219c0-4.140625 3.359376-7.5 7.5-7.5 4.144532 0 7.5 3.359375 7.5 7.5v11.699219c0 4.144531-3.355468 7.5-7.5 7.5zm0 0" fill="#5a4650"/><g fill="#fff"><path d="m226.488281 141.390625h-11.699219c-4.140624 0-7.5-3.359375-7.5-7.5 0-4.144531 3.359376-7.5 7.5-7.5h11.699219c4.140625 0 7.5 3.355469 7.5 7.5 0 4.140625-3.359375 7.5-7.5 7.5zm0 0"/><path d="m95.265625 141.390625h-11.699219c-4.144531 0-7.5-3.359375-7.5-7.5 0-4.144531 3.355469-7.5 7.5-7.5h11.699219c4.140625 0 7.5 3.355469 7.5 7.5 0 4.140625-3.359375 7.5-7.5 7.5zm0 0"/></g></svg>