<svg enable-background="new 0 0 256 256" height="512" viewBox="0 0 256 256" width="512" xmlns="http://www.w3.org/2000/svg"><g id="Layer_15"><g><g><g><path d="m168.982 242.304h-81.964c-3.092 0-5.598 2.506-5.598 5.598 0 3.091 2.506 5.598 5.598 5.598h81.964c3.092 0 5.598-2.506 5.598-5.598 0-3.091-2.506-5.598-5.598-5.598z" fill="#edf4fc"/></g></g><g><g><path d="m105.37 216.649h45.259v25.655h-45.259z" fill="#c7d7e5"/></g></g><g><g><path d="m229.99 43.352h-70.292v43.247c0 7.402-6.056 13.458-13.458 13.458h-40.146c-1.627 0-2.947 1.319-2.947 2.946v13.288c0 1.812-2.177 2.735-3.48 1.476l-17.457-16.881c-.549-.531-1.284-.828-2.048-.828h-7.519c-7.402 0-13.458-6.056-13.458-13.458v-43.248h-33.175c-6.573 0-11.951 5.378-11.951 11.952v149.394c0 6.573 5.378 11.952 11.951 11.952h203.98c6.573 0 11.951-5.378 11.951-11.952v-149.394c.001-6.574-5.377-11.952-11.951-11.952z" fill="#5290db"/></g></g><g><g><path d="m14.058 184.779v19.919c0 6.573 5.378 11.952 11.952 11.952h203.98c6.573 0 11.952-5.378 11.952-11.952v-19.919z" fill="#edf4fc"/></g></g><g><g><path d="m229.99 53.312h-46.633c7.402 0 13.458 6.056 13.458 13.458v54.954c0 7.402-6.056 13.458-13.458 13.458h-7.519c-.764 0-1.499.297-2.048.828l-17.458 16.882c-1.303 1.26-3.48.337-3.48-1.476v-13.288c0-1.627-1.319-2.946-2.947-2.946h-40.145c-7.402 0-13.458-6.056-13.458-13.458v-7.211l-14.092-13.627c-.549-.531-1.284-.828-2.048-.828h-7.519c-7.402 0-13.458-6.056-13.458-13.458v-33.288h-33.175c-1.095 0-1.992.896-1.992 1.992v129.475h207.965v-129.475c-.001-1.096-.897-1.992-1.993-1.992z" fill="#edf4fc"/></g></g><g><g><path d="m72.643 18.188h73.597c7.402 0 13.458 6.056 13.458 13.458v54.954c0 7.402-6.056 13.458-13.458 13.458h-40.146c-1.627 0-2.947 1.319-2.947 2.946v13.288c0 1.812-2.177 2.735-3.48 1.476l-17.457-16.882c-.549-.531-1.284-.828-2.048-.828h-7.519c-7.402 0-13.458-6.056-13.458-13.458v-54.954c-.001-7.402 6.055-13.458 13.458-13.458z" fill="#70d6f9"/></g></g><g><g><path d="m183.357 53.312h-23.659v33.288c0 7.402-6.056 13.458-13.458 13.458h-40.146c-1.627 0-2.947 1.319-2.947 2.946v13.288c0 1.812-2.177 2.735-3.48 1.476l-3.366-3.255v7.211c0 7.402 6.056 13.458 13.458 13.458h40.146c1.627 0 2.947 1.319 2.947 2.946v13.288c0 1.812 2.177 2.735 3.48 1.476l17.458-16.882c.549-.531 1.284-.828 2.048-.828h7.519c7.402 0 13.458-6.056 13.458-13.458v-54.954c.001-7.402-6.055-13.458-13.458-13.458z" fill="#fc657e"/></g></g><g><g><path d="m176.369 88.655h-3.815c-.558 0-1.048-.374-1.19-.914-.597-2.284-1.501-4.443-2.666-6.431-.282-.482-.201-1.094.194-1.489l2.699-2.699c.482-.482.482-1.263 0-1.745l-6.163-6.163c-.482-.482-1.263-.482-1.745 0l-2.699 2.699c-.343.343-.844.433-1.287.271v14.416c0 .453-.024.901-.068 1.343.922 1.909 1.455 4.042 1.455 6.304 0 8.022-6.503 14.525-14.525 14.525-5.955 0-11.066-3.587-13.308-8.714h-12.002c.24.162.427.4.505.695.597 2.284 1.501 4.443 2.666 6.431.282.482.201 1.094-.194 1.489l-2.699 2.699c-.482.482-.482 1.263 0 1.745l6.163 6.163c.482.482 1.263.482 1.745 0l2.699-2.699c.395-.395 1.007-.477 1.489-.194 1.989 1.165 4.147 2.069 6.431 2.666.54.141.914.632.914 1.19v3.815c0 .682.552 1.234 1.234 1.234h8.715c.682 0 1.234-.553 1.234-1.234v-3.815c0-.558.374-1.049.914-1.19 2.284-.597 4.443-1.501 6.431-2.666.482-.282 1.094-.201 1.489.194l2.699 2.699c.482.482 1.263.482 1.745 0l6.163-6.163c.482-.482.482-1.263 0-1.745l-2.699-2.699c-.395-.395-.477-1.007-.194-1.489 1.165-1.989 2.069-4.147 2.666-6.431.141-.54.632-.914 1.19-.914h3.815c.682 0 1.234-.553 1.234-1.234v-8.715c0-.683-.553-1.235-1.235-1.235z" fill="#fcdd86"/></g></g><g><g><path d="m24.018 173.583h207.965v11.196h-207.965z" fill="#5290db"/></g></g><g><g><path d="m128 194.819c-3.256 0-5.895 2.639-5.895 5.895 0 3.256 2.639 5.895 5.895 5.895s5.895-2.639 5.895-5.895c0-3.256-2.639-5.895-5.895-5.895z" fill="#c7d7e5"/></g></g><g><g><path d="m24.018 173.583h23.535v11.196h-23.535z" fill="#fcdd86"/></g></g><g><g><path d="m194.705 22.654c-4.498-.838-8.043-4.31-8.898-8.716-.043-.221-.352-.221-.395 0-.855 4.406-4.4 7.879-8.898 8.716-.226.042-.226.345 0 .387 4.498.838 8.043 4.31 8.898 8.717.043.221.352.221.395 0 .855-4.406 4.4-7.879 8.898-8.717.226-.043.226-.345 0-.387z" fill="#f5c84c"/></g></g><g><g><path d="m165.903 5.108c-2.586-.482-4.625-2.479-5.116-5.012-.025-.127-.202-.127-.227 0-.492 2.534-2.53 4.531-5.117 5.012-.13.024-.13.198 0 .222 2.586.482 4.625 2.479 5.117 5.012.025.127.202.127.227 0 .492-2.534 2.53-4.531 5.116-5.012.129-.024.129-.198 0-.222z" fill="#fc657e"/></g></g><g><g><path d="m38.442 235.487h2.33v-2.33c0-1.744 1.413-3.157 3.157-3.157s3.157 1.413 3.157 3.157v2.33h2.329c1.744 0 3.157 1.413 3.157 3.157s-1.413 3.157-3.157 3.157h-2.329v2.33c0 1.744-1.413 3.157-3.157 3.157s-3.157-1.413-3.157-3.157v-2.33h-2.33c-1.744 0-3.157-1.413-3.157-3.157s1.413-3.157 3.157-3.157z" fill="#70d6f9"/></g></g><g><g><circle cx="68.721" cy="230.377" fill="#f5c84c" r="3.377"/></g></g><g><g><circle cx="47.662" cy="18.377" fill="#87d147" r="3.377"/></g></g><g><g><path d="m168.982 256h-81.964c-4.465 0-8.098-3.633-8.098-8.098s3.633-8.098 8.098-8.098h81.965c4.465 0 8.098 3.633 8.098 8.098-.001 4.465-3.634 8.098-8.099 8.098zm-81.964-11.196c-1.708 0-3.098 1.39-3.098 3.098s1.39 3.098 3.098 3.098h81.965c1.708 0 3.098-1.39 3.098-3.098s-1.39-3.098-3.098-3.098z"/></g></g><g><g><path d="m150.63 244.281c-1.381 0-2.5-1.119-2.5-2.5v-24.342c0-1.381 1.119-2.5 2.5-2.5s2.5 1.119 2.5 2.5v24.342c0 1.381-1.119 2.5-2.5 2.5z"/></g></g><g><g><path d="m105.37 244.229c-1.381 0-2.5-1.119-2.5-2.5v-24.229c0-1.381 1.119-2.5 2.5-2.5s2.5 1.119 2.5 2.5v24.229c0 1.381-1.119 2.5-2.5 2.5z"/></g></g><g><g><path d="m229.99 219.149h-203.98c-7.969 0-14.451-6.483-14.451-14.452v-149.393c0-7.969 6.482-14.452 14.451-14.452h32.175c1.381 0 2.5 1.119 2.5 2.5s-1.119 2.5-2.5 2.5h-32.175c-5.211 0-9.451 4.24-9.451 9.452v149.394c0 5.211 4.24 9.452 9.451 9.452h203.98c5.211 0 9.451-4.24 9.451-9.452v-149.394c0-5.211-4.24-9.452-9.451-9.452h-69.292c-1.381 0-2.5-1.119-2.5-2.5s1.119-2.5 2.5-2.5h69.292c7.969 0 14.451 6.483 14.451 14.452v149.394c0 7.969-6.482 14.451-14.451 14.451z"/></g></g><g><g><path d="m144.001 39.159h-50.726c-1.381 0-2.5-1.119-2.5-2.5s1.119-2.5 2.5-2.5h50.726c1.381 0 2.5 1.119 2.5 2.5s-1.119 2.5-2.5 2.5z"/></g></g><g><g><path d="m83.103 39.159h-7.523c-1.381 0-2.5-1.119-2.5-2.5s1.119-2.5 2.5-2.5h7.523c1.381 0 2.5 1.119 2.5 2.5s-1.12 2.5-2.5 2.5z"/></g></g><g><g><path d="m144.001 51.04h-29.79c-1.381 0-2.5-1.119-2.5-2.5s1.119-2.5 2.5-2.5h29.79c1.381 0 2.5 1.119 2.5 2.5s-1.119 2.5-2.5 2.5z"/></g></g><g><g><path d="m103.793 51.04h-28.214c-1.381 0-2.5-1.119-2.5-2.5s1.119-2.5 2.5-2.5h28.214c1.381 0 2.5 1.119 2.5 2.5s-1.119 2.5-2.5 2.5z"/></g></g><g><g><path d="m144.001 62.921h-8.644c-1.381 0-2.5-1.119-2.5-2.5s1.119-2.5 2.5-2.5h8.644c1.381 0 2.5 1.119 2.5 2.5s-1.119 2.5-2.5 2.5z"/></g></g><g><g><path d="m125.106 62.921h-49.527c-1.381 0-2.5-1.119-2.5-2.5s1.119-2.5 2.5-2.5h49.527c1.381 0 2.5 1.119 2.5 2.5s-1.119 2.5-2.5 2.5z"/></g></g><g><g><path d="m144.001 74.802h-42.821c-1.381 0-2.5-1.119-2.5-2.5s1.119-2.5 2.5-2.5h42.821c1.381 0 2.5 1.119 2.5 2.5s-1.119 2.5-2.5 2.5z"/></g></g><g><g><path d="m90.747 74.802h-15.168c-1.381 0-2.5-1.119-2.5-2.5s1.119-2.5 2.5-2.5h15.168c1.381 0 2.5 1.119 2.5 2.5s-1.119 2.5-2.5 2.5z"/></g></g><g><g><path d="m144.001 86.683h-29.79c-1.381 0-2.5-1.119-2.5-2.5s1.119-2.5 2.5-2.5h29.79c1.381 0 2.5 1.119 2.5 2.5s-1.119 2.5-2.5 2.5z"/></g></g><g><g><path d="m103.793 86.683h-28.214c-1.381 0-2.5-1.119-2.5-2.5s1.119-2.5 2.5-2.5h28.214c1.381 0 2.5 1.119 2.5 2.5s-1.119 2.5-2.5 2.5z"/></g></g><g><g><path d="m241.28 187.279h-226.363c-1.381 0-2.5-1.119-2.5-2.5s1.119-2.5 2.5-2.5h226.363c1.381 0 2.5 1.119 2.5 2.5s-1.119 2.5-2.5 2.5z"/></g></g><g><g><path d="m231.982 186.813c-1.381 0-2.5-1.119-2.5-2.5v-128.501h-45.125c-1.381 0-2.5-1.119-2.5-2.5s1.119-2.5 2.5-2.5h45.633c2.477 0 4.492 2.015 4.492 4.492v129.009c0 1.381-1.119 2.5-2.5 2.5z"/></g></g><g><g><path d="m24.018 186.583c-1.381 0-2.5-1.119-2.5-2.5v-128.779c0-2.477 2.016-4.492 4.492-4.492h32.175c1.381 0 2.5 1.119 2.5 2.5s-1.119 2.5-2.5 2.5h-31.667v128.271c0 1.381-1.12 2.5-2.5 2.5z"/></g></g><g><g><path d="m101.093 120.847c-1.157 0-2.296-.443-3.163-1.281l-17.458-16.882c-.083-.081-.193-.125-.31-.125h-7.52c-8.799 0-15.958-7.159-15.958-15.958v-54.955c0-8.799 7.159-15.958 15.958-15.958h73.598c8.799 0 15.958 7.159 15.958 15.958v54.954c0 8.799-7.159 15.958-15.958 15.958h-40.146c-.247 0-.447.2-.447.446v13.289c0 1.831-1.089 3.477-2.775 4.191-.575.244-1.18.363-1.779.363zm-28.45-100.159c-6.042 0-10.958 4.916-10.958 10.958v54.954c0 6.042 4.916 10.958 10.958 10.958h7.52c1.42 0 2.764.543 3.785 1.53l16.7 16.149v-12.233c0-3.003 2.443-5.446 5.447-5.446h40.146c6.042 0 10.958-4.916 10.958-10.958v-54.954c0-6.042-4.916-10.958-10.958-10.958z"/></g></g><g><g><path d="m154.907 155.971c-.6 0-1.204-.119-1.779-.363-1.687-.715-2.775-2.36-2.775-4.191v-13.289c0-.246-.2-.446-.447-.446h-40.146c-8.799 0-15.958-7.159-15.958-15.958v-6.557c0-1.381 1.119-2.5 2.5-2.5s2.5 1.119 2.5 2.5v6.557c0 6.042 4.916 10.958 10.958 10.958h40.146c3.004 0 5.447 2.443 5.447 5.446v12.233l16.699-16.149c1.022-.987 2.366-1.531 3.786-1.531h7.52c6.042 0 10.958-4.916 10.958-10.958v-54.953c0-6.042-4.916-10.958-10.958-10.958h-22.482c-1.381 0-2.5-1.119-2.5-2.5s1.119-2.5 2.5-2.5h22.482c8.799 0 15.958 7.159 15.958 15.958v54.954c0 8.799-7.159 15.958-15.958 15.958h-7.52c-.116 0-.227.045-.311.126l-17.457 16.882c-.867.838-2.006 1.28-3.163 1.281z"/></g></g><g><g><path d="m146.559 111.272c-6.507 0-12.532-3.796-15.351-9.672-.598-1.245-.072-2.738 1.173-3.335 1.245-.598 2.738-.072 3.335 1.173 1.991 4.152 6.248 6.834 10.843 6.834 6.631 0 12.025-5.395 12.025-12.025 0-1.516-.288-3.006-.857-4.428-.513-1.282.111-2.737 1.393-3.25 1.283-.514 2.738.112 3.25 1.393.806 2.016 1.215 4.13 1.215 6.286-.001 9.386-7.639 17.024-17.026 17.024z"/></g></g><g><g><path d="m150.917 127.791h-8.716c-2.06 0-3.734-1.675-3.734-3.734v-2.854c-1.816-.544-3.574-1.273-5.246-2.175l-2.02 2.019c-1.407 1.409-3.87 1.412-5.281 0l-6.162-6.162c-1.455-1.457-1.455-3.825-.001-5.281l2.021-2.02c-1.059-1.964-1.879-4.044-2.443-6.199-.35-1.335.45-2.702 1.786-3.051 1.331-.351 2.701.45 3.052 1.786.531 2.031 1.34 3.983 2.404 5.801.856 1.462.616 3.321-.585 4.521l-1.803 1.803 4.372 4.373 1.805-1.804c1.199-1.199 3.058-1.439 4.52-.584 1.817 1.065 3.77 1.874 5.801 2.405 1.638.428 2.781 1.912 2.781 3.608v2.549h6.184v-2.549c0-1.696 1.144-3.18 2.781-3.608 2.032-.531 3.983-1.34 5.801-2.405 1.464-.856 3.321-.615 4.521.585l1.804 1.803 4.372-4.373-1.804-1.805c-1.2-1.201-1.439-3.059-.584-4.52 1.065-1.818 1.874-3.77 2.404-5.8.431-1.639 1.914-2.782 3.609-2.782h2.549v-6.184h-2.549c-1.695 0-3.179-1.143-3.608-2.779-.531-2.033-1.34-3.984-2.405-5.802-.855-1.461-.616-3.319.583-4.519l1.805-1.806-4.372-4.373-1.805 1.804c-.672.672-1.566 1.056-2.521 1.08-1.346.026-2.527-1.054-2.563-2.434-.03-1.178.758-2.186 1.848-2.479l2.401-2.401c1.457-1.456 3.825-1.455 5.28-.001l6.163 6.164c.705.704 1.095 1.643 1.095 2.64 0 .998-.39 1.937-1.096 2.642l-2.018 2.019c.901 1.672 1.631 3.43 2.175 5.246h2.854c2.06 0 3.734 1.675 3.734 3.734v8.716c0 2.059-1.675 3.734-3.734 3.734h-2.854c-.544 1.815-1.272 3.573-2.175 5.246l2.019 2.02c.705.704 1.095 1.643 1.095 2.641s-.39 1.936-1.096 2.641l-6.161 6.162c-1.457 1.455-3.825 1.455-5.28.001l-2.021-2.02c-1.671.901-3.43 1.63-5.246 2.175v2.854c-.003 2.057-1.677 3.732-3.736 3.732zm-28.655-19.344h.01z"/></g></g><g><g><path d="m231.344 176.083h-206.689c-1.381 0-2.5-1.119-2.5-2.5s1.119-2.5 2.5-2.5h206.688c1.381 0 2.5 1.119 2.5 2.5s-1.118 2.5-2.499 2.5z"/></g></g><g><g><path d="m128 209.109c-4.629 0-8.395-3.766-8.395-8.395s3.766-8.395 8.395-8.395 8.395 3.766 8.395 8.395-3.766 8.395-8.395 8.395zm0-11.79c-1.872 0-3.395 1.523-3.395 3.395s1.522 3.395 3.395 3.395 3.395-1.523 3.395-3.395-1.523-3.395-3.395-3.395z"/></g></g><g><g><path d="m47.553 186.859c-1.381 0-2.5-1.119-2.5-2.5v-10.188c0-1.381 1.119-2.5 2.5-2.5s2.5 1.119 2.5 2.5v10.188c0 1.381-1.119 2.5-2.5 2.5z"/></g></g></g></g></svg>