<svg id="Capa_1" enable-background="new 0 0 512 512" height="512" viewBox="0 0 512 512" width="512" xmlns="http://www.w3.org/2000/svg"><g><g><path d="m316.842 431.899c-48.811 0-88.522-39.711-88.522-88.522l-.369-238.151c0-35.163-28.597-63.76-63.747-63.76-35.151 0-63.748 28.597-63.748 63.748l.369 98.073c.016 4.276-3.438 7.755-7.713 7.771-.01 0-.02 0-.03 0-4.262 0-7.725-3.447-7.741-7.713l-.369-98.102c0-43.718 35.543-79.261 79.232-79.261s79.231 35.543 79.231 79.231l.369 238.151c0 40.285 32.765 73.05 73.038 73.05s73.038-32.765 73.038-73.038v-123.91c0-4.276 3.466-7.742 7.742-7.742s7.742 3.466 7.742 7.742v123.911c0 48.812-39.711 88.522-88.522 88.522z" fill="#384656"/><path d="m93.083 502.419c70.232 0 93.083-50.675 93.083-102.083v-113.227c0-51.408-41.674-93.083-93.083-93.083-51.408 0-93.083 41.674-93.083 93.083v113.228c0 51.408 28.52 102.082 93.083 102.082z" fill="#e5ecf7"/><path d="m283.62 105.088c0 69.459 53.96 114.088 114.001 114.088s114.001-47.734 114.001-114.088c-4.728-58.824-53.959-105.088-114-105.088-60.042 0-109.273 46.264-114.002 105.088z" fill="#ffe07d"/><path d="m397.622 187.291c42.417 0 81.958-36.311 81.958-82.202-4.618-41.184-39.541-73.204-81.958-73.204s-77.34 32.019-81.959 73.203c0 49.147 39.542 82.203 81.959 82.203z" fill="#e7a561"/><path d="m93.08 297.117c16.044 0 18.22-17.157 18.22-27.22v-16.827c0-10.062-8.157-18.22-18.219-18.22-10.062 0-18.219 8.157-18.219 18.22v16.827c-.001 10.063 1.791 27.22 18.218 27.22z" fill="#384656"/><path d="m93.083 493.419c-51.409 0-93.083-41.674-93.083-93.082v18.581c0 51.408 41.674 93.082 93.083 93.082 51.408 0 93.083-41.674 93.083-93.083v-18.581c0 51.409-41.675 93.083-93.083 93.083z" fill="#b9cbea"/><path d="m93.08 288.117c-10.062 0-18.219-8.157-18.219-18.22v18.581c0 10.062 8.157 18.219 18.219 18.219 10.062 0 18.219-8.157 18.219-18.219v-18.581c.001 10.063-8.156 18.22-18.219 18.22z" fill="#2f3b48"/><path d="m397.621 210.176c-60.041 0-109.272-46.264-114.001-105.088-.246 3.065-.377 6.162-.377 9.29 0 63.17 51.209 114.378 114.378 114.378 63.17 0 114.379-51.209 114.379-114.378 0-3.128-.131-6.226-.377-9.29-4.729 58.824-53.96 105.088-114.002 105.088z" fill="#ffd064"/><path d="m397.621 178.291c-42.417 0-77.34-32.019-81.958-73.203-.342 3.051-.534 6.148-.534 9.29 0 45.56 36.933 82.493 82.493 82.493s82.493-36.933 82.493-82.493c0-3.143-.192-6.239-.534-9.29-4.619 41.184-39.542 73.203-81.96 73.203z" fill="#e49542"/></g><g><path d="m381.27 140.437c-3.587-2.346-8.392-1.34-10.738 2.245-2.345 3.585-1.34 8.392 2.245 10.738 6.397 4.185 11.101 5.86 16.876 6.458v3.807c0 4.284 3.473 7.757 7.757 7.757 4.285 0 7.757-3.473 7.757-7.757v-4.56c11.756-3.213 19.288-13.35 20.97-23.354 2.2-13.088-4.902-24.914-17.674-29.428-1.086-.384-2.19-.782-3.297-1.189v-21.032c1.742.784 2.762 1.617 2.895 1.731.004.004.027.021.027.021 8.225 6.879 18.17-6.937 9.122-12.58-2.68-2.07-6.844-4.303-12.044-5.405v-3.373c0-4.284-3.473-7.757-7.757-7.757-4.285 0-7.757 3.473-7.757 7.757v3.899c-.28.077-.56.151-.842.236-8.638 2.602-15.088 9.969-16.832 19.226-1.604 8.515 1.175 16.765 7.252 21.532 2.733 2.144 6.046 4.111 10.423 6.143v28.688c-2.739-.506-4.987-1.582-8.383-3.803zm29.568-7.237c-.558 3.322-2.481 6.799-5.67 9.04v-20.456c6.253 3.174 6.088 8.93 5.67 11.416zm-22.033-35.997c-1.48-1.161-2.1-3.692-1.58-6.451.308-1.634 1.096-3.46 2.428-4.92v12.001c-.294-.209-.578-.419-.848-.63z" fill="#fff"/></g></g></svg>