<svg width="76" height="24" viewBox="0 0 76 24" fill="none" xmlns="http://www.w3.org/2000/svg">
<path d="M0.280273 18V0.104492H6.44482C7.83643 0.104492 8.89844 0.189941 9.63086 0.36084C10.6562 0.596842 11.5311 1.02409 12.2554 1.64258C13.1994 2.4401 13.9033 3.46143 14.3672 4.70654C14.8392 5.94352 15.0752 7.35954 15.0752 8.95459C15.0752 10.3136 14.9165 11.5181 14.5991 12.5679C14.2817 13.6177 13.8748 14.4884 13.3784 15.1802C12.882 15.8638 12.3368 16.4049 11.7427 16.8037C11.1567 17.1943 10.4447 17.4914 9.60645 17.6948C8.77637 17.8983 7.82015 18 6.73779 18H0.280273ZM2.64844 15.8882H6.46924C7.64925 15.8882 8.57292 15.7783 9.24023 15.5586C9.91569 15.3389 10.4528 15.0296 10.8516 14.6309C11.4131 14.0693 11.8485 13.3166 12.1577 12.3726C12.4751 11.4204 12.6338 10.2689 12.6338 8.91797C12.6338 7.04622 12.3245 5.60986 11.7061 4.60889C11.0957 3.59977 10.3511 2.92432 9.47217 2.58252C8.8374 2.33838 7.81608 2.21631 6.4082 2.21631H2.64844V15.8882ZM26.5254 16.4009C25.7116 17.0926 24.9263 17.5809 24.1694 17.8657C23.4207 18.1506 22.6151 18.293 21.7524 18.293C20.3283 18.293 19.2337 17.9471 18.4688 17.2554C17.7038 16.5555 17.3213 15.6644 17.3213 14.582C17.3213 13.9473 17.4637 13.3695 17.7485 12.8486C18.0415 12.3197 18.4199 11.8965 18.8838 11.5791C19.3558 11.2617 19.8848 11.0216 20.4707 10.8589C20.902 10.745 21.5531 10.6351 22.4238 10.5293C24.1979 10.3177 25.5041 10.0654 26.3423 9.77246C26.3504 9.47135 26.3545 9.28011 26.3545 9.19873C26.3545 8.30355 26.147 7.67285 25.7319 7.30664C25.1704 6.81022 24.3363 6.56201 23.2295 6.56201C22.196 6.56201 21.431 6.74512 20.9346 7.11133C20.4463 7.4694 20.0841 8.10824 19.8481 9.02783L17.6997 8.73486C17.895 7.81527 18.2165 7.07471 18.6641 6.51318C19.1117 5.94352 19.7586 5.50814 20.605 5.20703C21.4513 4.89779 22.432 4.74316 23.5469 4.74316C24.6536 4.74316 25.5529 4.87337 26.2446 5.13379C26.9364 5.39421 27.445 5.7238 27.7705 6.12256C28.096 6.51318 28.3239 7.0096 28.4541 7.61182C28.5273 7.98617 28.564 8.66162 28.564 9.63818V12.5679C28.564 14.6105 28.6087 15.9045 28.6982 16.4497C28.7959 16.9868 28.9831 17.5036 29.2598 18H26.9648C26.737 17.5443 26.5905 17.0112 26.5254 16.4009ZM26.3423 11.4937C25.5448 11.8192 24.3485 12.0959 22.7534 12.3237C21.8501 12.4539 21.2113 12.6004 20.8369 12.7632C20.4626 12.9259 20.1737 13.166 19.9702 13.4834C19.7668 13.7926 19.665 14.1385 19.665 14.521C19.665 15.1069 19.8848 15.5952 20.3242 15.9858C20.7718 16.3765 21.4229 16.5718 22.2773 16.5718C23.1237 16.5718 23.8765 16.3887 24.5356 16.0225C25.1948 15.6481 25.679 15.1395 25.9883 14.4966C26.2243 14.0002 26.3423 13.2677 26.3423 12.2993V11.4937ZM31.9697 2.65576V0.104492H34.167V2.65576H31.9697ZM29.1865 23.0293L29.6016 21.1616C30.041 21.2756 30.3869 21.3325 30.6392 21.3325C31.0868 21.3325 31.4204 21.182 31.6401 20.8809C31.8599 20.5879 31.9697 19.8473 31.9697 18.6592V5.03613H34.167V18.708C34.167 20.3031 33.9595 21.4139 33.5444 22.0405C33.0155 22.8543 32.1366 23.2612 30.9077 23.2612C30.3136 23.2612 29.7399 23.1839 29.1865 23.0293ZM46.0444 18V16.0957C45.0353 17.5605 43.6641 18.293 41.9307 18.293C41.1657 18.293 40.4495 18.1465 39.7822 17.8535C39.123 17.5605 38.6307 17.1943 38.3052 16.7549C37.9878 16.3073 37.764 15.762 37.6338 15.1191C37.5443 14.6878 37.4995 14.0042 37.4995 13.0684V5.03613H39.6968V12.2261C39.6968 13.3735 39.7415 14.1466 39.8311 14.5454C39.9694 15.1232 40.2624 15.5789 40.71 15.9126C41.1576 16.2381 41.7109 16.4009 42.3701 16.4009C43.0293 16.4009 43.6478 16.234 44.2256 15.9004C44.8034 15.5586 45.2103 15.0988 45.4463 14.521C45.6904 13.9351 45.8125 13.0887 45.8125 11.9819V5.03613H48.0098V18H46.0444ZM51.4644 18V5.03613H53.4419V6.87939C54.394 5.45524 55.7694 4.74316 57.5679 4.74316C58.3491 4.74316 59.0653 4.88558 59.7163 5.17041C60.3755 5.4471 60.8678 5.81331 61.1934 6.26904C61.5189 6.72477 61.7467 7.26595 61.877 7.89258C61.9583 8.29948 61.999 9.01156 61.999 10.0288V18H59.8018V10.1143C59.8018 9.21908 59.7163 8.55176 59.5454 8.1123C59.3745 7.66471 59.0693 7.31071 58.6299 7.05029C58.1986 6.78174 57.6899 6.64746 57.104 6.64746C56.1681 6.64746 55.3584 6.9445 54.6748 7.53857C53.9993 8.13265 53.6616 9.25977 53.6616 10.9199V18H51.4644ZM64.9775 19.0742L67.1138 19.3916C67.2033 20.0508 67.4515 20.5309 67.8584 20.832C68.4036 21.2389 69.1483 21.4424 70.0923 21.4424C71.1095 21.4424 71.8949 21.2389 72.4482 20.832C73.0016 20.4251 73.376 19.8555 73.5713 19.123C73.6852 18.6755 73.7381 17.7355 73.73 16.3032C72.7697 17.4344 71.5734 18 70.1411 18C68.3589 18 66.9795 17.3571 66.0029 16.0713C65.0264 14.7855 64.5381 13.2433 64.5381 11.4448C64.5381 10.2078 64.7619 9.06852 65.2095 8.02686C65.6571 6.97705 66.304 6.16732 67.1504 5.59766C68.0049 5.02799 69.0059 4.74316 70.1533 4.74316C71.6833 4.74316 72.9447 5.36165 73.9375 6.59863V5.03613H75.9639V16.2422C75.9639 18.2604 75.7563 19.6886 75.3413 20.5269C74.9344 21.3732 74.2834 22.0405 73.3882 22.5288C72.5011 23.0171 71.4066 23.2612 70.1045 23.2612C68.5583 23.2612 67.3091 22.9113 66.3569 22.2114C65.4048 21.5197 64.945 20.474 64.9775 19.0742ZM66.7964 11.2861C66.7964 12.987 67.1341 14.228 67.8096 15.0093C68.485 15.7905 69.3314 16.1812 70.3486 16.1812C71.3577 16.1812 72.2041 15.7946 72.8877 15.0215C73.5713 14.2402 73.9131 13.0195 73.9131 11.3594C73.9131 9.77246 73.5591 8.57617 72.8511 7.77051C72.1512 6.96484 71.3049 6.56201 70.312 6.56201C69.3354 6.56201 68.5054 6.96077 67.8218 7.7583C67.1382 8.54769 66.7964 9.72363 66.7964 11.2861Z" fill="black"/>
</svg>
