<?xml version="1.0" ?><!DOCTYPE svg  PUBLIC '-//W3C//DTD SVG 1.1//EN'  'http://www.w3.org/Graphics/SVG/1.1/DTD/svg11.dtd'><svg enable-background="new 0 0 128 128" id="Слой_1" version="1.1" viewBox="0 0 128 128" xml:space="preserve" xmlns="http://www.w3.org/2000/svg" xmlns:xlink="http://www.w3.org/1999/xlink"><g><path d="M114,49H14C8.5,49,4,53.5,4,59v50c0,5.5,4.5,10,10,10h100c5.5,0,10-4.5,10-10V59C124,53.5,119.5,49,114,49z   " fill="#ADA2B5"/></g><g><g><path d="M10,64c0-5.5,4.5-10,10-10l100-3c1,0,2,3.2,2.9,3.4c-1.7-3.2-5-5.4-8.9-5.4H14C8.5,49,4,53.5,4,59v50    c0,4.5,3,8.3,7.1,9.6c-0.7-1.4-4.1-2.9-4.1-4.6L10,64z" fill="#FFFFFF"/></g></g><g><path d="M14,64c-2.8,0-5-2.2-5-5l0,0c0-2.8,2.2-5,5-5h100c2.8,0,5,2.2,5,5l0,0c0,2.8-2.2,5-5,5H14z" fill="#C9E6F3"/></g><g opacity="0.5"><path d="M14,54h100c2.8,0,5,2.2,5,5l0,0c0,2.8-2.2,5-5,5C114,64,11.2,54,14,54z" fill="#FFFFFF"/></g><g><circle cx="96.5" cy="91.5" fill="#FFE3C1" r="22.5"/></g><g><g><path d="M99.5,72c5.4,0,10.4,1.9,14.3,5.2c-4.1-5-10.4-8.2-17.3-8.2C84.1,69,74,79.1,74,91.5    c0,7,3.2,13.2,8.2,17.3c-3.2-3.9-5.2-8.9-5.2-14.3C77,82.1,87.1,72,99.5,72z" fill="#FFFFFF"/></g></g><g><circle cx="51.5" cy="91.5" fill="#F9B199" r="7.5"/></g><g><g><path d="M53.5,86c1.6,0,3,0.5,4.2,1.3c-1.3-2-3.6-3.3-6.2-3.3c-4.1,0-7.5,3.4-7.5,7.5c0,2.6,1.3,4.9,3.3,6.2    c-0.8-1.2-1.3-2.6-1.3-4.2C46,89.4,49.4,86,53.5,86z" fill="#FFFFFF"/></g></g><g><circle cx="21.5" cy="91.5" fill="#F9B199" r="7.5"/></g><g><g><path d="M23.5,86c1.6,0,3,0.5,4.2,1.3c-1.3-2-3.6-3.3-6.2-3.3c-4.1,0-7.5,3.4-7.5,7.5c0,2.6,1.3,4.9,3.3,6.2    c-0.8-1.2-1.3-2.6-1.3-4.2C16,89.4,19.4,86,23.5,86z" fill="#FFFFFF"/></g></g><g><g><path d="M114,47.5h-3.5V8.1c0.9-0.5,1.5-1.5,1.5-2.6c0-1.7-1.3-3-3-3s-3,1.3-3,3c0,1.1,0.6,2.1,1.5,2.6v39.4H14    C7.7,47.5,2.5,52.7,2.5,59v50c0,6.3,5.2,11.5,11.5,11.5h3.5v3.5c0,0.8,0.7,1.5,1.5,1.5s1.5-0.7,1.5-1.5v-3.5h87v3.5    c0,0.8,0.7,1.5,1.5,1.5s1.5-0.7,1.5-1.5v-3.5h3.5c6.3,0,11.5-5.2,11.5-11.5V59C125.5,52.7,120.3,47.5,114,47.5z M122.5,109    c0,4.7-3.8,8.5-8.5,8.5H14c-4.7,0-8.5-3.8-8.5-8.5V59c0-4.7,3.8-8.5,8.5-8.5h100c4.7,0,8.5,3.8,8.5,8.5V109z" fill="#62355C"/></g><g><path d="M114,52.5H14c-3.6,0-6.5,2.9-6.5,6.5s2.9,6.5,6.5,6.5h100c3.6,0,6.5-2.9,6.5-6.5S117.6,52.5,114,52.5z     M10.5,59c0-1.9,1.6-3.5,3.5-3.5h33.6c-0.1,0.2-0.1,0.3-0.1,0.5v6.5h-7V61c0-0.8-0.7-1.5-1.5-1.5s-1.5,0.7-1.5,1.5v1.5h-7V61    c0-0.8-0.7-1.5-1.5-1.5s-1.5,0.7-1.5,1.5v1.5h-7V61c0-0.8-0.7-1.5-1.5-1.5s-1.5,0.7-1.5,1.5v1.5H14C12.1,62.5,10.5,60.9,10.5,59z     M114,62.5h-3.5V61c0-0.8-0.7-1.5-1.5-1.5s-1.5,0.7-1.5,1.5v1.5h-7V61c0-0.8-0.7-1.5-1.5-1.5s-1.5,0.7-1.5,1.5v1.5h-7V61    c0-0.8-0.7-1.5-1.5-1.5s-1.5,0.7-1.5,1.5v1.5h-7V61c0-0.8-0.7-1.5-1.5-1.5s-1.5,0.7-1.5,1.5v1.5h-7V61c0-0.8-0.7-1.5-1.5-1.5    s-1.5,0.7-1.5,1.5v1.5h-7V61c0-0.8-0.7-1.5-1.5-1.5s-1.5,0.7-1.5,1.5v1.5h-7V56c0-0.2,0-0.3-0.1-0.5H114c1.9,0,3.5,1.6,3.5,3.5    S115.9,62.5,114,62.5z" fill="#62355C"/></g><g><path d="M96.5,67.5c-13.2,0-24,10.8-24,24s10.8,24,24,24s24-10.8,24-24S109.7,67.5,96.5,67.5z M96.5,112.5    c-11.6,0-21-9.4-21-21s9.4-21,21-21s21,9.4,21,21S108.1,112.5,96.5,112.5z" fill="#62355C"/></g><g><path d="M53,82.6V82c0-0.8-0.7-1.5-1.5-1.5S50,81.2,50,82v0.6c-4.2,0.7-7.5,4.4-7.5,8.9c0,5,4,9,9,9s9-4,9-9    C60.5,87,57.2,83.4,53,82.6z M51.5,97.5c-3.3,0-6-2.7-6-6c0-2.8,1.9-5.1,4.5-5.8V87c0,0.8,0.7,1.5,1.5,1.5S53,87.8,53,87v-1.3    c2.6,0.7,4.5,3,4.5,5.8C57.5,94.8,54.8,97.5,51.5,97.5z" fill="#62355C"/></g><g><path d="M23,82.6V82c0-0.8-0.7-1.5-1.5-1.5S20,81.2,20,82v0.6c-4.2,0.7-7.5,4.4-7.5,8.9c0,5,4,9,9,9s9-4,9-9    C30.5,87,27.2,83.4,23,82.6z M21.5,97.5c-3.3,0-6-2.7-6-6c0-2.8,1.9-5.1,4.5-5.8V87c0,0.8,0.7,1.5,1.5,1.5S23,87.8,23,87v-1.3    c2.6,0.7,4.5,3,4.5,5.8C27.5,94.8,24.8,97.5,21.5,97.5z" fill="#62355C"/></g></g></svg>