<?xml version="1.0" ?><!DOCTYPE svg  PUBLIC '-//W3C//DTD SVG 1.1//EN'  'http://www.w3.org/Graphics/SVG/1.1/DTD/svg11.dtd'><svg enable-background="new 0 0 128 128" id="Слой_1" version="1.1" viewBox="0 0 128 128" xml:space="preserve" xmlns="http://www.w3.org/2000/svg" xmlns:xlink="http://www.w3.org/1999/xlink"><g><g><path d="M115.7,60H32.3c-4.6,0-8.3,3.7-8.3,8.3V110c0,4.6,3.7,8.3,8.3,8.3h83.3c4.6,0,8.3-3.7,8.3-8.3V68.3    C124,63.7,120.3,60,115.7,60z" fill="#D5D3DB"/></g><g><g><path d="M29,72.5c0-4.6,3.7-8.3,8.3-8.3l83.3-2.5c0.8,0,1.6,2.6,2.4,2.9c-1.4-2.7-4.2-4.5-7.4-4.5H32.3     c-4.6,0-8.3,3.7-8.3,8.3V110c0,3.8,2.5,6.9,5.9,8c-0.6-1.1-3.4-2.4-3.4-3.8L29,72.5z" fill="#FFFFFF"/></g></g><g><path d="M32.3,72.5c-2.3,0-4.2-1.9-4.2-4.2l0,0c0-2.3,1.9-4.2,4.2-4.2h83.3c2.3,0,4.2,1.9,4.2,4.2l0,0    c0,2.3-1.9,4.2-4.2,4.2H32.3z" fill="#D0DCE8"/></g><g><path d="M32.3,64.2h83.3c2.3,0,4.2,1.9,4.2,4.2l0,0c0,2.3-1.9,4.2-4.2,4.2C115.7,72.5,30,64.2,32.3,64.2z" fill="#FFFFFF"/></g><g><circle cx="101.1" cy="95.4" fill="#E8D8CF" r="18.8"/></g><g><g><path d="M103.6,79.2c4.5,0,8.7,1.6,11.9,4.3c-3.4-4.2-8.6-6.8-14.4-6.8c-10.4,0-18.8,8.4-18.8,18.8     c0,5.8,2.6,11,6.8,14.4c-2.7-3.2-4.3-7.4-4.3-11.9C84.8,87.6,93.2,79.2,103.6,79.2z" fill="#FFFFFF"/></g></g><g><circle cx="63.6" cy="95.4" fill="#E7C1BA" r="6.2"/></g><g><g><path d="M65.2,90.8c1.3,0,2.5,0.4,3.5,1.1c-1.1-1.7-3-2.7-5.2-2.7c-3.5,0-6.2,2.8-6.2,6.2c0,2.2,1.1,4,2.7,5.2     c-0.7-1-1.1-2.2-1.1-3.5C59,93.6,61.8,90.8,65.2,90.8z" fill="#FFFFFF"/></g></g><g><circle cx="38.6" cy="95.4" fill="#E7C1BA" r="6.2"/></g><g><g><path d="M40.2,90.8c1.3,0,2.5,0.4,3.5,1.1c-1.1-1.7-3-2.7-5.2-2.7c-3.5,0-6.2,2.8-6.2,6.2c0,2.2,1.1,4,2.7,5.2     c-0.7-1-1.1-2.2-1.1-3.5C34,93.6,36.8,90.8,40.2,90.8z" fill="#FFFFFF"/></g></g><g><g><path d="M115.7,119.8H32.3c-5.4,0-9.8-4.4-9.8-9.8V68.3c0-5.4,4.4-9.8,9.8-9.8h83.3c5.4,0,9.8,4.4,9.8,9.8V110     C125.5,115.4,121.1,119.8,115.7,119.8z M32.3,61.5c-3.8,0-6.8,3.1-6.8,6.8V110c0,3.8,3.1,6.8,6.8,6.8h83.3c3.8,0,6.8-3.1,6.8-6.8     V68.3c0-3.8-3.1-6.8-6.8-6.8H32.3z" fill="#AF9BAC"/></g></g><g><g><path d="M115.7,74H32.3c-3.1,0-5.7-2.5-5.7-5.7c0-3.1,2.5-5.7,5.7-5.7h83.3c3.1,0,5.7,2.5,5.7,5.7     C121.3,71.5,118.8,74,115.7,74z M32.3,65.7c-1.5,0-2.7,1.2-2.7,2.7c0,1.5,1.2,2.7,2.7,2.7h83.3c1.5,0,2.7-1.2,2.7-2.7     c0-1.5-1.2-2.7-2.7-2.7H32.3z" fill="#AF9BAC"/></g></g><g><g><path d="M111.5,61.5c-0.8,0-1.5-0.7-1.5-1.5V23.7c0-0.8,0.7-1.5,1.5-1.5s1.5,0.7,1.5,1.5V60     C113,60.8,112.3,61.5,111.5,61.5z" fill="#AF9BAC"/></g></g><g><g><path d="M111.5,26.5c-1.5,0-2.8-1.2-2.8-2.8s1.2-2.8,2.8-2.8s2.8,1.2,2.8,2.8S113,26.5,111.5,26.5z M111.5,23.5     c-0.1,0-0.2,0.1-0.2,0.2c0,0.3,0.5,0.3,0.5,0C111.8,23.6,111.6,23.5,111.5,23.5z" fill="#AF9BAC"/></g></g><g><g><path d="M111.5,26.5c-1.5,0-2.8-1.2-2.8-2.8s1.2-2.8,2.8-2.8s2.8,1.2,2.8,2.8S113,26.5,111.5,26.5z M111.5,23.5     c-0.1,0-0.2,0.1-0.2,0.2c0,0.3,0.5,0.3,0.5,0C111.8,23.6,111.6,23.5,111.5,23.5z" fill="#AF9BAC"/></g></g><g><g><path d="M101.1,115.7c-11.2,0-20.2-9.1-20.2-20.2s9.1-20.2,20.2-20.2s20.2,9.1,20.2,20.2S112.2,115.7,101.1,115.7     z M101.1,78.2c-9.5,0-17.2,7.7-17.2,17.2s7.7,17.2,17.2,17.2s17.2-7.7,17.2-17.2S110.6,78.2,101.1,78.2z" fill="#AF9BAC"/></g></g><g><g><path d="M63.6,103.2c-4.3,0-7.8-3.5-7.8-7.8s3.5-7.8,7.8-7.8c4.3,0,7.7,3.5,7.7,7.8S67.9,103.2,63.6,103.2z      M63.6,90.7c-2.6,0-4.8,2.1-4.8,4.8s2.1,4.8,4.8,4.8c2.6,0,4.7-2.1,4.7-4.8S66.2,90.7,63.6,90.7z" fill="#AF9BAC"/></g></g><g><g><path d="M63.6,103.2c-4.3,0-7.8-3.5-7.8-7.8s3.5-7.8,7.8-7.8c4.3,0,7.7,3.5,7.7,7.8S67.9,103.2,63.6,103.2z      M63.6,90.7c-2.6,0-4.8,2.1-4.8,4.8s2.1,4.8,4.8,4.8c2.6,0,4.7-2.1,4.7-4.8S66.2,90.7,63.6,90.7z" fill="#AF9BAC"/></g></g><g><g><path d="M38.6,103.2c-4.3,0-7.8-3.5-7.8-7.8s3.5-7.8,7.8-7.8s7.8,3.5,7.8,7.8S42.9,103.2,38.6,103.2z M38.6,90.7     c-2.6,0-4.8,2.1-4.8,4.8s2.1,4.8,4.8,4.8s4.8-2.1,4.8-4.8S41.2,90.7,38.6,90.7z" fill="#AF9BAC"/></g></g><g><g><path d="M36.5,74c-0.8,0-1.5-0.7-1.5-1.5V70c0-0.8,0.7-1.5,1.5-1.5S38,69.2,38,70v2.5C38,73.3,37.3,74,36.5,74z" fill="#AF9BAC"/></g></g><g><g><path d="M44.8,74c-0.8,0-1.5-0.7-1.5-1.5V70c0-0.8,0.7-1.5,1.5-1.5s1.5,0.7,1.5,1.5v2.5     C46.3,73.3,45.7,74,44.8,74z" fill="#AF9BAC"/></g></g><g><g><path d="M53.2,74c-0.8,0-1.5-0.7-1.5-1.5V70c0-0.8,0.7-1.5,1.5-1.5s1.5,0.7,1.5,1.5v2.5C54.7,73.3,54,74,53.2,74z     " fill="#AF9BAC"/></g></g><g><g><path d="M61.5,74c-0.8,0-1.5-0.7-1.5-1.5v-6.7c0-0.8,0.7-1.5,1.5-1.5S63,65,63,65.8v6.7C63,73.3,62.3,74,61.5,74z     " fill="#AF9BAC"/></g></g><g><g><path d="M69.8,74c-0.8,0-1.5-0.7-1.5-1.5V70c0-0.8,0.7-1.5,1.5-1.5s1.5,0.7,1.5,1.5v2.5     C71.3,73.3,70.7,74,69.8,74z" fill="#AF9BAC"/></g></g><g><g><path d="M78.2,74c-0.8,0-1.5-0.7-1.5-1.5V70c0-0.8,0.7-1.5,1.5-1.5s1.5,0.7,1.5,1.5v2.5C79.7,73.3,79,74,78.2,74z     " fill="#AF9BAC"/></g></g><g><g><path d="M86.5,74c-0.8,0-1.5-0.7-1.5-1.5V70c0-0.8,0.7-1.5,1.5-1.5S88,69.2,88,70v2.5C88,73.3,87.3,74,86.5,74z" fill="#AF9BAC"/></g></g><g><g><path d="M94.8,74c-0.8,0-1.5-0.7-1.5-1.5V70c0-0.8,0.7-1.5,1.5-1.5s1.5,0.7,1.5,1.5v2.5     C96.3,73.3,95.7,74,94.8,74z" fill="#AF9BAC"/></g></g><g><g><path d="M103.2,74c-0.8,0-1.5-0.7-1.5-1.5V70c0-0.8,0.7-1.5,1.5-1.5s1.5,0.7,1.5,1.5v2.5     C104.7,73.3,104,74,103.2,74z" fill="#AF9BAC"/></g></g><g><g><path d="M111.5,74c-0.8,0-1.5-0.7-1.5-1.5V70c0-0.8,0.7-1.5,1.5-1.5s1.5,0.7,1.5,1.5v2.5     C113,73.3,112.3,74,111.5,74z" fill="#AF9BAC"/></g></g><g><g><path d="M36.5,124c-0.8,0-1.5-0.7-1.5-1.5v-4.2c0-0.8,0.7-1.5,1.5-1.5s1.5,0.7,1.5,1.5v4.2     C38,123.3,37.3,124,36.5,124z" fill="#AF9BAC"/></g></g><g><g><path d="M111.5,124c-0.8,0-1.5-0.7-1.5-1.5v-4.2c0-0.8,0.7-1.5,1.5-1.5s1.5,0.7,1.5,1.5v4.2     C113,123.3,112.3,124,111.5,124z" fill="#AF9BAC"/></g></g><g><g><path d="M38.6,93.2c-0.8,0-1.5-0.7-1.5-1.5v-4.2c0-0.8,0.7-1.5,1.5-1.5s1.5,0.7,1.5,1.5v4.2     C40.1,92.5,39.4,93.2,38.6,93.2z" fill="#AF9BAC"/></g></g><g><g><path d="M63.6,93.2c-0.8,0-1.5-0.7-1.5-1.5v-4.2c0-0.8,0.7-1.5,1.5-1.5s1.5,0.7,1.5,1.5v4.2     C65.1,92.5,64.4,93.2,63.6,93.2z" fill="#AF9BAC"/></g></g></g><g><g><path d="M41.5,49.5c-2.5,0-4.5-2-4.5-4.5s2-4.5,4.5-4.5s4.5,2,4.5,4.5S44,49.5,41.5,49.5z M41.5,43.5    c-0.8,0-1.5,0.7-1.5,1.5s0.7,1.5,1.5,1.5S43,45.8,43,45S42.3,43.5,41.5,43.5z" fill="#46B8C4"/></g><g><path d="M54.5,46.5c-2.5,0-4.5-2-4.5-4.5s2-4.5,4.5-4.5s4.5,2,4.5,4.5S57,46.5,54.5,46.5z M54.5,40.5    c-0.8,0-1.5,0.7-1.5,1.5s0.7,1.5,1.5,1.5S56,42.8,56,42S55.3,40.5,54.5,40.5z" fill="#46B8C4"/></g><g><path d="M44.5,46.5c-0.8,0-1.5-0.7-1.5-1.5V30c0-0.7,0.5-1.3,1.2-1.5l13-3c0.4-0.1,0.9,0,1.3,0.3    c0.4,0.3,0.6,0.7,0.6,1.2v15c0,0.8-0.7,1.5-1.5,1.5S56,42.8,56,42V28.9l-10,2.3V45C46,45.8,45.3,46.5,44.5,46.5z" fill="#46B8C4"/></g><g><path d="M31.5,27.5c-2.5,0-4.5-2-4.5-4.5s2-4.5,4.5-4.5s4.5,2,4.5,4.5S34,27.5,31.5,27.5z M31.5,21.5    c-0.8,0-1.5,0.7-1.5,1.5s0.7,1.5,1.5,1.5S33,23.8,33,23S32.3,21.5,31.5,21.5z" fill="#46B8C4"/></g><g><path d="M28.5,37.5c-0.8,0-1.5-0.7-1.5-1.5V23c0-0.8,0.7-1.5,1.5-1.5S30,22.2,30,23v13    C30,36.8,29.3,37.5,28.5,37.5z" fill="#46B8C4"/></g><g><path d="M71.5,33.5c-2.5,0-4.5-2-4.5-4.5s2-4.5,4.5-4.5s4.5,2,4.5,4.5S74,33.5,71.5,33.5z M71.5,27.5    c-0.8,0-1.5,0.7-1.5,1.5s0.7,1.5,1.5,1.5S73,29.8,73,29S72.3,27.5,71.5,27.5z" fill="#46B8C4"/></g><g><path d="M74.5,30.5c-0.8,0-1.5-0.7-1.5-1.5V16c0-0.8,0.7-1.5,1.5-1.5h5c0.8,0,1.5,0.7,1.5,1.5s-0.7,1.5-1.5,1.5H76    V29C76,29.8,75.3,30.5,74.5,30.5z" fill="#46B8C4"/></g><g><path d="M45.5,23.5c-2.5,0-4.5-2-4.5-4.5s2-4.5,4.5-4.5s4.5,2,4.5,4.5S48,23.5,45.5,23.5z M45.5,17.5    c-0.8,0-1.5,0.7-1.5,1.5s0.7,1.5,1.5,1.5S47,19.8,47,19S46.3,17.5,45.5,17.5z" fill="#46B8C4"/></g><g><path d="M48.5,20.5c-0.8,0-1.5-0.7-1.5-1.5V6c0-0.8,0.7-1.5,1.5-1.5S50,5.2,50,6v13C50,19.8,49.3,20.5,48.5,20.5z" fill="#46B8C4"/></g></g></svg>