<svg width="68" height="24" viewBox="0 0 68 24" fill="none" xmlns="http://www.w3.org/2000/svg">
<path d="M10.1602 18V16.3643C9.33822 17.6501 8.12972 18.293 6.53467 18.293C5.50114 18.293 4.54899 18.0081 3.67822 17.4385C2.81559 16.8688 2.14421 16.0754 1.66406 15.0581C1.19206 14.0327 0.956055 12.8568 0.956055 11.5303C0.956055 10.2363 1.17171 9.06445 1.60303 8.01465C2.03434 6.95671 2.68132 6.14697 3.54395 5.58545C4.40658 5.02393 5.37093 4.74316 6.43701 4.74316C7.21826 4.74316 7.91406 4.90999 8.52441 5.24365C9.13477 5.56917 9.63118 5.99642 10.0137 6.52539V0.104492H12.1987V18H10.1602ZM3.21436 11.5303C3.21436 13.1904 3.56429 14.4315 4.26416 15.2534C4.96403 16.0754 5.79004 16.4863 6.74219 16.4863C7.70247 16.4863 8.51628 16.0957 9.18359 15.3145C9.85905 14.5251 10.1968 13.3247 10.1968 11.7134C10.1968 9.93929 9.85498 8.63721 9.17139 7.80713C8.48779 6.97705 7.64551 6.56201 6.64453 6.56201C5.66797 6.56201 4.8501 6.96077 4.19092 7.7583C3.53988 8.55583 3.21436 9.81315 3.21436 11.5303ZM13.6392 22.9683V21.3813H28.2021V22.9683H13.6392ZM29.5693 2.65576V0.104492H31.7666V2.65576H29.5693ZM26.7861 23.0293L27.2012 21.1616C27.6406 21.2756 27.9865 21.3325 28.2388 21.3325C28.6864 21.3325 29.02 21.182 29.2397 20.8809C29.4595 20.5879 29.5693 19.8473 29.5693 18.6592V5.03613H31.7666V18.708C31.7666 20.3031 31.5591 21.4139 31.144 22.0405C30.6151 22.8543 29.7362 23.2612 28.5073 23.2612C27.9132 23.2612 27.3395 23.1839 26.7861 23.0293ZM33.1216 22.9683V21.3813H47.6846V22.9683H33.1216ZM49.0518 2.65576V0.104492H51.249V2.65576H49.0518ZM46.2686 23.0293L46.6836 21.1616C47.123 21.2756 47.4689 21.3325 47.7212 21.3325C48.1688 21.3325 48.5024 21.182 48.7222 20.8809C48.9419 20.5879 49.0518 19.8473 49.0518 18.6592V5.03613H51.249V18.708C51.249 20.3031 51.0415 21.4139 50.6265 22.0405C50.0975 22.8543 49.2186 23.2612 47.9897 23.2612C47.3957 23.2612 46.8219 23.1839 46.2686 23.0293ZM52.604 22.9683V21.3813H67.167V22.9683H52.604Z" fill="black"/>
</svg>
